<?xml version="1.0" encoding="UTF-8"?>
<!DOCTYPE svg PUBLIC "-//W3C//DTD SVG 1.1//EN" "http://www.w3.org/Graphics/SVG/1.1/DTD/svg11.dtd">
<!-- Creator: CorelDRAW 2018 (64-Bit) -->
<svg xmlns="http://www.w3.org/2000/svg" xml:space="preserve" width="200px" height="212px" version="1.1" style="shape-rendering:geometricPrecision; text-rendering:geometricPrecision; image-rendering:optimizeQuality; fill-rule:evenodd; clip-rule:evenodd"
viewBox="0 0 201.35 213.15"
 xmlns:xlink="http://www.w3.org/1999/xlink">
 <defs>
  <style type="text/css">
   <![CDATA[
    .fil7 {fill:#FEFEFE}
    .fil0 {fill:#2B2A29}
    .fil6 {fill:#FEFEFE;fill-rule:nonzero}
    .fil2 {fill:url(#id0)}
    .fil5 {fill:url(#id1)}
    .fil4 {fill:url(#id2)}
    .fil3 {fill:url(#id3)}
    .fil1 {fill:url(#id4)}
   ]]>
  </style>
  <linearGradient id="id0" gradientUnits="userSpaceOnUse" x1="11.67" y1="99.45" x2="27.02" y2="116.91">
   <stop offset="0" style="stop-opacity:1; stop-color:#B9B7B7"/>
   <stop offset="1" style="stop-opacity:1; stop-color:#E5E4E5"/>
  </linearGradient>
  <linearGradient id="id1" gradientUnits="userSpaceOnUse" x1="178.33" y1="153.7" x2="171.04" y2="129.42">
   <stop offset="0" style="stop-opacity:1; stop-color:#AEAEAE"/>
   <stop offset="1" style="stop-opacity:1; stop-color:#DADADA"/>
  </linearGradient>
  <linearGradient id="id2" gradientUnits="userSpaceOnUse" x1="162.99" y1="130.23" x2="173.92" y2="106.17">
   <stop offset="0" style="stop-opacity:1; stop-color:gainsboro"/>
   <stop offset="0.490196" style="stop-opacity:1; stop-color:#FEFEFE"/>
   <stop offset="1" style="stop-opacity:1; stop-color:#E1E1E1"/>
  </linearGradient>
  <linearGradient id="id3" gradientUnits="userSpaceOnUse" x1="32.64" y1="141.87" x2="30.71" y2="115.58">
   <stop offset="0" style="stop-opacity:1; stop-color:#E5E4E5"/>
   <stop offset="1" style="stop-opacity:1; stop-color:#FEFEFE"/>
  </linearGradient>
  <radialGradient id="id4" gradientUnits="userSpaceOnUse" gradientTransform="matrix(-2.4203 -2.98053 2.97352 -2.42601 86 466)" cx="81.65" cy="64.87" r="74.86" fx="81.65" fy="64.87">
   <stop offset="0" style="stop-opacity:1; stop-color:#FEFEFE"/>
   <stop offset="1" style="stop-opacity:1; stop-color:#A2A2A2"/>
  </radialGradient>
 </defs>
 <g id="Layer_x0020_1">
  <metadata id="CorelCorpID_0Corel-Layer"/>
  <g id="_2023393316864">
   <path class="fil0" d="M155.28 105.29c0,20.76 -7.76,39.32 -19.95,51.64 -0.46,3.88 -2.33,6.97 -5.32,9.42 17.37,-12.34 29.02,-35.07 29.02,-61.06 0,-7.3 -0.92,-14.35 -2.63,-20.97 -0.26,2.9 -1.02,5.64 -2.14,8.06 0.67,4.18 1.02,8.49 1.02,12.91zm-48.67 51.92c3.03,5.1 6.68,9.48 11.88,9.38 0.24,0.88 0.48,1.75 0.72,2.62 -5.76,-0.61 -10.17,-4.14 -12.79,-11.55 -0.32,-1.01 -0.17,-0.97 0.19,-0.45zm12.22 4.25c-0.97,-1.04 -0.78,-0.42 -0.3,0.92 1.96,5.46 3.14,8.28 4.51,10.08 3.38,4.44 7.23,0.53 7.53,-2.98 0.23,-1.7 -0.11,-1.77 -1.03,-0.19 -3.05,5.43 -6.93,-1.95 -10.71,-7.83zm17.84 -54.41c-0.35,-1.54 -0.1,-1.63 0.76,-0.24 1.09,2.58 1.6,5.08 1.98,7.57 3.34,3.65 1.58,10.36 -4.58,13.24 -9.57,9.09 -0.83,17 -1.34,26.89 -0.25,5.08 -2.62,8.77 -8.71,12.61 -0.63,-0.55 -1.25,-1.11 -1.87,-1.67 4.23,-2.54 7.27,-5.55 7.95,-9.51 0.34,-7.78 -4.2,-14.34 -3.32,-20.83 3.09,-11.91 13.34,-9.82 9.13,-28.06zm-27.44 22.25c-0.06,-0.11 3.24,1 3.24,1 -0.08,0.84 -1.28,1.16 -1.86,0.97 -0.57,-0.19 -1.58,-1.57 -1.38,-1.97zm-1.44 -0.29c-0.21,8.27 6.02,8.06 6.89,1.71l4.99 -0.38c1.01,0.13 0.99,-0.13 -0.07,-0.76l-16.15 -6.38c-1.36,-0.21 -1.03,0.33 -0.46,0.99 1.31,1.92 2.98,3.46 4.8,4.82zm-17.1 12.5c-2.97,-5.22 -6.79,-9.81 -7.59,-14.55 -0.64,-3.8 -0.05,-7.52 2.06,-11.14 0.15,-0.31 0.28,-0.59 -0.36,-0.19 -7.17,6.07 -7.44,14.28 5.39,26.53 0.9,0.57 0.9,0.18 0.5,-0.65zm8.35 13.71c-5.32,-14.64 -17.86,-16.14 -30.56,-7.38 -0.87,0.83 -0.58,1.01 0.51,0.74 16.22,-6.09 24.23,-1.46 29.27,7.06l0.78 -0.42zm16.56 14.5c-4.95,1.77 -10.19,2.72 -15.6,2.72 -30.53,0 -55.29,-30.07 -55.29,-67.15 0,-12.49 2.81,-24.19 7.71,-34.21 2.13,-5.92 5.43,-13.85 8.87,-19.31 -12.45,13 -20.32,32.16 -20.32,53.52 0,39.15 26.43,70.9 59.03,70.9 7.13,0 13.97,-1.52 20.3,-4.31 -0.31,-0.56 -0.6,-1.14 -0.89,-1.72 -1.37,0.03 -2.63,-0.12 -3.81,-0.44zm3.7 -87.59c-5.23,-8.9 -11.76,-16.72 -17.33,-23.79 -11.18,-14.2 -26.53,-19.67 -36.91,-7.61 -4.84,5.62 -8.93,13.78 -13.66,26.39 1.96,0.14 10.47,-18.96 13.66,-22.67 10.38,-12.06 24.93,-6.23 36.91,7.61 1.37,1.59 7.15,8.23 11.29,13.78 2.63,3.52 4.27,6.77 4.95,6.85l0.14 -0.07 0.95 -0.49zm-3.32 69.27c3.25,0.5 4.51,4.99 3.23,7.49 -0.56,0.8 -0.69,1.27 -0.8,-0.01 -0.11,-1.29 -0.23,-2.19 -1,-2.86 -0.29,-0.32 -0.6,-0.21 -0.69,-0.08 -0.63,0.84 -1.06,1.59 -1.72,1.63 -0.25,0.08 -0.72,-0.76 -1.34,-2.26 -0.32,-0.77 -0.24,-0.59 -0.61,0.1 -0.28,0.54 -0.18,2.02 -0.86,1.63 -0.59,-0.46 -1.24,-1.23 -0.74,-2.46 0.87,-2.14 2.25,-3.36 4.53,-3.18zm-15.98 -113.25c22.05,0 41.09,15.68 49.96,38.37 0.94,-0.89 1.82,-2 2.65,-3.41 -9.77,-22.98 -29.66,-38.72 -52.61,-38.72 -8.56,0 -16.7,2.19 -24.04,6.13 3.14,-0.41 6.08,-0.31 8.8,0.21 4.84,-1.68 9.95,-2.58 15.24,-2.58zm53.68 37.1c-0.52,13.86 -6.87,25.02 -15.91,22.86l-0.35 0.92c8.45,4.28 14.41,-3.74 16.65,-10.75 1.17,-3.68 1.3,-8.44 0.15,-14.52 -0.21,-0.51 -0.45,-0.85 -0.92,-0.03 -1.32,3.22 -3.92,5.49 -7.63,6.94 -3.27,1.28 -7.79,0.4 -12.29,2.01 0.25,0.19 0.49,0.39 0.72,0.61 0.31,0.28 0.59,0.58 0.86,0.88 6.92,-0.84 15.16,2.44 18.72,-8.92zm-36.57 12.4c4.11,-3 8.9,-4.06 12.73,-1.46 4.61,3.13 4,9.57 -0.99,18.48 19.39,-19.49 -6.71,-30.96 -13.17,-16.38 0.55,-0.16 1.05,-0.36 1.43,-0.64zm-9.13 1.2c1.15,4.4 -0.15,9.85 -4.69,16.68 1.62,3.02 4.32,3.84 10.4,-2.17 6.85,3.07 10.06,-1.39 11.62,-9.27 1.39,3.43 2.09,6.85 1.96,10.27 0.97,1.41 2.6,-3.72 2.46,-5.3 -0.64,-2.43 -1.5,-4.46 -3.76,-6.34 -0.21,-0.24 -0.73,-0.54 -1.29,0.34 -3.48,5.48 -6.28,9.42 -10.07,8.63 3.01,-3.44 2.22,-6.54 0.75,-10.09 -1.98,9.95 -5.65,14.19 -11.18,13.6 5.81,-4.28 10.23,-12.23 4.67,-16.55 -0.7,-0.28 -1.1,-0.31 -0.87,0.2zm-4.46 14.51c-13.31,2.34 -17.99,-3.6 -18.21,-11.53 -0.09,-3.47 0.2,-7.49 1.91,-11.94 1.35,10.26 6.58,15.62 19.93,11.09 1.24,-0.51 0.59,-2.08 -0.93,-2.03 -15.42,1 -17.56,-5.05 -16.94,-12.56l-1.26 -0.31c-4.43,5.73 -5.34,13.96 -4.61,19.46 0.74,5.54 5.25,14.83 19.16,9.27l0.95 -1.45z"/>
   <path class="fil1" d="M76.69 52.79c-14.96,-2.64 -16.02,24.41 -26.3,27.09 -0.77,0.14 -0.87,-2.71 -0.5,-2.99 -3.32,8.62 -5.18,18.25 -5.18,28.4 0,37.08 24.76,67.15 55.29,67.15 5.41,0 10.65,-0.95 15.6,-2.72 -5.04,-1.36 -8.44,-5.84 -10.55,-12.78 -0.44,-1.38 0.85,-2.62 1.9,-1.56 4.31,6.57 7.9,9.32 10.89,8.89 -0.4,-2.05 -0.67,-4.06 -1.79,-5.66l-1.79 -0.22c-0.24,1.03 -1.01,1.15 -2.02,0.87 -5.4,-1.48 -2.99,-9.69 2.75,-9.92 5.14,0.03 7.42,4.03 7.39,6.58 -0.02,1.74 -0.59,4.12 -2.51,5.58l1.53 1.98c4.09,-2.06 6.4,-4.71 6.88,-7.86 0.97,-6.36 -4.22,-13.9 -2.76,-22.29 1.96,-6.59 7.01,-9.16 9.42,-14.12 1.53,-3.14 1.82,-7.47 0.2,-13.59 -0.24,-1.24 1.41,-2.44 2.01,-1.27 2.32,3.56 3.19,6.47 3.48,9.11 6.05,5.68 1.7,14.47 -4.81,15.68 -8.88,6.92 0.37,14.77 -0.38,25.58 0.01,0.77 -0.02,1.5 -0.11,2.21 12.19,-12.32 19.95,-30.88 19.95,-51.64 0,-4.42 -0.35,-8.73 -1.02,-12.91 -7.07,10.94 -12.49,10.51 -17.52,7.34 -1.61,-1.83 -0.49,-2.25 0.87,-2.55 7.52,1.11 11.31,-6.19 14.05,-15.84 -3.93,4.76 -9.73,4.81 -15.8,4.18 3.14,9.81 -1.24,15.32 -6.29,20.44l-1.33 0.27c-1.77,-0.25 -2.44,-2.51 -2.76,-5.62 -1.85,4.22 -5.32,6.94 -11.25,4.87 -7.36,5.49 -10.77,4.16 -11.91,0.5 -23.41,9.18 -25.64,-19.58 -14.07,-31.34 0.38,-0.39 2.06,-1.75 2.06,-0.33 -0.37,5.76 0.77,10.73 7.31,12.84 3.36,0.68 6.55,0.7 9.71,0.57 4.1,-1.5 5.99,6.2 4.42,9.92 1.27,-2.02 2.05,-4.43 2.67,-6.96 0.5,-0.92 2.05,0.38 2.53,0.81 1.83,1.63 2.23,4.19 1.92,7.21 2.02,-1.15 4.89,-7.67 6.59,-7.1 2.05,0.65 3.38,2.08 4.49,3.75 1.72,-4.61 -1.13,-13.16 -12.07,-6.19 -2.73,1.17 -5.28,-0.11 -3.92,-2.62l2.86 -3.14c-12.31,-16.6 -25.38,-28.63 -40.13,-30.6zm26.03 68.51l17.56 6.84c2.79,1.28 2.16,3.54 -0.07,3.84 -1.72,0.02 -3.05,0.24 -4.77,0.26 -1.99,8.03 -9.85,3.81 -9.4,-2.62 -1.87,-1.7 -2.81,-2.64 -4.42,-4.79 -1.51,-1.88 -0.7,-4.36 1.1,-3.53zm-19.7 -6.01c3.84,-2.67 3.77,-0.2 2.98,1.6 -1.23,2.12 -1.63,4.82 -1.08,8.21 0.89,5.53 5.01,11.16 6.84,16.54 0.25,0.74 0.26,1.27 0.04,1.59 4.68,3.02 7.41,7.82 8.54,14.08 0.28,2 -0.25,2.28 -1.6,0.84 -5.07,-5.92 -7.24,-13.61 -30.9,-8.15 -1.69,0.36 -3.24,-0.8 -1.38,-2.36 5.37,-4.28 11.48,-7.58 21.14,-6.16 -10.14,-8.11 -12.71,-18.82 -4.58,-26.19zm-42.05 -10c0,-20.4 7.18,-38.8 18.67,-51.74 0.14,-0.15 0.28,-0.31 0.42,-0.47 0.34,-0.49 0.89,-0.83 1.23,-1.31 4.22,-5.98 8.62,-10.93 14.67,-11.25 7.34,-3.94 15.48,-6.13 24.04,-6.13 22.95,0 42.84,15.74 52.61,38.72 1.44,-1.95 1.8,-1.36 2.65,0.42 1.32,3.58 1.25,7.31 1.14,10.79 1.71,6.62 2.63,13.67 2.63,20.97 0,25.99 -11.65,48.72 -29.02,61.06 -1.17,0.96 -2.51,1.82 -4,2.59 1.14,1.21 2.52,0.25 4.06,-2.2 1.01,-1.12 1.39,-0.86 1.49,0.04l-0.19 3.46c18.72,-12.92 31.33,-37.17 31.33,-64.95 0,-41.34 -27.92,-74.86 -62.34,-74.86 -34.43,0 -62.35,33.52 -62.35,74.86 0,41.34 27.92,74.86 62.35,74.86 8.04,0 15.73,-1.83 22.79,-5.16l-0.16 -0.19c-1.24,-0.71 -2.03,-1.76 -2.69,-2.92 -6.33,2.79 -13.17,4.31 -20.3,4.31 -32.6,0 -59.03,-31.75 -59.03,-70.9zm46.17 -19.31c-1.28,10.93 2.73,17.42 16.18,15.99 2.02,-2.7 3.31,-6.14 3.81,-9.44 -12.27,4.01 -18,-0.2 -19.99,-6.55zm-2.32 -45.27c15.25,2.95 25.85,19.63 34.98,40.63 4.58,-2.46 8.68,-2.15 12.44,0.06 6.39,-2.28 15.41,-0.32 17.72,-4.88 -8.87,-22.69 -27.91,-38.37 -49.96,-38.37 -5.26,0 -10.35,0.89 -15.18,2.56z"/>
   <path class="fil0" d="M17.59 108.9l-13.79 -10.95c5.19,-1.95 10.24,-3.09 15.19,-3.53 5.4,-0.49 10.69,-0.14 15.89,0.88 0.04,-0.32 0.08,-0.64 0.12,-0.96 0.04,-0.32 0.08,-0.64 0.12,-0.96 -5.32,-1.03 -10.74,-1.38 -16.29,-0.88 -5.65,0.5 -11.41,1.87 -17.3,4.27l-1.53 0.63 1.29 1.02 14.32 11.37 -7.86 9.21 -0.98 1.15 1.45 0.4 13.45 3.72c-0.06,-0.35 -0.12,-0.7 -0.19,-1.05 -0.07,-0.35 -0.14,-0.71 -0.22,-1.06l-11.07 -3.06 7.53 -8.82 0.65 -0.76 -0.78 -0.62zm3.71 0.22c1.97,-1.64 6.28,-2.64 12.93,-2.01 0,-0.32 0,-0.64 0,-0.96 0,-0.33 0.01,-0.65 0.01,-0.97 -7.12,-0.65 -11.87,0.55 -14.17,2.46l0 0c-1.13,0.93 -1.73,2.05 -1.78,3.24 -0.04,0.8 0.16,1.6 0.6,2.38 0.22,0.37 0.48,0.74 0.81,1.1 0.22,0.25 0.48,0.5 0.77,0.75 0.37,0.31 0.79,0.62 1.27,0.92 2.76,1.75 7.24,3.11 13.42,3.45 -0.05,-0.33 -0.09,-0.65 -0.14,-0.98 -0.04,-0.32 -0.08,-0.64 -0.12,-0.97 -7.28,-0.44 -11.85,-2.33 -13.77,-4.46 -0.19,-0.21 -0.34,-0.41 -0.47,-0.62 -0.3,-0.47 -0.45,-0.93 -0.45,-1.36 0,-0.04 0,-0.08 0,-0.12 0.03,-0.64 0.39,-1.27 1.09,-1.85l0 0zm3.42 29.1c0.11,-4.78 -0.29,-9.36 -1.06,-13.78 -0.49,-2.86 -1.15,-5.66 -1.92,-8.41 -0.48,-0.3 -0.9,-0.61 -1.27,-0.92 -0.29,-0.25 -0.55,-0.5 -0.77,-0.75 -0.33,-0.36 -0.59,-0.73 -0.81,-1.1 0.93,2.91 1.74,5.87 2.37,8.9 0.08,0.35 0.15,0.71 0.22,1.06 0.07,0.35 0.13,0.7 0.19,1.05 0.03,0.17 0.06,0.33 0.09,0.49 0.79,4.54 1.18,9.22 1.01,14.12l-0.02 0.72 0.68 0.22c3.37,1.14 6.63,1.96 9.82,2.54 3.18,0.57 6.26,0.9 9.29,1.05 -0.16,-0.33 -0.32,-0.66 -0.47,-0.99 -0.16,-0.33 -0.31,-0.66 -0.46,-1 -2.63,-0.16 -5.29,-0.47 -8.02,-0.96 -2.88,-0.52 -5.83,-1.24 -8.87,-2.24z"/>
   <path class="fil2" d="M20.07 107.64c2.3,-1.91 7.05,-3.11 14.17,-2.46 0.05,-3.23 0.26,-6.52 0.64,-9.88 -5.2,-1.02 -10.49,-1.37 -15.89,-0.88 -4.95,0.44 -10,1.58 -15.19,3.53l13.79 10.95 0.78 0.62 -0.65 0.76 -7.53 8.82 11.07 3.06c-0.63,-3.03 -1.44,-5.99 -2.37,-8.9 -0.44,-0.78 -0.64,-1.58 -0.6,-2.38 0.05,-1.19 0.65,-2.31 1.78,-3.24l0 0z"/>
   <path class="fil3" d="M35.16 119.48c-6.18,-0.34 -10.66,-1.7 -13.42,-3.45 0.77,2.75 1.43,5.55 1.92,8.41 0.77,4.42 1.17,9 1.06,13.78 3.04,1 5.99,1.72 8.87,2.24 2.73,0.49 5.39,0.8 8.02,0.96 -3.14,-6.93 -5.31,-14.24 -6.45,-21.94z"/>
   <g>
    <path class="fil0" d="M170.86 130.43c-2.27,-0.9 -4.63,-1.51 -7.08,-1.83 -0.17,0.63 -0.34,1.26 -0.52,1.88 2.39,0.29 4.68,0.87 6.89,1.74 2.56,1.02 5.01,2.42 7.34,4.19 0.02,0.01 0.03,0.03 0.05,0.04l1.17 -1.53c-2.17,-1.66 -4.44,-3.02 -6.8,-4.05 -0.35,-0.16 -0.7,-0.3 -1.05,-0.44zm5.42 13.56l0 0zm-5.22 -23.49c-1.08,1.82 -2,3.36 -1.44,5.22 0.28,1.98 1.15,3.66 2.29,5.15 2.36,1.04 4.63,2.39 6.8,4.05l-1.17 1.53c-0.02,-0.01 -0.03,-0.03 -0.05,-0.04 1.58,1.5 2.74,2.9 2.57,4.33 -0.15,0.94 -0.57,1.64 -1.14,2.14 -0.69,0.61 -1.63,0.96 -2.64,1.11 -2.67,0.25 -5.59,-0.15 -8.62,-0.98 -2.58,-0.7 -5.23,-1.71 -7.87,-2.89 -0.26,0.59 -0.52,1.17 -0.8,1.76 2.74,1.22 5.49,2.27 8.16,3 3.26,0.88 6.42,1.3 9.36,1.02l0.04 0c1.37,-0.2 2.66,-0.69 3.65,-1.57 0.89,-0.78 1.53,-1.86 1.77,-3.28l0 -0.04c0.37,-2.85 -1.98,-4.97 -4.63,-7.36 -1.63,-1.47 -3.39,-3.05 -4.55,-4.91 -0.41,0.1 -0.81,0.2 -1.22,0.3l-0.47 -1.87c0.27,-0.07 0.54,-0.14 0.81,-0.21 -0.18,-0.5 -0.32,-1.03 -0.39,-1.58l-0.01 -0.09 -0.03 -0.08c-0.34,-1.07 0.38,-2.28 1.24,-3.72 1.27,-2.13 2.78,-4.66 2.24,-8.34 -0.32,-2.14 -1.04,-4.32 -2.53,-6.11 -1.35,-1.62 -3.29,-2.9 -6.08,-3.5 0.03,0.66 0.05,1.33 0.06,1.99 2.07,0.54 3.53,1.52 4.54,2.74 1.23,1.47 1.83,3.32 2.1,5.16 0.44,3.01 -0.88,5.21 -1.99,7.07zm0.04 6.67l0.47 1.87c0.41,-0.1 0.81,-0.2 1.22,-0.3 3.46,-0.84 6.91,-1.49 10.36,-1.77 3.53,-0.28 7.06,-0.18 10.57,0.51l-0.83 5.4 -0.98 6.41 -0.09 0.59 0.5 0.34c0.88,0.61 1.65,1.08 2.34,1.51 2.33,1.46 3.77,2.35 4.42,5.25 -8.07,-0.51 -17.64,2.26 -26.84,4.92 -8.12,2.35 -15.94,4.62 -21.94,4.38 -0.47,0.61 -0.94,1.22 -1.42,1.83 6.52,0.68 15.03,-1.79 23.9,-4.36 9.5,-2.75 19.4,-5.62 27.35,-4.74l1.22 0.13 -0.16 -1.21c-0.63,-4.8 -2.39,-5.89 -5.51,-7.83 -0.55,-0.35 -1.15,-0.72 -1.77,-1.13l0.89 -5.8 0.97 -6.3 0.13 -0.89 -0.87 -0.19c-4.02,-0.91 -8.03,-1.06 -12.03,-0.74 -3.7,0.3 -7.4,1.01 -11.09,1.91l-0.81 0.21z"/>
    <path class="fil4" d="M163.78 128.6c2.45,0.32 4.81,0.93 7.08,1.83 0.35,0.14 0.7,0.28 1.05,0.44 -1.14,-1.49 -2.01,-3.17 -2.29,-5.15 -0.56,-1.86 0.36,-3.4 1.44,-5.22 1.11,-1.86 2.43,-4.06 1.99,-7.07 -0.27,-1.84 -0.87,-3.69 -2.1,-5.16 -1.01,-1.22 -2.47,-2.2 -4.54,-2.74 0.14,8.09 -0.74,15.78 -2.63,23.07z"/>
    <path class="fil5" d="M177.34 133.65c2.65,2.39 5,4.51 4.63,7.36l0 0.04c-0.24,1.42 -0.88,2.5 -1.77,3.28 -0.99,0.88 -2.28,1.37 -3.65,1.57l-0.04 0c-2.94,0.28 -6.1,-0.14 -9.36,-1.02 -2.67,-0.73 -5.42,-1.78 -8.16,-3 -2.34,5.01 -5.24,9.81 -8.69,14.4 6,0.24 13.82,-2.03 21.94,-4.38 9.2,-2.66 18.77,-5.43 26.84,-4.92 -0.65,-2.9 -2.09,-3.79 -4.42,-5.25 -0.69,-0.43 -1.46,-0.9 -2.34,-1.51l-0.5 -0.34 0.09 -0.59 0.98 -6.41 0.83 -5.4c-3.51,-0.69 -7.04,-0.79 -10.57,-0.51 -3.45,0.28 -6.9,0.93 -10.36,1.77 1.16,1.86 2.92,3.44 4.55,4.91z"/>
   </g>
   <g>
    <path class="fil6" d="M26.81 65.2c0.86,0.26 1.55,0.69 2.09,1.31 0.54,0.63 0.92,1.36 1.13,2.23 0.21,0.83 0.28,1.7 0.23,2.62 -0.05,0.91 -0.22,1.83 -0.49,2.75l-3.26 11.02 -0.94 -0.28c0.05,-0.28 -0.08,0.04 0.01,-0.41 0.08,-0.45 0.12,-0.78 0.1,-0.97 -0.01,-0.36 -0.1,-0.64 -0.26,-0.83 -0.17,-0.18 -0.41,-0.33 -0.72,-0.42l-12.13 -3.59c-0.27,-0.08 -0.53,-0.09 -0.77,-0.04 -0.24,0.06 -0.48,0.24 -0.72,0.56 -0.18,0.22 -0.37,0.53 -0.57,0.93 -0.21,0.4 -0.14,0.24 -0.23,0.45l-1.13 -0.49 4.35 -15.08 5.68 -0.15 -0.31 1.05c-1.06,0.13 -1.85,0.64 -2.75,1.04 -0.91,0.39 -1.46,0.81 -1.67,1.27 -0.13,0.28 -0.27,0.6 -0.41,0.98 -0.14,0.38 -0.31,0.75 -0.39,1.17l-0.58 3.17 3.95 1.17c0.11,-1.32 0.69,-2.77 1.4,-4.43 0.79,-1.85 3.09,-4.62 5.91,-5.03 0.76,-0.26 1.58,-0.26 2.48,0zm-1.58 5.8c-3.8,-1.06 -6.15,1.81 -6.68,4.11l7.87 2.33c2.3,-0.28 1.91,-5.57 -1.19,-6.44z"/>
    <path class="fil6" d="M29.77 44.68l-0.53 0.75c-1.06,-0.13 -4.07,0.36 -4.79,1.5 -0.19,0.22 -0.42,0.54 -0.68,0.98 -0.26,0.44 -0.5,0.79 -0.64,1.09 -0.47,0.98 -0.39,1.65 -0.13,2.78l2.83 1.61 0.47 -0.83c0.26,-0.46 0.44,-0.9 0.56,-1.33 0.12,-0.42 0.13,-0.87 0.03,-1.33 -0.06,-0.28 -0.25,-0.65 -0.56,-1.08 -0.32,-0.44 -0.62,-0.77 -0.9,-1.01l0.53 -0.94 6.74 3.43 -0.53 0.95c-0.49,-0.18 -2.4,-0.14 -2.89,0 -0.42,0.13 -0.79,0.35 -1.1,0.66 -0.31,0.32 -0.6,0.72 -0.88,1.22l-0.47 0.82 6.08 3.44c4.07,2.3 4.61,-6.28 4.22,-7.72 -0.72,-1.45 -1.29,-1.58 -0.59,-2.83l3.94 5.03 -8.63 14.61 -0.86 -0.48c0.12,-0.24 0.27,-0.57 0.45,-1 0.18,-0.42 0.29,-0.73 0.32,-0.93 0.06,-0.38 0.03,-0.68 -0.09,-0.89 -0.11,-0.21 -0.31,-0.39 -0.59,-0.55l-11.01 -6.22c-0.26,-0.15 -0.51,-0.23 -0.73,-0.24 -0.22,0 -0.5,0.13 -0.84,0.4 -0.21,0.17 -0.46,0.42 -0.76,0.77 -0.29,0.35 -0.5,0.62 -0.64,0.8l-0.85 -0.48 8.06 -14.27 5.46 1.29z"/>
    <path class="fil6" d="M34.73 32.47l-0.78 0.9 4.62 4.09c0.71,-1.44 2.01,-4.49 0.04,-6 -1.07,-0.82 -2.73,-0.58 -3.88,1.01zm6.17 4.82l-0.9 1.4 4.67 4.07c0.23,0.19 0.47,0.32 0.72,0.37 0.25,0.05 0.55,-0.02 0.89,-0.21 0.17,-0.1 0.43,-0.29 0.76,-0.56l0.79 0.83 -5.55 6.42 -0.77 -0.82c0.16,-0.25 0.26,-0.44 0.31,-0.58 0.14,-0.36 0.18,-0.66 0.11,-0.88 -0.07,-0.21 -0.23,-0.43 -0.49,-0.66l-10 -8.78c-0.23,-0.19 -0.46,-0.31 -0.7,-0.37 -0.23,-0.05 -0.53,0.02 -0.89,0.21 -0.21,0.11 -0.44,0.27 -0.71,0.48l-0.88 -0.82 6.49 -7.49c7.12,-8.21 11.03,-2.77 6.15,7.39z"/>
    <path class="fil6" d="M60.58 15.63l-0.81 0.45c-0.89,-0.57 -3.82,-1.42 -4.96,-0.7 -0.27,0.12 -0.61,0.32 -1.04,0.6 -0.42,0.28 -0.79,0.5 -1.05,0.71 -0.84,0.68 -1.05,1.32 -1.31,2.46l1.88 2.66 0.77 -0.55c0.44,-0.3 0.79,-0.62 1.08,-0.95 0.29,-0.34 0.49,-0.74 0.6,-1.2 0.06,-0.28 0.05,-0.69 -0.05,-1.22 -0.1,-0.53 -0.23,-0.96 -0.38,-1.29l0.89 -0.63 4.62 6 -0.89 0.62c-0.36,-0.37 -2.11,-1.15 -2.62,-1.24 -0.43,-0.06 -0.85,-0.02 -1.27,0.13 -0.41,0.16 -0.85,0.4 -1.31,0.72l-0.78 0.55 4.02 5.71c2.69,3.82 6.85,-3.7 7.11,-5.17 -0.02,-1.62 -0.48,-1.98 0.69,-2.81l1.4 6.24 -14.06 9.5 -0.57 -0.81c0.22,-0.16 0.49,-0.4 0.84,-0.71 0.34,-0.3 0.57,-0.53 0.69,-0.7 0.22,-0.32 0.32,-0.6 0.3,-0.84 -0.02,-0.24 -0.12,-0.49 -0.3,-0.75l-7.28 -10.34c-0.18,-0.25 -0.36,-0.42 -0.57,-0.52 -0.19,-0.11 -0.5,-0.11 -0.92,-0.01 -0.26,0.06 -0.6,0.19 -1.02,0.38 -0.41,0.19 -0.72,0.33 -0.92,0.45l-0.57 -0.81 13.41 -9.43 4.38 3.5z"/>
    <path class="fil6" d="M84.22 18.33c-1.22,1.82 -3.4,3.05 -6.04,4.34 -2.27,1.11 -4.25,1.61 -5.95,1.49l-0.69 0.75 -3.77 -4.35 0.16 -0.68 6.03 1.76c1.14,0.12 1.95,0.1 2.89,-0.48 2.14,-1.35 3.86,-3.29 1.92,-6.51 -1.28,-1.56 -3.28,-0.8 -4.63,-0.47l-2.81 0.68 -1.07 -1.72c1.22,-0.55 3.03,-1.28 3.97,-2.28 1.79,-1.93 0.88,-5.24 -3.08,-3.87 -1.2,0.41 -2.47,1.21 -2.92,2.54 -0.26,0.74 -0.8,1.97 -0.84,2.79l-1.28 0.1 -0.49 -5.45 0.85 -0.85c0.42,0.33 0.92,0.73 1.43,0.36 0.75,-0.54 1.42,-1.02 3.08,-1.83 2.21,-1.09 7.23,-2.89 9.17,0.76 1.36,2.55 -1.52,5.97 -3.31,6.22l0.07 0.15c0.64,-0.3 1.33,-0.55 2.09,-0.75 4.59,-0.89 8.24,3.31 5.22,7.3z"/>
    <path class="fil7" d="M97.34 0.01c5.73,-0.26 10.58,3.88 10.83,9.25 0.25,5.37 -4.2,9.94 -9.92,10.21 -5.73,0.26 -10.58,-3.88 -10.83,-9.25 -0.25,-5.37 4.19,-9.94 9.92,-10.21zm0.11 2.49c2.5,-0.2 4.78,2.92 5.09,6.96 0.32,4.05 -1.45,7.49 -3.94,7.7 -2.5,0.2 -4.78,-2.92 -5.1,-6.96 -0.31,-4.05 1.45,-7.5 3.95,-7.7z"/>
    <path class="fil6" d="M123.21 12.32c-1.18,-0.04 -2.09,0.16 -3.37,-0.03l-2.3 6.3c0.36,1.37 2.44,1.45 4.36,1.31 3.07,-0.22 3.31,-5.43 1.31,-7.58zm2.7 -4.86c-0.41,-0.75 -1.23,-1.36 -2.45,-1.8 -0.17,-0.07 -0.4,-0.14 -0.68,-0.23 -0.28,-0.09 -0.26,0.14 -0.46,0.08l-1.73 4.72c1.31,-0.17 6.88,0.43 5.32,-2.77zm3.66 12.66c-1.18,3.24 -4.57,3 -6.88,2.51 -1.13,-0.24 -2.42,-0.63 -3.88,-1.16l-9.11 -3.31 0.45 -1.05c0.45,0.11 0.77,0.17 0.97,0.16 0.38,0.01 0.67,-0.07 0.87,-0.22 0.19,-0.15 0.35,-0.39 0.47,-0.71l4.43 -12.13c0.1,-0.29 0.14,-0.55 0.11,-0.78 -0.03,-0.23 -0.21,-0.49 -0.54,-0.78 -0.25,-0.21 -0.54,-0.42 -0.89,-0.62l0.47 -1.08c4.02,1.46 8.02,2.9 12.09,4.22 1.29,0.42 2.61,1.03 3.18,2.09 2.03,3.76 -3.93,4.74 -5.46,4.72 0.77,1.16 1.89,1.54 2.76,2.63 1.11,1.4 1.75,3.36 0.96,5.51z"/>
    <path class="fil6" d="M133.69 20.24c0.32,-1.25 0.93,-2.43 1.82,-3.52 0.89,-1.08 1.93,-1.91 3.11,-2.48 1.18,-0.57 2.44,-0.88 3.77,-0.92 1.3,-0.05 2.63,0.18 3.99,0.69 1.37,0.51 2.65,1.26 3.86,2.25 0.88,0.72 1.6,1.47 2.17,2.25l1.26 0.4 0.54 0.37 -2.85 7.06 -0.85 -0.71c0.6,-3.99 0.96,-4.9 -1.55,-6.95 -2.84,-2.33 -6.26,-1.43 -8.4,1.27 -2.34,2.97 -3,7.66 -0.24,9.81 1.06,0.82 1.84,1.79 3.06,1.95 1.22,0.17 2.95,0.03 4.23,-0.73l1.17 0.84c-0.8,0.32 -4.19,3.23 -4.97,3.35 -0.53,-0.52 -1.04,-0.81 -1.36,-0.89 -5.21,-1.29 -11.01,-8.39 -8.76,-14.04z"/>
    <path class="fil6" d="M159.3 51.57l-5.66 -6.25 0.79 -0.82c0.27,0.09 0.75,0.37 1.08,0.56 1.19,-1.62 2.77,-4.22 3.16,-5.86 0.11,-0.46 0.14,-0.91 0.1,-1.38 -0.12,-1.35 -0.01,-2.15 -1.38,-1.95l-4.65 4.09c-0.21,0.19 -0.36,0.41 -0.44,0.66 -0.08,0.26 -0.06,0.55 0.07,0.89 0.04,0.1 0.17,0.43 0.32,0.68l-0.84 0.83 -5.69 -6.53 0.77 -0.74c0.34,0.32 0.61,0.53 0.8,0.65 0.31,0.18 0.59,0.25 0.85,0.2 0.25,-0.05 0.5,-0.17 0.72,-0.37l9.52 -8.38c0.22,-0.2 0.36,-0.41 0.44,-0.63 0.07,-0.23 0.04,-0.53 -0.09,-0.91 -0.1,-0.28 -0.27,-0.61 -0.5,-1.01 -0.22,-0.39 -0.4,-0.67 -0.52,-0.83l0.74 -0.65 7.24 8.22 -0.73 0.65c-0.21,-0.21 -0.48,-0.45 -0.8,-0.71 -0.32,-0.26 -0.57,-0.45 -0.76,-0.58 -0.33,-0.2 -0.62,-0.27 -0.88,-0.21 -0.26,0.08 -0.49,0.2 -0.69,0.38l-2.83 2.49 7.18 0.76 -0.38 -1.26 0.78 -0.71 5.4 5.47c-0.33,-0.05 -0.78,0.3 -1.11,0.48 -1.95,-0.39 -5.3,-2.05 -7.44,-1.87l0.09 0.64c0.99,3.38 -2.57,7.46 -3.63,11.1 -0.22,0.58 -0.3,1.03 -0.25,1.36 0.06,0.33 0.13,0.57 0.23,0.72l-1.01 0.82z"/>
    <path class="fil6" d="M168.72 69.53l-3.46 -6.64 0.96 -0.53c0.27,0.26 0.79,0.66 1.03,0.69 0.25,0.03 0.51,-0.03 0.8,-0.17l9.14 -4.55 -8.85 -2.72c-0.51,0.26 -3.4,1.76 -3.51,1.96 -0.11,0.19 -0.15,0.48 -0.11,0.86 0.01,0.14 0.04,0.31 0.09,0.52l-1.08 0.51 -3.49 -7c0.16,-0.12 0.91,-0.64 1.06,-0.42 0.12,0.16 0.22,0.29 0.31,0.37 0.25,0.26 0.5,0.4 0.76,0.42 0.26,0.02 0.53,-0.04 0.8,-0.17l11.35 -5.65c0.27,-0.13 0.46,-0.3 0.59,-0.49 0.13,-0.2 0.18,-0.5 0.15,-0.9 -0.02,-0.22 -0.07,-0.48 -0.14,-0.79l1.09 -0.52 3.49 7.01 -1.09 0.57c-0.07,-0.09 -0.14,-0.16 -0.19,-0.23 -0.27,-0.28 -0.53,-0.42 -0.8,-0.42 -0.27,0 -0.52,0.06 -0.76,0.18l-5.92 2.94 8.6 2.84c0.39,-0.2 0.42,-0.28 0.52,-0.49 0.09,-0.2 0.13,-0.49 0.1,-0.85 0,-0.13 -0.13,-0.53 -0.2,-0.67l1.21 -0.5 3.47 6.86 -1.12 0.66c-0.16,-0.41 -0.73,-0.75 -1,-0.75 -0.26,-0.01 -0.52,0.05 -0.77,0.17l-11.37 5.66c-0.27,0.13 -0.48,0.3 -0.6,0.51 -0.14,0.2 -0.07,0.68 -0.03,1.07l-1.03 0.66z"/>
    <path class="fil6" d="M174.46 90.32l-2.05 -7.2 1.06 -0.33c0.21,0.31 0.63,0.81 0.87,0.88 0.23,0.08 0.5,0.08 0.81,0l9.88 -2.59 -8.11 -4.46c-0.56,0.14 -3.69,1.02 -3.83,1.2 -0.15,0.17 -0.25,0.44 -0.3,0.82 -0.01,0.13 -0.01,0.31 0,0.53l-1.17 0.28 -1.99 -7.57c0.18,-0.08 1.02,-0.44 1.12,-0.2 0.08,0.18 0.16,0.33 0.23,0.43 0.19,0.3 0.41,0.49 0.66,0.57 0.25,0.07 0.52,0.07 0.82,-0.01l12.26 -3.21c0.29,-0.08 0.51,-0.2 0.68,-0.37 0.16,-0.17 0.27,-0.45 0.32,-0.85 0.03,-0.22 0.04,-0.49 0.03,-0.8l1.18 -0.29 1.98 7.58 -1.18 0.33c-0.05,-0.1 -0.1,-0.19 -0.14,-0.26 -0.2,-0.33 -0.43,-0.52 -0.69,-0.57 -0.27,-0.06 -0.53,-0.05 -0.79,0.01l-6.4 1.68 7.85 4.53c0.43,-0.11 0.46,-0.19 0.6,-0.37 0.14,-0.18 0.24,-0.46 0.28,-0.81 0.02,-0.13 -0.02,-0.55 -0.06,-0.7l1.28 -0.25 2.01 7.42 -1.23 0.43c-0.08,-0.44 -0.57,-0.89 -0.83,-0.94 -0.26,-0.07 -0.52,-0.06 -0.79,0.01l-12.28 3.22c-0.29,0.08 -0.53,0.2 -0.7,0.38 -0.17,0.17 -0.2,0.65 -0.24,1.04l-1.14 0.44zm19.56 -17.71c0.2,-0.76 0.06,-1.64 -0.98,-0.44 -1.76,3.24 -1.64,5.41 1.8,7.27 1.22,0.51 1.26,-0.3 0.82,-0.75 -1.79,-1.55 -2.6,-3.47 -1.64,-6.08z"/>
   </g>
   <path class="fil7" d="M4.79 169.98l0 24.5c-0.24,0.82 -0.58,1.29 -1.06,1.32l0 1.01 3.95 0 0 -0.83c-0.59,-0.24 -0.99,-0.69 -1.05,-1.49l0 -20.18 3.29 15.24 3.65 -14.77 0 19.64 -0.84 1.46 0 0.7 5.34 0 0 -0.79 -0.81 -1.41 0 -23.04 0.78 -1.01 0 -0.9c-1.85,-0.44 -3.73,-0.67 -5.62,-0.74l-0.02 1.02 0.51 0.43 -0.05 2.3 -1.94 6.95 -1.5 -7.59 0 -1.91 0.59 -0.46 -0.01 -1.03c-1.69,-0.13 -3.83,-0.26 -6.23,-0.22l-0.04 0.97 1.06 0.83z"/>
   <path class="fil7" d="M31.8 172.18c-3.03,-0.85 -5.63,-1.46 -8.39,-1.93 -4.31,-0.87 -4.54,6.05 -0.64,10.83 -1.86,4.48 -3.09,9.54 -3.65,14.49l-0.7 0.18 0 0.77 5.95 0 0 -0.57c-0.64,-0.09 -0.98,-0.51 -0.97,-1.32 0.41,-3.51 1.4,-7.03 2.56,-10.06l1.05 0.76 0 9.35c-0.16,0.67 -0.46,1.05 -0.89,1.15l0 0.71 5.49 0 0 -0.61c-0.52,-0.18 -0.88,-0.47 -0.89,-1.02l0 -21.02c0.12,-0.63 0.48,-0.96 1.08,-0.98l0 -0.73zm-4.76 10.12l0 -8.54c-1.64,-0.92 -2.85,-1.13 -3.36,1.02 -0.25,4.29 1.36,6.16 3.36,7.52z"/>
   <path class="fil7" d="M43.48 174.58c0.38,2.98 0.76,5.96 1.14,8.94 -0.27,0.08 -0.54,0.15 -0.81,0.23 -1.13,-6.33 -3.29,-7.78 -4.43,-7.37 -4.03,1.45 -3.28,10.25 -2.43,13.42 1.22,4.54 4.41,7.35 7.65,1.08 0.16,0.01 0.32,0.02 0.48,0.03 -0.46,2.13 -0.81,4.51 -1.27,6.64 -0.26,-0.06 -0.75,-0.11 -1.01,-0.17 -0.2,-0.04 -0.71,-0.1 -0.91,-0.14 -5.62,1.09 -9.61,-4.7 -9.4,-14.11 0.43,-6.35 2.09,-12.73 9.29,-8.32 0.42,0.21 0.68,0 1.04,-0.23 0.18,-0.06 0.42,-0.04 0.66,0z"/>
   <path class="fil7" d="M51.65 176.88c3.85,-0.41 7.27,3.88 7.63,9.59 0.36,5.72 -2.48,10.69 -6.33,11.11 -3.86,0.41 -7.27,-3.88 -7.63,-9.59 -0.36,-5.72 2.47,-10.69 6.33,-11.11zm0.16 2.65c1.68,-0.27 3.33,2.99 3.68,7.29 0.36,4.3 -0.71,8.01 -2.39,8.29 -1.67,0.27 -3.32,-2.99 -3.68,-7.29 -0.36,-4.3 0.71,-8.01 2.39,-8.29z"/>
   <path class="fil6" d="M73.78 197.42l-5.98 0.1 -0.07 -0.98c0.17,-0.11 0.55,-0.26 0.81,-0.37 -0.31,-1.68 -0.95,-4.17 -1.64,-5.35 -0.19,-0.33 -0.42,-0.61 -0.69,-0.84 -0.78,-0.69 -1.15,-1.21 -1.69,-0.22l0 5.31c0,0.24 0.05,0.46 0.15,0.66 0.1,0.19 0.27,0.34 0.5,0.45 0.08,0.03 0.31,0.13 0.52,0.19l0.05 1 -6.16 -0.04 -0.02 -0.91c0.33,-0.04 0.56,-0.09 0.71,-0.15 0.25,-0.09 0.41,-0.24 0.51,-0.43 0.09,-0.19 0.14,-0.41 0.14,-0.67l0 -13.35c0,-0.64 -0.37,-0.99 -0.81,-1.19l-0.04 -1.11 5.66 1.8 0 0.84c-0.67,0.05 -1.21,0.69 -1.21,2.03l0 3.22 3.77 -4.18 -0.96 -0.57 -0.02 -0.91 4.78 1.39c-0.18,0.19 -0.16,0.35 -0.22,0.67 -1.33,0.23 -3.1,0.8 -4.01,2.56l0.38 0.31c2.27,1.27 2.65,5.58 3.82,8.55 0.21,0.47 1.07,0.66 1.27,0.81 0.2,0.16 0.37,0.24 0.49,0.27l-0.04 1.11z"/>
   <path class="fil7" d="M79.92 184.04c3.76,0.05 6.81,3.16 6.83,6.95 0.02,3.79 -3.01,6.83 -6.76,6.78 -3.75,-0.05 -6.81,-3.17 -6.83,-6.96 -0.02,-3.79 3.01,-6.82 6.76,-6.77zm0.01 1.75c1.63,-0.03 3.04,2.25 3.14,5.11 0.1,2.86 -1.15,5.22 -2.79,5.26 -1.64,0.03 -3.04,-2.25 -3.14,-5.11 -0.1,-2.86 1.15,-5.22 2.79,-5.26z"/>
   <path class="fil6" d="M100.68 197.59l-5.08 0.08 -0.03 -0.7c0.24,-0.08 0.64,-0.26 0.73,-0.39 0.1,-0.14 0.14,-0.3 0.14,-0.51l0.01 -5.27 -4.21 -0.01c-0.01,0.37 -0.08,5.48 0.01,5.6 0.08,0.12 0.24,0.23 0.48,0.32 0.09,0.03 0.2,0.06 0.35,0.09l-0.02 0.76 -5.31 -0.01c-0.02,-0.12 -0.11,-0.69 0.07,-0.72 0.13,-0.02 0.24,-0.04 0.32,-0.06 0.23,-0.08 0.39,-0.18 0.49,-0.32 0.09,-0.15 0.13,-0.31 0.13,-0.51l0.03 -8.09c0,-0.19 -0.05,-0.34 -0.13,-0.47 -0.08,-0.13 -0.24,-0.24 -0.49,-0.34 -0.15,-0.05 -0.32,-0.1 -0.52,-0.15l0.01 -0.77 5.31 0.01 0.01 0.78c-0.07,0.02 -0.14,0.03 -0.19,0.05 -0.24,0.06 -0.45,0.23 -0.54,0.38l-0.01 1.89 4.25 0.01 0 -1.34c0,-0.29 -0.05,-0.32 -0.14,-0.44 -0.1,-0.11 -0.26,-0.21 -0.48,-0.3 -0.09,-0.03 -0.37,-0.08 -0.47,-0.08l0.06 -0.83 5.21 -0.03 0.07 0.83c-0.3,-0.02 -0.68,0.21 -0.77,0.36 -0.08,0.15 -0.12,0.31 -0.12,0.49l-0.03 8.1c0,0.19 0.04,0.36 0.13,0.49 0.08,0.13 0.4,0.23 0.64,0.32l0.09 0.78z"/>
   <path class="fil6" d="M102.46 193.07c-0.24,-0.71 -0.29,-1.46 -0.15,-2.26 0.13,-0.79 0.43,-1.51 0.89,-2.13 0.46,-0.63 1.05,-1.15 1.76,-1.56 0.7,-0.4 1.5,-0.68 2.41,-0.83 0.91,-0.15 1.86,-0.16 2.84,-0.02 0.71,0.09 1.35,0.25 1.92,0.47l0.81 -0.17 0.42 0.02 0.74 4.31 -0.69 -0.1c-0.98,-2.14 -1.08,-2.69 -3.11,-2.97 -2.31,-0.31 -3.89,1.13 -4.18,3.09 -0.31,2.14 0.85,4.64 3.06,4.89 0.85,0.09 1.59,0.34 2.31,0.07 0.72,-0.28 1.62,-0.85 2.07,-1.6l0.91 0.07c-0.33,0.39 -1.23,2.81 -1.62,3.1 -0.46,-0.1 -0.84,-0.09 -1.03,-0.04 -3.27,0.89 -8.76,-0.9 -9.36,-4.34z"/>
   <path class="fil6" d="M126.16 187.79l-0.61 -0.07c-0.27,-0.65 -1.64,-1.67 -2.53,-1.72 -0.51,-0.11 -2.89,0.76 -2.99,0.85l0.11 2.68c0.54,0 2.35,-0.48 2.65,-1.14 0.15,-0.32 0.24,-0.61 0.29,-0.85l0.72 0 0.47 4.5 -0.9 0.2c-0.06,-0.34 -0.78,-1.1 -1.02,-1.34 -0.21,-0.2 -0.46,-0.35 -0.75,-0.42 -0.24,-0.06 -1.06,-0.01 -1.46,-0.01l0.02 4.93c0,0.9 0.53,0.58 1.27,0.62 1.64,0.07 3.71,-1.84 4.65,-3.21 0.41,-0.6 1.03,-0.14 1,0.01l-2 4.78 -10.53 0.16 0 -0.66c0.17,-0.01 0.41,-0.03 0.72,-0.07 0.3,-0.03 0.52,-0.07 0.64,-0.11 0.25,-0.09 0.41,-0.21 0.49,-0.35 0.08,-0.13 0.12,-0.31 0.12,-0.52l0 -8.41c0,-0.2 -0.03,-0.37 -0.1,-0.5 -0.07,-0.13 -0.24,-0.25 -0.51,-0.36 -0.16,-0.07 -0.39,-0.13 -0.69,-0.19 -0.3,-0.05 -0.52,-0.09 -0.67,-0.1l0 -0.66 10.57 -1.63 1.04 3.59z"/>
   <path class="fil6" d="M133.13 183.92l-0.83 0.23 -0.03 4.37c1.22,-0.32 3.48,-1.57 3.21,-3.63 -0.12,-0.93 -0.96,-1.47 -2.35,-0.97zm-0.85 6.6l0.01 5.34c0,0.22 0.05,0.39 0.14,0.53 0.09,0.13 0.27,0.21 0.52,0.23 0.14,0.01 0.36,0 0.66,-0.03l-0.08 0.83 -6 0.01 0.08 -0.82c0.2,-0.09 0.35,-0.16 0.45,-0.22 0.26,-0.17 0.43,-0.33 0.52,-0.49 0.08,-0.16 0.12,-0.37 0.12,-0.61l0.04 -9.88c0,-0.21 -0.04,-0.37 -0.13,-0.5 -0.08,-0.13 -0.25,-0.21 -0.52,-0.24 -0.16,-0.02 -0.33,-0.02 -0.56,0l0 -0.86 7.01 -1.9c3.26,-0.89 4.39,-0.15 4.69,0.85 0.41,1.39 -0.75,3.95 -2.98,5.8 -1.18,0.97 -2.82,1.48 -3.97,1.96z"/>
   <path class="fil6" d="M146.38 186.54c-0.74,0.47 -1.27,1.04 -2.11,1.44l0 6.28c0.29,1.13 2.41,0.92 3.16,0.5 1.22,-0.67 1.5,-3.31 1.04,-5.35 -0.37,-1.58 -1.24,-2.7 -2.09,-2.87zm1.1 -5.64c-0.44,-0.45 -1.08,-0.6 -1.95,-0.45 -0.41,0.08 -0.79,0.23 -1.26,0.45l0 4.71c0.8,-0.57 4.42,-2.95 3.21,-4.71zm4.95 9.65c-0.02,3.25 -1.39,6.74 -4.09,6.77l-9.07 -0.01 0.04 -1.07c0.31,-0.1 0.52,-0.2 0.64,-0.29 0.24,-0.16 0.41,-0.35 0.5,-0.56 0.08,-0.21 0.13,-0.48 0.13,-0.8l0 -12.11c0,-0.29 -0.04,-0.52 -0.11,-0.7 -0.07,-0.19 -0.24,-0.32 -0.52,-0.42 -0.2,-0.07 -0.25,-0.1 -0.51,-0.12l0.01 -0.8c2.81,-0.65 5.78,-1.75 8.66,-2.3 0.9,-0.2 1.87,-0.27 2.47,0.38 2.13,2.27 -1.66,5.94 -2.62,6.58 1.6,0.88 4.44,1.61 4.47,5.45z"/>
   <path class="fil6" d="M165.96 197.17l-5.09 0 -0.02 -1.11c0.23,-0.14 0.64,-0.47 0.73,-0.7 0.09,-0.24 0.13,-0.54 0.13,-0.91l0.01 -12.08 -4.01 0.93c0,0.67 -0.08,11.51 0.01,11.72 0.09,0.21 0.25,0.4 0.49,0.57 0.08,0.05 0.2,0.11 0.34,0.16l-0.02 1.38 -5.3 -0.02c-0.02,-0.22 -0.12,-1.25 0.06,-1.3 0.14,-0.04 0.24,-0.08 0.32,-0.12 0.24,-0.13 0.4,-0.31 0.49,-0.57 0.09,-0.26 0.14,-0.56 0.14,-0.91l0.02 -14.55c0,-0.34 -0.04,-0.62 -0.12,-0.86 -0.08,-0.23 -0.25,-0.43 -0.5,-0.61 -0.14,-0.09 -0.31,-0.18 -0.52,-0.26l0.01 -1.39 5.31 -1.54 0.02 1.34c-0.08,0.02 -0.14,0.05 -0.2,0.07 -0.23,0.12 -0.44,0.42 -0.54,0.7l0 3.39 4.04 -0.95 0 -2.59c0,-0.5 -0.05,-0.57 -0.14,-0.78 -0.1,-0.2 -0.26,-0.39 -0.48,-0.54 -0.09,-0.06 -0.3,-0.13 -0.41,-0.13l-0.01 -1.05 5.29 -1.19 0 1.57c-0.3,-0.05 -0.68,0.36 -0.76,0.64 -0.09,0.26 -0.13,0.56 -0.13,0.88l-0.02 17.96c0,0.34 0.04,0.64 0.12,0.88 0.08,0.24 0.4,0.41 0.64,0.58l0.1 1.39z"/>
   <path class="fil6" d="M171.86 194.98l0.01 -12.5c3.83,0.93 4.69,12.5 -0.01,12.5zm1.2 -15.12l-1.18 -0.31 0.06 -4.26c0.02,-0.97 0.26,-1.45 0.67,-1.74 0.13,-0.08 0.36,-0.18 0.66,-0.27l-0.08 -1.49 -6.07 1.1 0.08 1.47c0.2,0.05 0.36,0.11 0.45,0.17 0.26,0.18 0.44,0.39 0.52,0.65 0.08,0.25 0.12,0.6 0.12,1.05l-0.01 17.37c0,0.39 -0.05,0.72 -0.13,1 -0.08,0.28 -0.26,0.51 -0.53,0.7 -0.15,0.11 -0.35,0.21 -0.58,0.3l0.02 1.57 7.02 -0.02c6.8,-1.21 5.82,-14.55 -1.02,-17.29z"/>
   <path class="fil7" d="M184.2 180.54c0,-3.09 0.01,-6.19 0.02,-9.27 0.09,-0.28 0.3,-0.58 0.53,-0.69 0.06,-0.03 0.13,-0.06 0.2,-0.08l-0.01 -1.34 -5.32 0.87 -0.01 1.39c0.2,0.08 0.37,0.17 0.52,0.27 0.25,0.17 0.41,0.37 0.49,0.61 0.08,0.23 0.13,0.51 0.13,0.85l-0.03 21.1c0,0.34 -0.04,0.65 -0.13,0.9 -0.1,0.26 -0.26,0.45 -0.49,0.58 -0.08,0.04 -0.19,0.08 -0.32,0.11 -0.18,0.05 -0.09,1.09 -0.07,1.31l5.31 0.01 0.02 -1.37c-0.15,-0.06 -0.26,-0.11 -0.35,-0.17 -0.24,-0.16 -0.4,-0.35 -0.48,-0.56 -0.09,-0.22 -0.02,-11.06 -0.01,-11.72l0 0 0 -2.8z"/>
   <path class="fil6" d="M199.18 197.12l-5.13 0.01 -0.03 -1.5c0.24,-0.19 0.63,-0.65 0.72,-0.97 0.09,-0.33 0.14,-0.75 0.14,-1.25l-0.02 -16.75 -4.28 11.22c0,0.92 0.04,6.06 0.13,6.36 0.08,0.29 0.25,0.55 0.49,0.77 0.08,0.08 0.19,0.15 0.34,0.22l-0.02 1.9 -5.27 0.03c-0.02,-0.31 -0.12,-1.73 0.06,-1.8 0.13,-0.05 0.24,-0.1 0.32,-0.16 0.23,-0.18 0.39,-0.44 0.48,-0.8 0.09,-0.35 0.14,-0.77 0.14,-1.25l-0.02 -20.07c0,-0.47 -0.04,-0.86 -0.12,-1.18 -0.09,-0.32 -0.25,-0.6 -0.5,-0.84 -0.14,-0.13 -0.31,-0.25 -0.52,-0.36l0.01 -1.69 5.32 -0.49 0.02 1.96c-0.08,0.03 -0.14,0.07 -0.2,0.11 -0.25,0.17 -0.41,0.44 -0.49,0.82 -0.08,0.39 -0.12,0.79 -0.12,1.21l-0.03 10.71 4.28 -10.8c0,-0.69 0.06,-1.36 -0.23,-2.06 -0.2,-0.47 -0.68,-0.58 -0.79,-0.59l-0.01 -1.42 5.19 -0.18 0 1.9c-0.3,-0.05 -0.67,0.51 -0.75,0.89 -0.09,0.37 -0.06,0.94 -0.06,1.37l0.01 20.75c0,0.48 0.04,0.89 0.13,1.22 0.08,0.33 0.57,1.05 0.81,1.27l0 1.44zm-8.54 -35.37c-0.46,-0.63 -1.06,-0.76 -0.45,1.32 1.81,3.98 3.24,4.66 5.04,0.14 0.54,-1.66 0.02,-2.06 -0.35,-1.55 -1.31,2.12 -2.7,2.58 -4.24,0.09z"/>
   <path class="fil6" d="M21.21 212.97l-6.28 0.07 -0.06 -0.75c0.17,-0.09 0.57,-0.2 0.84,-0.28 -0.32,-1.29 -0.99,-3.2 -1.72,-4.11 -0.19,-0.25 -0.43,-0.46 -0.72,-0.64 -0.81,-0.53 -1.2,-0.93 -1.77,-0.17l0 4.07c0,0.19 0.05,0.36 0.16,0.5 0.1,0.15 0.27,0.27 0.52,0.35 0.08,0.03 0.33,0.1 0.54,0.15l0.05 0.77 -6.44 -0.04 -0.03 -0.7c0.34,-0.03 0.59,-0.06 0.75,-0.11 0.25,-0.07 0.43,-0.18 0.53,-0.33 0.1,-0.15 0.15,-0.32 0.15,-0.52l0 -8.33c0,-0.2 -0.05,-0.36 -0.13,-0.49 -0.09,-0.13 -0.28,-0.25 -0.55,-0.35 -0.21,-0.07 -0.43,-0.11 -0.72,-0.19l0 -0.76 7.34 0 0 0.65c-0.22,0.01 -0.48,0.04 -0.79,0.09 -0.3,0.04 -0.54,0.08 -0.7,0.12 -0.27,0.07 -0.46,0.18 -0.55,0.34 -0.08,0.16 -0.13,0.33 -0.13,0.5l0 2.48 3.96 -3.21 -0.89 -0.36 0 -0.61 5.59 0.01c-0.02,0.24 -0.05,0.42 -0.12,0.66 -1.17,0.79 -3.8,1.44 -4.76,2.58l0.41 0.23c2.37,0.98 2.89,4.51 4.4,6.61 0.22,0.36 0.43,0.6 0.64,0.71 0.21,0.12 0.38,0.19 0.52,0.2l-0.04 0.86z"/>
   <path class="fil7" d="M39.29 201.16c4.04,0.14 7.2,2.95 7.04,6.26 -0.15,3.31 -3.56,5.87 -7.61,5.73 -4.04,-0.15 -7.19,-2.95 -7.04,-6.26 0.16,-3.31 3.56,-5.88 7.61,-5.73zm-0.08 1.53c1.77,0.01 3.18,2.05 3.15,4.55 -0.02,2.5 -1.48,4.52 -3.25,4.51 -1.76,-0.01 -3.18,-2.05 -3.15,-4.55 0.03,-2.5 1.48,-4.52 3.25,-4.51z"/>
   <path class="fil7" d="M58.68 201.96l0 10.21c-0.25,0.35 -0.61,0.54 -1.11,0.56l0 0.42 4.17 0 0 -0.35c-0.63,-0.1 -1.05,-0.29 -1.12,-0.62l0 -8.42 3.48 6.36 3.85 -6.36 0.01 8.39 -0.89 0.61 0 0.29 5.64 0 0 -0.33 -0.86 -0.59 0.02 -9.9 0.83 -0.42 0 -0.61 -5.96 0.02 -0.03 0.43 0.54 0.18 -0.06 0.96 -2.03 3.09 -1.58 -3.16 0 -0.98 0.62 -0.09 0 -0.43 -6.59 -0.01 -0.04 0.4 1.11 0.35z"/>
   <path class="fil6" d="M95.29 212.28c-1.28,0.52 -3.01,0.68 -4.76,0.73 -2.77,0.09 -5.64,0.04 -6.44,0.04l0 -0.65c0.18,-0.01 -0.04,-0.04 0.26,-0.07 0.3,-0.03 0.31,-0.07 0.43,-0.11 0.22,-0.08 0.38,-0.19 0.47,-0.33 0.09,-0.14 0.13,-0.32 0.13,-0.53l0 -8.34c0,-0.19 -0.04,-0.35 -0.12,-0.5 -0.08,-0.14 -0.24,-0.26 -0.48,-0.35 -0.18,-0.07 -0.21,-0.13 -0.5,-0.18 -0.29,-0.06 -0.18,-0.05 -0.33,-0.06l0.1 -0.81 11.14 0.01 1.16 3.56 -0.73 0c-0.27,-0.65 -0.74,-1.05 -1.16,-1.55 -0.42,-0.5 -0.79,-0.77 -1.12,-0.81 -1.22,-0.21 -3.19,-0.09 -4.41,0.04l0 2.49c1.47,-0.3 4.04,0.11 5.45,0.76 0.57,0.26 1.41,0.57 1.88,1.03 1.78,1.73 1.57,4.61 -0.97,5.63zm-1.9 -3.07c-0.04,-2.6 -2.91,-3.16 -4.46,-3.07l0 5.41c0.96,0.41 4.49,-0.22 4.46,-2.34z"/>
   <path class="fil6" d="M122.78 213.05l-5.53 0.1 -0.04 -0.72c0.26,-0.08 0.7,-0.27 0.8,-0.4 0.1,-0.14 0.14,-0.31 0.14,-0.52l0 -6.71 -4.7 4.41c0,0.38 0.04,2.51 0.14,2.64 0.09,0.12 0.27,0.23 0.53,0.32 0.09,0.03 0.22,0.06 0.37,0.09l-0.01 0.79 -5.78 0c-0.03,-0.12 -0.13,-0.72 0.07,-0.74 0.14,-0.02 0.26,-0.05 0.35,-0.07 0.25,-0.07 0.42,-0.18 0.53,-0.33 0.09,-0.15 0.14,-0.32 0.14,-0.52l0 -8.32c0,-0.19 -0.05,-0.35 -0.14,-0.49 -0.09,-0.13 -0.27,-0.25 -0.54,-0.34 -0.16,-0.06 -0.34,-0.11 -0.57,-0.16l0.01 -0.79 5.79 0 0.01 0.81c-0.08,0.01 -0.15,0.03 -0.21,0.04 -0.27,0.07 -0.45,0.19 -0.54,0.34 -0.09,0.16 -0.13,0.33 -0.13,0.51l0 4.34 4.7 -4.23c0,-0.29 -0.05,-0.33 -0.15,-0.45 -0.1,-0.12 -0.28,-0.22 -0.53,-0.31 -0.09,-0.03 -0.39,-0.07 -0.51,-0.08l0.06 -0.85 5.68 -0.04 0.08 0.85c-0.33,-0.02 -0.74,0.21 -0.83,0.37 -0.1,0.15 -0.14,0.32 -0.14,0.5l0.01 8.33c0,0.2 0.04,0.37 0.13,0.51 0.1,0.14 0.44,0.23 0.7,0.33l0.11 0.79z"/>
   <path class="fil6" d="M147.97 213.04l-5.43 0.01 0 -0.65c0.26,-0.08 0.7,-0.26 0.79,-0.4 0.1,-0.13 0.15,-0.3 0.15,-0.51l0 -5.72 -4.56 -0.01c0,0.38 -0.07,5.93 0.02,6.05 0.1,0.13 0.27,0.23 0.53,0.33 0.09,0.03 0.22,0.06 0.38,0.09l-0.03 0.78 -5.74 -0.01c-0.02,-0.12 -0.12,-0.71 0.07,-0.74 0.15,-0.02 0.27,-0.04 0.35,-0.06 0.25,-0.08 0.43,-0.18 0.53,-0.33 0.1,-0.15 0.15,-0.32 0.15,-0.51l0.02 -8.28c0,-0.19 -0.04,-0.35 -0.13,-0.49 -0.09,-0.13 -0.27,-0.25 -0.54,-0.34 -0.15,-0.06 -0.34,-0.11 -0.56,-0.16l0.01 -0.78 5.75 0 0.01 0.81c-0.08,0.01 -0.15,0.03 -0.21,0.04 -0.25,0.07 -0.48,0.24 -0.58,0.4l-0.01 1.93 4.59 0 0 -1.37c0,-0.29 -0.04,-0.32 -0.15,-0.44 -0.1,-0.12 -0.28,-0.22 -0.52,-0.31 -0.09,-0.04 -0.39,-0.08 -0.51,-0.08l0.07 -0.85 5.64 -0.03 0.07 0.85c-0.33,-0.02 -0.74,0.21 -0.83,0.36 -0.09,0.16 -0.13,0.32 -0.13,0.5l-0.03 8.29c0,0.2 0.04,0.37 0.14,0.5 0.09,0.14 0.42,0.24 0.69,0.33l0 0.8z"/>
   <path class="fil6" d="M174.56 213.08l-7.35 0 0 -0.69c0.35,-0.02 0.75,-0.08 1.21,-0.17 0.46,-0.1 0.69,-0.21 0.69,-0.34 0,-0.05 0,-0.11 -0.01,-0.16 -0.01,-0.06 -0.02,-0.15 -0.08,-0.24 -1.36,-2.26 -3.17,-3.43 -5.28,-3.85 -0.11,0.24 -0.75,1.77 -0.89,2.1 -0.12,0.32 -0.24,0.61 -0.33,0.86 -0.12,0.33 -0.19,0.57 -0.22,0.72 -0.02,0.15 -0.03,0.25 -0.03,0.31 0,0.19 0.15,0.35 0.46,0.48 0.31,0.13 0.82,0.23 1.54,0.29l0 0.69 -5.54 0 0 -0.69c0.21,-0.01 0.45,-0.04 0.71,-0.09 0.15,-0.03 0.96,-0.78 1.07,-0.91 0.18,-0.21 0.33,-0.45 0.45,-0.74 0.73,-1.66 1.46,-3.19 2.2,-4.85 0.45,-1.03 1.22,-2.38 1.28,-3.63 0.01,-0.17 -0.46,-0.19 -0.45,-0.35l0.03 -0.64 5.53 0.02 -0.01 0.82c-1.29,0.31 2.23,7.04 3.16,9.07 0.09,0.18 0.19,0.34 0.32,0.49 0.36,0.41 0.19,0.58 0.91,0.72 0.23,0.05 0.44,0.08 0.63,0.09l0 0.69zm-7.08 -5.08l-1.98 -4.23 -1.38 2.98c1.15,0.04 2.28,0.4 3.36,1.25z"/>
   <path class="fil6" d="M196.62 204.64l-0.64 0c-0.73,-0.96 -1.01,-1.83 -1.89,-2.07 -0.17,-0.05 -0.39,-0.04 -0.66,-0.06 -0.26,-0.02 -0.48,-0.02 -0.67,-0.02l-0.4 0 0 8.78c0,0.2 0.04,0.38 0.11,0.53 0.08,0.15 0.22,0.27 0.43,0.36 0.13,0.05 0.33,0.1 0.6,0.16 0.27,0.05 0.5,0.09 0.69,0.11l0 0.65 -7.69 0 0 -0.65c0.16,-0.02 0.39,-0.04 0.68,-0.07 0.29,-0.03 0.49,-0.07 0.6,-0.11 0.21,-0.09 0.36,-0.21 0.43,-0.36 0.07,-0.15 0.11,-0.33 0.11,-0.53l0 -8.87c-0.55,0 -1.21,-0.09 -1.73,0.08 -0.88,0.29 -1.39,1.06 -1.89,2.07l-0.64 0 0.96 -3.38 10.44 0 1.16 3.38z"/>
  </g>
 </g>
</svg>
