<?xml version="1.0" encoding="UTF-8"?>
<!DOCTYPE svg PUBLIC "-//W3C//DTD SVG 1.1//EN" "http://www.w3.org/Graphics/SVG/1.1/DTD/svg11.dtd">
<!-- Creator: CorelDRAW 2018 (64-Bit) -->
<svg xmlns="http://www.w3.org/2000/svg" xml:space="preserve" width="200px" height="283px" version="1.1" style="shape-rendering:geometricPrecision; text-rendering:geometricPrecision; image-rendering:optimizeQuality; fill-rule:evenodd; clip-rule:evenodd"
viewBox="0 0 200 282.86"
 xmlns:xlink="http://www.w3.org/1999/xlink">
 <defs>
  <style type="text/css">
   <![CDATA[
    .str0 {stroke:#D00D03;stroke-width:0.07;stroke-miterlimit:22.9256}
    .fil0 {fill:#FEFEFE}
    .fil1 {fill:#2B2A29}
    .fil8 {fill:#D00D03}
    .fil7 {fill:#D00D03;fill-rule:nonzero}
    .fil6 {fill:url(#id0)}
    .fil3 {fill:url(#id1)}
    .fil5 {fill:url(#id2)}
    .fil4 {fill:url(#id3)}
    .fil2 {fill:url(#id4)}
   ]]>
  </style>
  <linearGradient id="id0" gradientUnits="userSpaceOnUse" x1="160.17" y1="141.25" x2="154.78" y2="123.3">
   <stop offset="0" style="stop-opacity:1; stop-color:#E95445"/>
   <stop offset="1" style="stop-opacity:1; stop-color:#F4B0AA"/>
  </linearGradient>
  <linearGradient id="id1" gradientUnits="userSpaceOnUse" x1="36.94" y1="101.15" x2="48.29" y2="114.06">
   <stop offset="0" style="stop-opacity:1; stop-color:#E42A2A"/>
   <stop offset="1" style="stop-opacity:1; stop-color:#F7CFCE"/>
  </linearGradient>
  <linearGradient id="id2" gradientUnits="userSpaceOnUse" x1="148.82" y1="123.9" x2="156.91" y2="106.11">
   <stop offset="0" style="stop-opacity:1; stop-color:#F5B2B6"/>
   <stop offset="0.490196" style="stop-opacity:1; stop-color:#FEFEFE"/>
   <stop offset="1" style="stop-opacity:1; stop-color:#F4B0AA"/>
  </linearGradient>
  <linearGradient id="id3" gradientUnits="userSpaceOnUse" x1="52.44" y1="132.51" x2="51.02" y2="113.07">
   <stop offset="0" style="stop-opacity:1; stop-color:#F5BAB0"/>
   <stop offset="1" style="stop-opacity:1; stop-color:#FEFEFE"/>
  </linearGradient>
  <radialGradient id="id4" gradientUnits="userSpaceOnUse" gradientTransform="matrix(-2.4203 -2.98053 2.97352 -2.42601 79 523)" cx="88.69" cy="75.57" r="55.35" fx="88.69" fy="75.57">
   <stop offset="0" style="stop-opacity:1; stop-color:#FEFEFE"/>
   <stop offset="1" style="stop-opacity:1; stop-color:#E31E24"/>
  </radialGradient>
 </defs>
 <g id="Layer_x0020_1">
  <metadata id="CorelCorpID_0Corel-Layer"/>
  <g id="_2023391726080">
   <path class="fil0" d="M102.75 17.22c47.85,0 86.64,50.5 86.64,112.79 0,26.19 -6.86,50.3 -18.37,69.45l-136.54 0c-11.51,-19.15 -18.37,-43.26 -18.37,-69.45 0,-62.29 38.79,-112.79 86.64,-112.79z"/>
   <g>
    <path class="fil1" d="M143.13 105.46c0,15.35 -5.74,29.08 -14.75,38.18 -0.35,2.88 -1.73,5.16 -3.94,6.97 12.84,-9.13 21.46,-25.93 21.46,-45.15 0,-5.4 -0.68,-10.6 -1.95,-15.51 -0.19,2.15 -0.75,4.18 -1.58,5.97 0.5,3.09 0.76,6.28 0.76,9.54zm-35.99 38.39c2.24,3.77 4.94,7.01 8.78,6.94 0.18,0.65 0.36,1.29 0.54,1.94 -4.26,-0.46 -7.53,-3.07 -9.46,-8.54 -0.24,-0.75 -0.13,-0.72 0.14,-0.34zm9.04 3.15c-0.72,-0.77 -0.58,-0.32 -0.22,0.67 1.44,4.04 2.32,6.13 3.33,7.46 2.49,3.28 5.35,0.39 5.56,-2.21 0.18,-1.26 -0.07,-1.3 -0.76,-0.14 -2.25,4.02 -5.12,-1.44 -7.91,-5.78zm13.19 -40.23c-0.27,-1.15 -0.08,-1.21 0.56,-0.19 0.81,1.91 1.18,3.76 1.46,5.6 2.47,2.7 1.17,7.66 -3.38,9.79 -7.08,6.72 -0.62,12.57 -0.99,19.89 -0.19,3.75 -1.94,6.48 -6.45,9.32 -0.46,-0.41 -0.92,-0.82 -1.38,-1.23 3.13,-1.88 5.38,-4.11 5.88,-7.04 0.25,-5.75 -3.1,-10.6 -2.46,-15.4 2.29,-8.8 9.87,-7.26 6.76,-20.74zm-20.29 16.45c-0.05,-0.09 2.39,0.74 2.39,0.74 -0.06,0.61 -0.95,0.85 -1.37,0.71 -0.42,-0.14 -1.17,-1.16 -1.02,-1.45zm-1.07 -0.22c-0.16,6.12 4.46,5.96 5.1,1.27l3.69 -0.28c0.75,0.09 0.73,-0.1 -0.06,-0.57l-11.94 -4.72c-1,-0.15 -0.76,0.25 -0.34,0.73 0.98,1.43 2.2,2.56 3.55,3.57zm-12.64 9.25c-2.2,-3.86 -5.02,-7.26 -5.62,-10.77 -0.47,-2.81 -0.03,-5.56 1.53,-8.23 0.11,-0.23 0.2,-0.44 -0.27,-0.14 -5.3,4.49 -5.5,10.55 3.99,19.61 0.66,0.43 0.67,0.14 0.37,-0.47zm6.17 10.13c-3.93,-10.82 -13.21,-11.93 -22.59,-5.46 -0.65,0.62 -0.43,0.75 0.38,0.55 11.99,-4.5 17.91,-1.08 21.63,5.22l0.58 -0.31zm12.24 10.72c-3.65,1.31 -7.52,2.01 -11.53,2.01 -22.57,0 -40.88,-22.23 -40.88,-49.65 0,-9.24 2.08,-17.88 5.7,-25.29 1.58,-4.38 4.02,-10.25 6.56,-14.28 -9.21,9.61 -15.02,23.78 -15.02,39.57 0,28.95 19.54,52.42 43.64,52.42 5.28,0 10.33,-1.12 15.01,-3.18 -0.23,-0.41 -0.44,-0.84 -0.66,-1.27 -1.01,0.02 -1.94,-0.09 -2.82,-0.33zm2.74 -64.76c-3.87,-6.58 -8.69,-12.36 -12.81,-17.59 -8.27,-10.5 -19.62,-14.54 -27.29,-5.63 -3.58,4.16 -6.61,10.19 -10.1,19.51 1.45,0.11 7.74,-14.02 10.1,-16.76 7.67,-8.91 18.43,-4.6 27.29,5.63 1.02,1.17 5.28,6.08 8.35,10.19 1.94,2.6 3.15,5 3.66,5.07l0.1 -0.06 0.7 -0.36zm-2.45 51.21c2.4,0.37 3.33,3.69 2.39,5.55 -0.42,0.59 -0.51,0.93 -0.59,-0.02 -0.08,-0.94 -0.17,-1.61 -0.74,-2.11 -0.22,-0.23 -0.45,-0.15 -0.52,-0.06 -0.46,0.63 -0.78,1.17 -1.27,1.21 -0.18,0.06 -0.53,-0.56 -0.98,-1.67 -0.24,-0.58 -0.19,-0.44 -0.46,0.07 -0.21,0.4 -0.13,1.49 -0.64,1.21 -0.43,-0.35 -0.91,-0.91 -0.54,-1.82 0.64,-1.58 1.66,-2.49 3.35,-2.36zm-11.82 -83.73c16.31,0 30.38,11.6 36.94,28.37 0.69,-0.66 1.35,-1.48 1.96,-2.52 -7.22,-16.99 -21.93,-28.63 -38.9,-28.63 -6.33,0 -12.34,1.62 -17.77,4.53 2.32,-0.3 4.49,-0.22 6.5,0.16 3.58,-1.25 7.36,-1.91 11.27,-1.91zm39.7 27.43c-0.39,10.25 -5.09,18.5 -11.77,16.91l-0.26 0.68c6.25,3.16 10.65,-2.77 12.31,-7.96 0.87,-2.71 0.96,-6.23 0.11,-10.73 -0.16,-0.38 -0.33,-0.63 -0.68,-0.03 -0.98,2.38 -2.9,4.07 -5.64,5.14 -2.42,0.95 -5.76,0.29 -9.08,1.48 0.18,0.15 0.36,0.3 0.53,0.45 0.22,0.21 0.43,0.43 0.63,0.66 5.12,-0.62 11.21,1.8 13.85,-6.6zm-27.04 9.17c3.04,-2.22 6.57,-3 9.4,-1.08 3.42,2.31 2.96,7.08 -0.73,13.66 14.34,-14.4 -4.96,-22.89 -9.73,-12.11 0.4,-0.12 0.77,-0.26 1.06,-0.47zm-6.76 0.89c0.85,3.25 -0.11,7.28 -3.46,12.33 1.19,2.23 3.19,2.84 7.69,-1.6 5.06,2.27 7.43,-1.03 8.59,-6.86 1.03,2.53 1.54,5.06 1.45,7.6 0.71,1.03 1.92,-2.76 1.81,-3.93 -0.47,-1.79 -1.1,-3.3 -2.77,-4.68 -0.16,-0.18 -0.55,-0.4 -0.96,0.25 -2.57,4.05 -4.64,6.96 -7.45,6.38 2.23,-2.55 1.64,-4.83 0.56,-7.46 -1.47,7.36 -4.18,10.49 -8.27,10.05 4.3,-3.16 7.57,-9.04 3.45,-12.23 -0.51,-0.2 -0.81,-0.23 -0.64,0.15zm-3.29 10.73c-9.84,1.72 -13.31,-2.67 -13.47,-8.53 -0.07,-2.56 0.15,-5.54 1.41,-8.83 1,7.59 4.87,11.55 14.74,8.2 0.92,-0.38 0.44,-1.54 -0.69,-1.5 -11.4,0.74 -12.98,-3.73 -12.53,-9.29l-0.92 -0.22c-3.28,4.23 -3.95,10.31 -3.41,14.38 0.54,4.1 3.88,10.96 14.16,6.86l0.71 -1.07z"/>
    <path class="fil2" d="M85.01 66.65c-11.06,-1.95 -11.83,18.04 -19.44,20.03 -0.57,0.1 -0.64,-2.01 -0.37,-2.22 -2.45,6.38 -3.83,13.5 -3.83,21 0,27.42 18.31,49.65 40.88,49.65 4.01,0 7.88,-0.7 11.53,-2.01 -3.72,-1.01 -6.23,-4.32 -7.8,-9.45 -0.32,-1.02 0.63,-1.94 1.41,-1.15 3.19,4.86 5.84,6.89 8.06,6.58 -0.3,-1.52 -0.5,-3.01 -1.33,-4.19l-1.32 -0.17c-0.18,0.76 -0.75,0.86 -1.49,0.65 -4,-1.1 -2.21,-7.17 2.02,-7.34 3.81,0.02 5.49,2.98 5.47,4.87 -0.02,1.29 -0.43,3.04 -1.85,4.12l1.13 1.46c3.02,-1.52 4.72,-3.48 5.08,-5.8 0.72,-4.7 -3.12,-10.28 -2.04,-16.48 1.45,-4.88 5.19,-6.78 6.97,-10.45 1.13,-2.31 1.34,-5.52 0.14,-10.04 -0.17,-0.92 1.05,-1.81 1.49,-0.94 1.72,2.63 2.36,4.78 2.57,6.74 4.48,4.2 1.26,10.69 -3.55,11.59 -6.57,5.11 0.27,10.92 -0.28,18.91 0.01,0.57 -0.02,1.11 -0.08,1.63 9.01,-9.1 14.75,-22.83 14.75,-38.18 0,-3.26 -0.26,-6.45 -0.76,-9.54 -5.22,8.09 -9.24,7.76 -12.96,5.42 -1.18,-1.35 -0.35,-1.66 0.65,-1.88 5.56,0.82 8.36,-4.58 10.39,-11.71 -2.91,3.52 -7.2,3.55 -11.68,3.08 2.32,7.26 -0.92,11.33 -4.65,15.12l-0.99 0.2c-1.31,-0.19 -1.8,-1.85 -2.04,-4.16 -1.37,3.13 -3.94,5.13 -8.32,3.61 -5.44,4.06 -7.96,3.07 -8.8,0.36 -17.31,6.79 -18.96,-14.47 -10.4,-23.17 0.27,-0.28 1.51,-1.29 1.52,-0.24 -0.28,4.26 0.56,7.93 5.4,9.49 2.49,0.51 4.85,0.52 7.18,0.42 3.03,-1.1 4.43,4.59 3.27,7.34 0.94,-1.5 1.52,-3.28 1.97,-5.15 0.38,-0.68 1.52,0.28 1.88,0.6 1.35,1.21 1.64,3.1 1.42,5.33 1.49,-0.85 3.61,-5.67 4.87,-5.25 1.51,0.48 2.5,1.54 3.32,2.78 1.27,-3.42 -0.84,-9.73 -8.93,-4.58 -2.02,0.87 -3.9,-0.08 -2.9,-1.94l2.12 -2.32c-9.1,-12.27 -18.77,-21.17 -29.68,-22.62zm19.26 50.65l12.98 5.06c2.06,0.95 1.59,2.61 -0.06,2.83 -1.27,0.02 -2.25,0.18 -3.52,0.2 -1.47,5.94 -7.29,2.81 -6.95,-1.94 -1.38,-1.25 -2.08,-1.95 -3.27,-3.54 -1.12,-1.39 -0.52,-3.23 0.82,-2.61zm-14.57 -4.44c2.84,-1.97 2.79,-0.15 2.2,1.18 -0.91,1.56 -1.2,3.57 -0.8,6.07 0.66,4.09 3.71,8.25 5.06,12.23 0.18,0.55 0.19,0.94 0.03,1.17 3.46,2.24 5.48,5.78 6.31,10.42 0.21,1.48 -0.18,1.68 -1.18,0.61 -3.75,-4.37 -5.36,-10.06 -22.85,-6.02 -1.24,0.26 -2.39,-0.59 -1.02,-1.74 3.98,-3.17 8.49,-5.61 15.63,-4.56 -7.49,-5.99 -9.39,-13.92 -3.38,-19.36zm-31.09 -7.4c0,-15.08 5.31,-28.69 13.8,-38.25 0.11,-0.12 0.21,-0.23 0.31,-0.35 0.25,-0.36 0.66,-0.61 0.91,-0.97 3.12,-4.42 6.37,-8.08 10.85,-8.32 5.43,-2.91 11.44,-4.53 17.77,-4.53 16.97,0 31.68,11.64 38.9,28.63 1.07,-1.44 1.33,-1.01 1.96,0.31 0.97,2.65 0.92,5.4 0.84,7.97 1.27,4.91 1.95,10.11 1.95,15.51 0,19.22 -8.62,36.02 -21.46,45.15 -0.86,0.71 -1.85,1.35 -2.95,1.92 0.84,0.89 1.86,0.18 3,-1.63 0.74,-0.83 1.02,-0.64 1.09,0.03l-0.13 2.56c13.84,-9.56 23.16,-27.49 23.16,-48.03 0,-30.56 -20.64,-55.35 -46.09,-55.35 -25.46,0 -46.1,24.79 -46.1,55.35 0,30.57 20.64,55.35 46.1,55.35 5.94,0 11.63,-1.35 16.85,-3.82l-0.12 -0.13c-0.92,-0.53 -1.5,-1.31 -1.99,-2.16 -4.68,2.06 -9.73,3.18 -15.01,3.18 -24.1,0 -43.64,-23.47 -43.64,-52.42zm34.13 -14.27c-0.94,8.08 2.02,12.87 11.96,11.82 1.5,-2 2.45,-4.54 2.83,-6.98 -9.08,2.96 -13.31,-0.15 -14.79,-4.84zm-1.71 -33.48c11.28,2.19 19.11,14.52 25.86,30.04 3.39,-1.82 6.42,-1.58 9.2,0.05 4.72,-1.69 11.39,-0.24 13.1,-3.61 -6.56,-16.77 -20.63,-28.37 -36.94,-28.37 -3.89,0 -7.65,0.66 -11.22,1.89z"/>
    <path class="fil1" d="M41.32 108.13l-10.19 -8.09c3.83,-1.45 7.57,-2.29 11.23,-2.62 3.99,-0.35 7.9,-0.1 11.75,0.65 0.02,-0.23 0.05,-0.47 0.08,-0.71 0.03,-0.23 0.06,-0.47 0.09,-0.71 -3.93,-0.76 -7.94,-1.01 -12.05,-0.64 -4.17,0.37 -8.43,1.38 -12.79,3.15l-1.13 0.46 0.96 0.76 10.58 8.41 -5.81 6.81 -0.72 0.85 1.07 0.3 9.95 2.75c-0.05,-0.26 -0.1,-0.52 -0.15,-0.78 -0.05,-0.26 -0.1,-0.52 -0.16,-0.78l-8.18 -2.27 5.56 -6.52 0.48 -0.56 -0.57 -0.46zm2.74 0.16c1.46,-1.21 4.64,-1.95 9.56,-1.48 0,-0.24 0,-0.48 0,-0.71 0,-0.24 0.01,-0.48 0.01,-0.72 -5.26,-0.48 -8.77,0.41 -10.48,1.82l0 0c-0.83,0.69 -1.27,1.52 -1.32,2.4 -0.02,0.58 0.12,1.18 0.45,1.76 0.16,0.27 0.36,0.54 0.6,0.81 0.17,0.19 0.36,0.37 0.57,0.55 0.27,0.24 0.59,0.46 0.94,0.69 2.04,1.28 5.35,2.3 9.92,2.54 -0.03,-0.24 -0.07,-0.48 -0.1,-0.72 -0.03,-0.24 -0.06,-0.48 -0.09,-0.72 -5.39,-0.32 -8.76,-1.72 -10.18,-3.3 -0.14,-0.15 -0.26,-0.3 -0.35,-0.45 -0.22,-0.35 -0.33,-0.69 -0.33,-1.01 0,-0.03 0,-0.06 0,-0.09 0.02,-0.47 0.29,-0.94 0.8,-1.36l0 -0.01zm2.53 21.52c0.08,-3.54 -0.21,-6.92 -0.78,-10.19 -0.37,-2.11 -0.85,-4.18 -1.42,-6.21 -0.35,-0.23 -0.67,-0.45 -0.94,-0.69 -0.21,-0.18 -0.4,-0.36 -0.57,-0.55 -0.24,-0.27 -0.44,-0.54 -0.6,-0.81 0.69,2.15 1.29,4.34 1.75,6.58 0.06,0.26 0.11,0.52 0.16,0.78 0.05,0.26 0.1,0.52 0.15,0.78 0.02,0.12 0.04,0.24 0.06,0.36 0.59,3.35 0.87,6.82 0.75,10.44l-0.02 0.53 0.51 0.17c2.49,0.84 4.9,1.44 7.26,1.87 2.35,0.42 4.63,0.66 6.87,0.77 -0.12,-0.24 -0.24,-0.48 -0.35,-0.73 -0.12,-0.24 -0.23,-0.49 -0.34,-0.73 -1.94,-0.12 -3.91,-0.35 -5.93,-0.71 -2.13,-0.39 -4.31,-0.92 -6.56,-1.66z"/>
    <path class="fil3" d="M43.15 107.2c1.71,-1.41 5.22,-2.3 10.48,-1.82 0.04,-2.39 0.19,-4.82 0.48,-7.31 -3.85,-0.75 -7.76,-1 -11.75,-0.65 -3.66,0.33 -7.4,1.17 -11.23,2.62l10.19 8.09 0.57 0.46 -0.48 0.56 -5.56 6.52 8.18 2.27c-0.46,-2.24 -1.06,-4.43 -1.75,-6.58 -0.33,-0.58 -0.47,-1.18 -0.45,-1.76 0.05,-0.88 0.49,-1.71 1.32,-2.4l0 0z"/>
    <path class="fil4" d="M54.31 115.95c-4.57,-0.24 -7.88,-1.26 -9.92,-2.54 0.57,2.03 1.05,4.1 1.42,6.21 0.57,3.27 0.86,6.65 0.78,10.19 2.25,0.74 4.43,1.27 6.56,1.66 2.02,0.36 3.99,0.59 5.93,0.71 -2.32,-5.13 -3.93,-10.53 -4.77,-16.23z"/>
    <g>
     <path class="fil1" d="M154.65 124.05c-1.68,-0.67 -3.43,-1.12 -5.24,-1.35 -0.12,0.47 -0.25,0.93 -0.38,1.39 1.76,0.21 3.46,0.64 5.09,1.29 1.9,0.75 3.7,1.78 5.43,3.09 0.01,0.01 0.02,0.02 0.03,0.03l0.87 -1.13c-1.61,-1.23 -3.28,-2.23 -5.03,-3 -0.25,-0.11 -0.51,-0.22 -0.77,-0.32zm4 10.03l0 0zm-3.85 -17.37c-0.8,1.34 -1.48,2.48 -1.07,3.86 0.21,1.47 0.85,2.71 1.69,3.8 1.75,0.77 3.42,1.77 5.03,3l-0.87 1.13c-0.01,-0.01 -0.02,-0.02 -0.03,-0.03 1.16,1.11 2.02,2.15 1.9,3.2 -0.11,0.7 -0.42,1.22 -0.84,1.59 -0.51,0.45 -1.21,0.7 -1.96,0.82 -1.97,0.18 -4.13,-0.11 -6.37,-0.73 -1.91,-0.51 -3.87,-1.26 -5.82,-2.13 -0.19,0.43 -0.39,0.86 -0.59,1.29 2.03,0.91 4.06,1.68 6.03,2.22 2.41,0.66 4.75,0.97 6.92,0.76l0.04 0c1.01,-0.15 1.96,-0.51 2.69,-1.16 0.66,-0.58 1.13,-1.38 1.31,-2.43l0 -0.02c0.27,-2.11 -1.47,-3.68 -3.43,-5.45 -1.2,-1.08 -2.5,-2.26 -3.36,-3.63 -0.3,0.07 -0.6,0.15 -0.9,0.22l-0.35 -1.38c0.2,-0.05 0.4,-0.1 0.6,-0.15 -0.13,-0.38 -0.23,-0.77 -0.29,-1.17l0 -0.07 -0.02 -0.06c-0.26,-0.79 0.28,-1.69 0.91,-2.75 0.94,-1.58 2.05,-3.45 1.65,-6.17 -0.23,-1.58 -0.76,-3.19 -1.86,-4.52 -1,-1.19 -2.44,-2.14 -4.5,-2.58 0.02,0.49 0.04,0.98 0.04,1.47 1.54,0.4 2.61,1.13 3.36,2.02 0.91,1.09 1.35,2.46 1.55,3.82 0.33,2.22 -0.64,3.85 -1.46,5.23zm0.02 4.93l0.35 1.38c0.3,-0.07 0.6,-0.15 0.9,-0.22 2.56,-0.62 5.11,-1.1 7.66,-1.3 2.62,-0.22 5.22,-0.14 7.82,0.37l-0.61 3.99 -0.73 4.74 -0.07 0.44 0.37 0.25c0.66,0.45 1.22,0.8 1.73,1.12 1.73,1.07 2.79,1.73 3.27,3.88 -5.97,-0.38 -13.04,1.67 -19.84,3.64 -6.01,1.74 -11.79,3.41 -16.23,3.23 -0.34,0.45 -0.69,0.91 -1.05,1.35 4.82,0.51 11.12,-1.32 17.67,-3.22 7.03,-2.03 14.35,-4.15 20.23,-3.5l0.9 0.1 -0.12 -0.9c-0.46,-3.55 -1.77,-4.36 -4.08,-5.79 -0.4,-0.25 -0.84,-0.53 -1.3,-0.83l0.66 -4.29 0.71 -4.66 0.1 -0.66 -0.65 -0.14c-2.97,-0.67 -5.93,-0.79 -8.89,-0.55 -2.74,0.22 -5.47,0.75 -8.2,1.42l-0.6 0.15z"/>
     <path class="fil5" d="M149.41 122.7c1.81,0.23 3.56,0.68 5.24,1.35 0.26,0.1 0.52,0.21 0.77,0.32 -0.84,-1.09 -1.48,-2.33 -1.69,-3.8 -0.41,-1.38 0.27,-2.52 1.07,-3.86 0.82,-1.38 1.79,-3.01 1.46,-5.23 -0.2,-1.36 -0.64,-2.73 -1.55,-3.82 -0.75,-0.89 -1.82,-1.62 -3.36,-2.02 0.11,5.98 -0.54,11.67 -1.94,17.06z"/>
     <path class="fil6" d="M159.43 126.43c1.96,1.77 3.7,3.34 3.43,5.45l0 0.02c-0.18,1.05 -0.65,1.85 -1.31,2.43 -0.73,0.65 -1.68,1.01 -2.69,1.16l-0.04 0c-2.17,0.21 -4.51,-0.1 -6.92,-0.76 -1.97,-0.54 -4,-1.31 -6.03,-2.22 -1.73,3.71 -3.88,7.26 -6.43,10.65 4.44,0.18 10.22,-1.49 16.23,-3.23 6.8,-1.97 13.87,-4.02 19.84,-3.64 -0.48,-2.15 -1.54,-2.81 -3.27,-3.88 -0.51,-0.32 -1.07,-0.67 -1.73,-1.12l-0.37 -0.25 0.07 -0.44 0.73 -4.74 0.61 -3.99c-2.6,-0.51 -5.2,-0.59 -7.82,-0.37 -2.55,0.2 -5.1,0.68 -7.66,1.3 0.86,1.37 2.16,2.55 3.36,3.63z"/>
    </g>
    <g>
     <path class="fil7 str0" d="M48.14 75.82c0.63,0.19 1.14,0.51 1.54,0.97 0.4,0.46 0.68,1.01 0.84,1.65 0.15,0.61 0.2,1.26 0.17,1.93 -0.04,0.68 -0.16,1.36 -0.36,2.04l-2.41 8.14 -0.7 -0.2c0.04,-0.21 -0.06,0.03 0.01,-0.31 0.06,-0.33 0.09,-0.57 0.07,-0.71 -0.01,-0.27 -0.07,-0.47 -0.19,-0.61 -0.13,-0.14 -0.3,-0.25 -0.54,-0.31l-8.96 -2.66c-0.2,-0.06 -0.4,-0.07 -0.57,-0.03 -0.18,0.04 -0.36,0.18 -0.54,0.41 -0.13,0.17 -0.26,0.4 -0.42,0.69 -0.15,0.3 -0.1,0.18 -0.17,0.34l-0.83 -0.36 3.22 -11.16 4.19 -0.11 -0.23 0.78c-0.78,0.1 -1.36,0.47 -2.03,0.76 -0.67,0.29 -1.08,0.61 -1.23,0.94 -0.1,0.21 -0.2,0.45 -0.3,0.73 -0.11,0.28 -0.23,0.56 -0.29,0.86l-0.44 2.35 2.93 0.86c0.08,-0.97 0.51,-2.04 1.03,-3.27 0.59,-1.37 2.29,-3.42 4.37,-3.72 0.56,-0.19 1.17,-0.19 1.84,0zm-1.17 4.29c-2.81,-0.79 -4.55,1.34 -4.94,3.04l5.82 1.72c1.7,-0.21 1.41,-4.12 -0.88,-4.76z"/>
     <path class="fil7 str0" d="M50.33 60.65l-0.4 0.56c-0.78,-0.1 -3,0.26 -3.54,1.1 -0.14,0.16 -0.31,0.4 -0.5,0.73 -0.19,0.32 -0.37,0.58 -0.47,0.8 -0.35,0.73 -0.29,1.22 -0.1,2.06l2.09 1.19 0.35 -0.62c0.19,-0.34 0.33,-0.66 0.41,-0.98 0.09,-0.31 0.1,-0.64 0.02,-0.98 -0.04,-0.21 -0.18,-0.48 -0.41,-0.8 -0.23,-0.32 -0.46,-0.57 -0.67,-0.75l0.4 -0.7 4.98 2.55 -0.39 0.7c-0.36,-0.14 -1.77,-0.11 -2.14,0 -0.31,0.09 -0.58,0.25 -0.81,0.49 -0.23,0.23 -0.44,0.53 -0.65,0.89l-0.35 0.61 4.5 2.55c3.01,1.7 3.41,-4.65 3.11,-5.71 -0.52,-1.07 -0.95,-1.17 -0.43,-2.1l2.92 3.73 -6.39 10.8 -0.63 -0.36c0.09,-0.18 0.19,-0.42 0.33,-0.74 0.13,-0.31 0.21,-0.54 0.24,-0.69 0.04,-0.28 0.02,-0.5 -0.07,-0.65 -0.08,-0.16 -0.23,-0.29 -0.44,-0.41l-8.13 -4.6c-0.2,-0.11 -0.38,-0.17 -0.55,-0.17 -0.16,-0.01 -0.37,0.09 -0.62,0.29 -0.15,0.12 -0.34,0.31 -0.56,0.57 -0.21,0.26 -0.37,0.45 -0.47,0.59l-0.64 -0.36 5.97 -10.54 4.04 0.95z"/>
     <path class="fil7 str0" d="M53.99 51.62l-0.57 0.66 3.41 3.03c0.53,-1.07 1.49,-3.32 0.03,-4.44 -0.79,-0.6 -2.02,-0.42 -2.87,0.75zm4.57 3.56l-0.67 1.04 3.45 3.01c0.17,0.14 0.35,0.23 0.53,0.27 0.19,0.04 0.41,-0.02 0.66,-0.15 0.13,-0.08 0.32,-0.22 0.57,-0.42l0.58 0.62 -4.1 4.75 -0.58 -0.62c0.12,-0.18 0.2,-0.32 0.24,-0.42 0.1,-0.27 0.13,-0.49 0.08,-0.65 -0.05,-0.16 -0.18,-0.32 -0.37,-0.49l-7.39 -6.49c-0.17,-0.15 -0.34,-0.23 -0.52,-0.27 -0.17,-0.04 -0.39,0.01 -0.66,0.15 -0.15,0.08 -0.32,0.2 -0.52,0.35l-0.65 -0.6 4.8 -5.54c5.26,-6.07 8.15,-2.05 4.55,5.46z"/>
     <path class="fil7 str0" d="M73.1 39.17l-0.59 0.33c-0.66,-0.42 -2.83,-1.05 -3.67,-0.52 -0.2,0.09 -0.46,0.24 -0.77,0.45 -0.31,0.21 -0.58,0.37 -0.77,0.52 -0.63,0.5 -0.78,0.98 -0.97,1.82l1.38 1.97 0.58 -0.41c0.32,-0.22 0.58,-0.46 0.79,-0.7 0.21,-0.25 0.36,-0.55 0.44,-0.89 0.05,-0.21 0.04,-0.51 -0.03,-0.9 -0.07,-0.39 -0.17,-0.71 -0.28,-0.95l0.66 -0.47 3.41 4.43 -0.66 0.47c-0.26,-0.28 -1.55,-0.86 -1.93,-0.92 -0.32,-0.05 -0.63,-0.02 -0.94,0.1 -0.31,0.11 -0.63,0.29 -0.97,0.53l-0.58 0.4 2.98 4.23c1.98,2.82 5.06,-2.74 5.26,-3.83 -0.02,-1.19 -0.36,-1.46 0.5,-2.07l1.04 4.61 -10.4 7.02 -0.42 -0.59c0.16,-0.13 0.36,-0.3 0.62,-0.53 0.25,-0.22 0.43,-0.39 0.51,-0.52 0.16,-0.23 0.24,-0.44 0.22,-0.62 -0.01,-0.17 -0.08,-0.36 -0.22,-0.56l-5.38 -7.64c-0.13,-0.18 -0.27,-0.31 -0.42,-0.39 -0.14,-0.07 -0.37,-0.07 -0.68,0 -0.2,0.04 -0.45,0.14 -0.75,0.28 -0.31,0.14 -0.54,0.25 -0.69,0.33l-0.42 -0.6 9.91 -6.97 3.24 2.59z"/>
     <path class="fil7 str0" d="M90.59 41.16c-0.9,1.35 -2.52,2.26 -4.47,3.22 -1.68,0.82 -3.15,1.19 -4.4,1.1l-0.51 0.55 -2.78 -3.22 0.11 -0.5 4.46 1.3c0.84,0.09 1.44,0.08 2.13,-0.36 1.58,-0.99 2.86,-2.43 1.43,-4.8 -0.95,-1.16 -2.43,-0.6 -3.43,-0.36l-2.07 0.51 -0.8 -1.27c0.91,-0.41 2.24,-0.95 2.94,-1.69 1.32,-1.43 0.65,-3.88 -2.28,-2.86 -0.88,0.31 -1.82,0.89 -2.16,1.88 -0.19,0.55 -0.59,1.45 -0.62,2.06l-0.95 0.08 -0.36 -4.03 0.63 -0.63c0.31,0.24 0.68,0.54 1.06,0.27 0.55,-0.41 1.05,-0.76 2.28,-1.36 1.63,-0.8 5.34,-2.13 6.78,0.56 1,1.89 -1.13,4.41 -2.45,4.6l0.05 0.11c0.47,-0.22 0.98,-0.41 1.54,-0.55 3.4,-0.66 6.1,2.44 3.87,5.39z"/>
     <path class="fil8 str0" d="M100.29 27.62c4.23,-0.2 7.82,2.87 8,6.84 0.19,3.97 -3.1,7.35 -7.33,7.55 -4.24,0.19 -7.82,-2.87 -8.01,-6.84 -0.18,-3.97 3.1,-7.35 7.34,-7.55zm0.08 1.84c1.84,-0.15 3.53,2.16 3.76,5.15 0.24,2.99 -1.07,5.54 -2.92,5.69 -1.84,0.15 -3.53,-2.16 -3.76,-5.15 -0.23,-2.99 1.07,-5.54 2.92,-5.69z"/>
     <path class="fil7 str0" d="M119.41 36.72c-0.87,-0.03 -1.54,0.12 -2.49,-0.02l-1.7 4.66c0.27,1.01 1.8,1.07 3.23,0.97 2.27,-0.17 2.44,-4.02 0.96,-5.61zm2 -3.59c-0.3,-0.56 -0.91,-1.01 -1.81,-1.33 -0.13,-0.05 -0.29,-0.11 -0.51,-0.17 -0.2,-0.07 -0.18,0.1 -0.34,0.06l-1.27 3.48c0.96,-0.12 5.09,0.32 3.93,-2.04zm2.71 9.36c-0.88,2.4 -3.39,2.21 -5.09,1.85 -0.84,-0.17 -1.79,-0.46 -2.87,-0.85l-6.73 -2.45 0.33 -0.77c0.33,0.07 0.57,0.12 0.71,0.11 0.28,0.01 0.5,-0.05 0.64,-0.16 0.15,-0.12 0.27,-0.29 0.35,-0.52l3.28 -8.97c0.08,-0.22 0.1,-0.41 0.08,-0.58 -0.02,-0.17 -0.15,-0.36 -0.4,-0.58 -0.18,-0.15 -0.4,-0.31 -0.66,-0.46l0.35 -0.8c2.97,1.09 5.93,2.15 8.94,3.13 0.95,0.31 1.93,0.76 2.35,1.54 1.5,2.78 -2.91,3.51 -4.03,3.49 0.56,0.86 1.39,1.14 2.03,1.94 0.82,1.04 1.3,2.49 0.72,4.08z"/>
     <path class="fil7 str0" d="M127.16 42.58c0.24,-0.93 0.69,-1.8 1.35,-2.6 0.65,-0.8 1.42,-1.42 2.3,-1.84 0.87,-0.42 1.8,-0.65 2.78,-0.68 0.97,-0.03 1.95,0.14 2.96,0.51 1,0.38 1.96,0.93 2.85,1.67 0.65,0.53 1.18,1.08 1.6,1.66l0.93 0.29 0.4 0.27 -2.1 5.23 -0.63 -0.53c0.44,-2.95 0.71,-3.62 -1.14,-5.14 -2.11,-1.72 -4.64,-1.05 -6.21,0.95 -1.74,2.19 -2.23,5.66 -0.18,7.24 0.78,0.61 1.35,1.33 2.25,1.45 0.91,0.12 2.19,0.02 3.14,-0.54l0.86 0.62c-0.59,0.23 -3.1,2.39 -3.67,2.48 -0.4,-0.39 -0.77,-0.61 -1.01,-0.66 -3.85,-0.96 -8.14,-6.21 -6.48,-10.38z"/>
     <path class="fil7 str0" d="M146.1 65.74l-4.18 -4.62 0.58 -0.61c0.2,0.07 0.55,0.28 0.8,0.42 0.88,-1.2 2.04,-3.12 2.33,-4.34 0.09,-0.33 0.11,-0.67 0.07,-1.01 -0.08,-1 0,-1.59 -1.02,-1.45l-3.43 3.03c-0.16,0.14 -0.27,0.3 -0.33,0.49 -0.06,0.19 -0.04,0.41 0.05,0.65 0.03,0.08 0.13,0.32 0.24,0.51l-0.62 0.61 -4.21 -4.83 0.58 -0.55c0.25,0.24 0.44,0.4 0.58,0.48 0.23,0.14 0.44,0.19 0.63,0.16 0.19,-0.04 0.37,-0.13 0.54,-0.28l7.03 -6.2c0.17,-0.14 0.27,-0.3 0.33,-0.46 0.05,-0.17 0.03,-0.39 -0.07,-0.67 -0.07,-0.21 -0.19,-0.46 -0.37,-0.75 -0.16,-0.29 -0.29,-0.5 -0.38,-0.62l0.54 -0.48 5.36 6.08 -0.54 0.48c-0.16,-0.15 -0.35,-0.33 -0.59,-0.52 -0.24,-0.2 -0.43,-0.34 -0.57,-0.43 -0.24,-0.15 -0.45,-0.2 -0.65,-0.15 -0.19,0.05 -0.36,0.14 -0.51,0.27l-2.09 1.84 5.31 0.57 -0.28 -0.94 0.57 -0.52 4 4.05c-0.25,-0.04 -0.58,0.21 -0.83,0.35 -1.44,-0.29 -3.91,-1.51 -5.49,-1.38l0.07 0.47c0.73,2.5 -1.91,5.52 -2.69,8.21 -0.16,0.43 -0.22,0.76 -0.18,1.01 0.04,0.24 0.09,0.42 0.17,0.53l-0.75 0.6z"/>
     <path class="fil7 str0" d="M153.06 79.03l-2.56 -4.91 0.71 -0.4c0.2,0.19 0.59,0.49 0.77,0.51 0.18,0.02 0.37,-0.02 0.59,-0.13l6.76 -3.36 -6.55 -2.01c-0.38,0.19 -2.51,1.3 -2.59,1.45 -0.08,0.14 -0.11,0.36 -0.09,0.64 0.01,0.1 0.04,0.22 0.08,0.38l-0.81 0.38 -2.57 -5.18c0.11,-0.09 0.66,-0.47 0.78,-0.31 0.08,0.12 0.16,0.21 0.22,0.28 0.19,0.19 0.38,0.29 0.57,0.31 0.19,0.01 0.39,-0.03 0.59,-0.13l8.39 -4.18c0.2,-0.1 0.34,-0.22 0.44,-0.36 0.09,-0.15 0.13,-0.37 0.11,-0.66 -0.02,-0.17 -0.05,-0.36 -0.1,-0.59l0.8 -0.39 2.58 5.19 -0.81 0.42c-0.05,-0.07 -0.1,-0.12 -0.14,-0.17 -0.19,-0.21 -0.39,-0.31 -0.58,-0.31 -0.2,0 -0.39,0.04 -0.57,0.13l-4.38 2.18 6.36 2.09c0.29,-0.14 0.31,-0.2 0.38,-0.35 0.08,-0.16 0.1,-0.37 0.08,-0.63 0,-0.1 -0.09,-0.39 -0.14,-0.5l0.89 -0.37 2.57 5.07 -0.83 0.49c-0.13,-0.3 -0.55,-0.55 -0.74,-0.56 -0.2,0 -0.39,0.04 -0.57,0.13l-8.41 4.18c-0.2,0.1 -0.35,0.23 -0.45,0.38 -0.1,0.15 -0.04,0.51 -0.02,0.79l-0.76 0.5z"/>
     <path class="fil7 str0" d="M157.3 94.4l-1.51 -5.33 0.78 -0.24c0.16,0.22 0.47,0.59 0.65,0.65 0.17,0.06 0.37,0.06 0.6,0l7.3 -1.92 -5.99 -3.3c-0.42,0.11 -2.73,0.76 -2.84,0.89 -0.11,0.12 -0.18,0.33 -0.21,0.61 -0.02,0.1 -0.02,0.23 -0.01,0.39l-0.86 0.2 -1.47 -5.59c0.13,-0.06 0.75,-0.33 0.83,-0.15 0.06,0.14 0.11,0.24 0.16,0.32 0.14,0.22 0.31,0.36 0.49,0.42 0.19,0.05 0.39,0.05 0.6,0l9.07 -2.38c0.22,-0.06 0.38,-0.15 0.5,-0.27 0.13,-0.13 0.21,-0.34 0.25,-0.63 0.02,-0.16 0.02,-0.36 0.02,-0.59l0.87 -0.22 1.46 5.6 -0.87 0.25c-0.04,-0.07 -0.08,-0.14 -0.11,-0.19 -0.14,-0.25 -0.31,-0.39 -0.51,-0.43 -0.19,-0.04 -0.39,-0.03 -0.58,0.02l-4.73 1.24 5.8 3.35c0.32,-0.09 0.35,-0.14 0.45,-0.28 0.1,-0.13 0.17,-0.33 0.2,-0.6 0.02,-0.09 -0.01,-0.4 -0.04,-0.51l0.95 -0.19 1.48 5.49 -0.91 0.32c-0.06,-0.33 -0.42,-0.66 -0.61,-0.7 -0.19,-0.05 -0.39,-0.04 -0.58,0.01l-9.09 2.38c-0.21,0.06 -0.39,0.15 -0.51,0.28 -0.13,0.12 -0.15,0.48 -0.18,0.77l-0.85 0.33zm14.47 -13.1c0.15,-0.56 0.05,-1.21 -0.73,-0.32 -1.29,2.39 -1.21,3.99 1.33,5.37 0.9,0.38 0.94,-0.23 0.61,-0.55 -1.32,-1.15 -1.92,-2.57 -1.21,-4.5z"/>
    </g>
    <path class="fil8 str0" d="M31.85 153.3l0 18.11c-0.17,0.61 -0.43,0.95 -0.78,0.98l0 0.74 2.92 0 0 -0.61c-0.43,-0.18 -0.73,-0.51 -0.78,-1.11l0 -14.92 2.44 11.27 2.7 -10.92 0 14.52 -0.63 1.08 0 0.52 3.95 0 0 -0.58 -0.6 -1.05 0 -17.03 0.58 -0.75 0 -0.66c-1.37,-0.33 -2.75,-0.5 -4.15,-0.55l-0.02 0.75 0.38 0.32 -0.04 1.7 -1.43 5.14 -1.11 -5.61 0 -1.41 0.43 -0.34 0 -0.77c-1.25,-0.09 -2.84,-0.19 -4.61,-0.16l-0.03 0.72 0.78 0.62z"/>
    <path class="fil8 str0" d="M51.83 154.92c-2.24,-0.63 -4.17,-1.08 -6.21,-1.43 -3.18,-0.64 -3.35,4.47 -0.47,8.01 -1.37,3.31 -2.28,7.05 -2.7,10.72l-0.52 0.13 0 0.56 4.4 0 0 -0.41c-0.47,-0.07 -0.72,-0.38 -0.71,-0.98 0.3,-2.6 1.03,-5.2 1.89,-7.44l0.78 0.56 0 6.92c-0.12,0.49 -0.34,0.78 -0.66,0.84l0 0.53 4.06 0 0 -0.45c-0.39,-0.13 -0.65,-0.35 -0.66,-0.75l0 -15.55c0.09,-0.46 0.35,-0.71 0.79,-0.72l0.01 -0.54zm-3.53 7.48l0 -6.31c-1.21,-0.69 -2.1,-0.84 -2.48,0.75 -0.18,3.18 1.01,4.55 2.48,5.56z"/>
    <path class="fil8 str0" d="M60.46 156.69c0.28,2.21 0.57,4.41 0.85,6.62 -0.2,0.05 -0.4,0.11 -0.6,0.16 -0.84,-4.68 -2.44,-5.75 -3.28,-5.44 -2.98,1.07 -2.43,7.57 -1.8,9.91 0.91,3.37 3.27,5.44 5.66,0.81 0.12,0.01 0.24,0.01 0.36,0.02 -0.34,1.57 -0.61,3.33 -0.94,4.91 -0.2,-0.05 -0.56,-0.09 -0.75,-0.12 -0.15,-0.03 -0.53,-0.08 -0.67,-0.11 -4.16,0.81 -7.11,-3.48 -6.96,-10.43 0.32,-4.7 1.55,-9.42 6.87,-6.16 0.32,0.16 0.51,0 0.77,-0.16 0.13,-0.05 0.32,-0.03 0.49,-0.01z"/>
    <path class="fil8 str0" d="M66.5 158.4c2.85,-0.31 5.38,2.86 5.64,7.09 0.27,4.22 -1.83,7.9 -4.68,8.21 -2.85,0.31 -5.37,-2.87 -5.64,-7.09 -0.26,-4.23 1.83,-7.9 4.68,-8.21zm0.12 1.96c1.24,-0.21 2.46,2.21 2.72,5.39 0.27,3.18 -0.52,5.92 -1.76,6.12 -1.24,0.21 -2.46,-2.21 -2.73,-5.39 -0.26,-3.18 0.53,-5.92 1.77,-6.12z"/>
    <path class="fil7 str0" d="M82.87 173.58l-4.43 0.07 -0.05 -0.71c0.13,-0.09 0.41,-0.2 0.6,-0.28 -0.23,-1.25 -0.7,-3.08 -1.21,-3.96 -0.14,-0.24 -0.31,-0.45 -0.51,-0.62 -0.58,-0.51 -0.85,-0.9 -1.25,-0.16l0 3.92c0,0.18 0.04,0.35 0.11,0.49 0.07,0.14 0.2,0.26 0.37,0.33 0.06,0.03 0.23,0.1 0.38,0.14l0.04 0.74 -4.55 -0.02 -0.02 -0.68c0.24,-0.03 0.42,-0.06 0.53,-0.11 0.18,-0.07 0.3,-0.17 0.37,-0.31 0.07,-0.15 0.11,-0.31 0.11,-0.5l-0.01 -9.87c0,-0.47 -0.26,-0.73 -0.59,-0.88l-0.03 -0.82 4.19 1.33 0 0.62c-0.5,0.04 -0.9,0.51 -0.9,1.5l0 2.38 2.79 -3.09 -0.72 -0.42 -0.01 -0.67 3.54 1.03c-0.14,0.13 -0.12,0.25 -0.17,0.49 -0.98,0.17 -2.29,0.59 -2.96,1.89l0.28 0.23c1.68,0.94 1.96,4.13 2.82,6.32 0.16,0.35 0.8,0.49 0.94,0.6 0.15,0.12 0.27,0.18 0.37,0.2l-0.03 0.82z"/>
    <path class="fil8 str0" d="M87.41 163.69c2.77,0.04 5.03,2.34 5.05,5.14 0.01,2.8 -2.23,5.04 -5,5.01 -2.78,-0.04 -5.04,-2.34 -5.05,-5.14 -0.02,-2.81 2.22,-5.05 5,-5.01zm0 1.3c1.21,-0.03 2.25,1.66 2.32,3.77 0.08,2.12 -0.85,3.86 -2.06,3.89 -1.21,0.03 -2.25,-1.67 -2.32,-3.78 -0.07,-2.12 0.85,-3.85 2.06,-3.88z"/>
    <path class="fil7 str0" d="M102.76 173.71l-3.76 0.06 -0.02 -0.52c0.18,-0.06 0.47,-0.19 0.54,-0.29 0.07,-0.1 0.1,-0.22 0.1,-0.37l0.01 -3.9 -3.12 -0.01c0,0.27 -0.06,4.06 0.01,4.14 0.06,0.09 0.18,0.17 0.36,0.24 0.06,0.02 0.15,0.04 0.25,0.06l-0.01 0.57 -3.92 -0.01c-0.02,-0.09 -0.09,-0.51 0.04,-0.53 0.1,-0.02 0.18,-0.03 0.24,-0.05 0.17,-0.05 0.29,-0.13 0.36,-0.24 0.07,-0.1 0.1,-0.23 0.1,-0.37l0.02 -5.98c0,-0.14 -0.03,-0.26 -0.09,-0.35 -0.06,-0.1 -0.18,-0.18 -0.37,-0.25 -0.1,-0.04 -0.23,-0.08 -0.38,-0.11l0.01 -0.57 3.92 0 0.01 0.58c-0.05,0.02 -0.1,0.03 -0.14,0.04 -0.17,0.04 -0.33,0.17 -0.4,0.28l0 1.4 3.13 0 0 -0.99c0.01,-0.21 -0.03,-0.23 -0.1,-0.32 -0.07,-0.09 -0.19,-0.16 -0.35,-0.22 -0.06,-0.03 -0.27,-0.06 -0.35,-0.06l0.04 -0.62 3.86 -0.02 0.05 0.62c-0.22,-0.02 -0.5,0.15 -0.57,0.26 -0.06,0.11 -0.09,0.23 -0.09,0.36l-0.02 5.99c0,0.14 0.03,0.27 0.09,0.36 0.07,0.1 0.3,0.17 0.48,0.24l0.07 0.58z"/>
    <path class="fil7 str0" d="M104.07 170.37c-0.17,-0.53 -0.21,-1.09 -0.11,-1.68 0.1,-0.58 0.32,-1.11 0.66,-1.57 0.34,-0.47 0.77,-0.85 1.3,-1.15 0.52,-0.3 1.11,-0.51 1.78,-0.62 0.67,-0.11 1.38,-0.11 2.1,-0.01 0.53,0.07 1,0.18 1.42,0.34l0.6 -0.12 0.31 0.01 0.55 3.19 -0.51 -0.07c-0.72,-1.59 -0.8,-1.99 -2.3,-2.2 -1.71,-0.23 -2.88,0.84 -3.09,2.28 -0.24,1.59 0.63,3.44 2.26,3.62 0.63,0.07 1.17,0.26 1.71,0.05 0.53,-0.2 1.2,-0.63 1.53,-1.18l0.67 0.05c-0.24,0.29 -0.91,2.08 -1.2,2.3 -0.34,-0.08 -0.61,-0.08 -0.76,-0.04 -2.42,0.66 -6.47,-0.66 -6.92,-3.2z"/>
    <path class="fil7 str0" d="M121.59 166.46l-0.45 -0.05c-0.19,-0.48 -1.21,-1.24 -1.87,-1.27 -0.38,-0.08 -2.14,0.56 -2.21,0.63l0.08 1.98c0.4,0 1.74,-0.36 1.96,-0.84 0.11,-0.24 0.18,-0.45 0.21,-0.63l0.54 0 0.35 3.32 -0.67 0.15c-0.04,-0.25 -0.57,-0.81 -0.76,-0.99 -0.15,-0.15 -0.33,-0.25 -0.54,-0.31 -0.19,-0.05 -0.79,-0.01 -1.09,-0.01l0.02 3.65c0,0.67 0.39,0.43 0.94,0.46 1.21,0.05 2.74,-1.36 3.43,-2.37 0.31,-0.45 0.76,-0.11 0.74,0l-1.48 3.53 -7.78 0.12 0 -0.48c0.13,-0.01 0.31,-0.03 0.53,-0.05 0.23,-0.03 0.39,-0.06 0.48,-0.09 0.18,-0.07 0.3,-0.15 0.36,-0.25 0.06,-0.1 0.09,-0.23 0.09,-0.39l0 -6.22c0,-0.15 -0.03,-0.27 -0.08,-0.37 -0.05,-0.1 -0.17,-0.19 -0.37,-0.26 -0.12,-0.05 -0.29,-0.1 -0.51,-0.14 -0.22,-0.04 -0.39,-0.07 -0.5,-0.08l0 -0.49 7.81 -1.2 0.77 2.65z"/>
    <path class="fil7 str0" d="M126.75 163.6l-0.62 0.17 -0.02 3.23c0.9,-0.23 2.57,-1.16 2.38,-2.68 -0.09,-0.69 -0.71,-1.09 -1.74,-0.72zm-0.63 4.88l0.01 3.95c0,0.16 0.03,0.29 0.1,0.39 0.07,0.1 0.2,0.15 0.39,0.17 0.1,0.01 0.26,0 0.48,-0.02l-0.05 0.61 -4.44 0.01 0.05 -0.61c0.16,-0.06 0.27,-0.12 0.34,-0.16 0.19,-0.13 0.32,-0.25 0.38,-0.36 0.06,-0.12 0.09,-0.27 0.09,-0.45l0.03 -7.3c0,-0.16 -0.03,-0.28 -0.09,-0.38 -0.06,-0.09 -0.19,-0.15 -0.39,-0.17 -0.12,-0.02 -0.24,-0.02 -0.41,-0.01l0 -0.63 5.18 -1.41c2.41,-0.65 3.25,-0.11 3.47,0.63 0.3,1.03 -0.55,2.92 -2.21,4.29 -0.86,0.72 -2.08,1.1 -2.93,1.45z"/>
    <path class="fil7 str0" d="M136.55 165.53c-0.55,0.36 -0.94,0.78 -1.56,1.07l0 4.65c0.21,0.83 1.78,0.67 2.33,0.37 0.9,-0.5 1.11,-2.45 0.77,-3.96 -0.27,-1.17 -0.92,-2 -1.54,-2.13zm0.81 -4.16c-0.32,-0.34 -0.8,-0.45 -1.44,-0.33 -0.31,0.05 -0.59,0.17 -0.93,0.33l0 3.48c0.59,-0.42 3.26,-2.18 2.37,-3.48zm3.66 7.13c-0.02,2.41 -1.03,4.99 -3.03,5.01l-6.7 -0.01 0.03 -0.79c0.22,-0.08 0.38,-0.15 0.47,-0.21 0.18,-0.12 0.3,-0.26 0.37,-0.42 0.06,-0.16 0.1,-0.35 0.1,-0.59l0 -8.95c0,-0.22 -0.03,-0.39 -0.08,-0.52 -0.06,-0.14 -0.18,-0.24 -0.39,-0.31 -0.15,-0.05 -0.18,-0.07 -0.38,-0.09l0.01 -0.59c2.08,-0.49 4.27,-1.29 6.41,-1.7 0.66,-0.15 1.37,-0.2 1.82,0.28 1.57,1.67 -1.23,4.39 -1.93,4.87 1.18,0.64 3.28,1.18 3.3,4.02z"/>
    <path class="fil7 str0" d="M151.02 173.4l-3.76 0 -0.02 -0.82c0.18,-0.11 0.47,-0.35 0.54,-0.52 0.07,-0.18 0.1,-0.4 0.1,-0.67l0.01 -8.94 -2.97 0.7c0,0.49 -0.06,8.5 0.01,8.66 0.06,0.16 0.18,0.29 0.36,0.42 0.06,0.04 0.15,0.08 0.26,0.12l-0.02 1.01 -3.92 -0.01c-0.02,-0.16 -0.09,-0.92 0.05,-0.96 0.09,-0.02 0.17,-0.05 0.23,-0.09 0.17,-0.09 0.29,-0.23 0.36,-0.42 0.07,-0.19 0.1,-0.41 0.1,-0.67l0.02 -10.76c0,-0.25 -0.03,-0.46 -0.09,-0.63 -0.06,-0.17 -0.18,-0.32 -0.37,-0.45 -0.1,-0.07 -0.23,-0.14 -0.38,-0.2l0.01 -1.03 3.93 -1.14 0.01 0.99c-0.06,0.02 -0.11,0.04 -0.15,0.06 -0.17,0.09 -0.33,0.31 -0.4,0.51l0 2.52 2.99 -0.71 -0.01 -1.91c0.01,-0.38 -0.03,-0.43 -0.1,-0.58 -0.07,-0.15 -0.19,-0.29 -0.35,-0.4 -0.06,-0.05 -0.23,-0.1 -0.31,-0.1l0 -0.77 3.91 -0.88 0 1.15c-0.22,-0.03 -0.5,0.28 -0.56,0.48 -0.07,0.19 -0.1,0.41 -0.1,0.65l-0.02 13.28c0,0.25 0.03,0.47 0.1,0.65 0.06,0.18 0.29,0.31 0.47,0.43l0.07 1.03z"/>
    <path class="fil7 str0" d="M155.39 171.78l0 -9.25c2.83,0.69 3.47,9.25 0,9.25zm0.88 -11.18l-0.87 -0.23 0.05 -3.15c0.01,-0.72 0.19,-1.07 0.49,-1.29 0.1,-0.06 0.26,-0.13 0.48,-0.2l-0.05 -1.1 -4.49 0.81 0.06 1.09c0.15,0.04 0.26,0.08 0.33,0.13 0.2,0.13 0.32,0.29 0.39,0.48 0.06,0.18 0.09,0.45 0.09,0.78l-0.01 12.84c0,0.29 -0.04,0.53 -0.1,0.74 -0.06,0.2 -0.19,0.38 -0.39,0.51 -0.11,0.09 -0.26,0.16 -0.43,0.22l0.01 1.17 5.2 -0.02c5.02,-0.9 4.3,-10.76 -0.76,-12.78z"/>
    <path class="fil8 str0" d="M164.51 161.1c0,-2.28 0,-4.58 0.01,-6.85 0.07,-0.21 0.22,-0.43 0.4,-0.52 0.04,-0.02 0.09,-0.03 0.14,-0.05l-0.01 -0.99 -3.93 0.64 -0.01 1.03c0.15,0.06 0.28,0.12 0.39,0.2 0.18,0.12 0.3,0.27 0.37,0.45 0.05,0.17 0.08,0.38 0.08,0.63l-0.01 15.6c0,0.25 -0.04,0.48 -0.1,0.67 -0.07,0.19 -0.19,0.33 -0.36,0.42 -0.06,0.03 -0.14,0.06 -0.24,0.09 -0.13,0.03 -0.07,0.8 -0.05,0.96l3.92 0.01 0.02 -1.02c-0.11,-0.04 -0.19,-0.08 -0.26,-0.12 -0.17,-0.12 -0.29,-0.26 -0.36,-0.42 -0.06,-0.15 -0.01,-8.17 0,-8.66l0 0 0 -2.07z"/>
    <path class="fil7 str0" d="M175.58 173.36l-3.79 0.01 -0.02 -1.11c0.17,-0.15 0.47,-0.48 0.53,-0.72 0.07,-0.24 0.1,-0.55 0.1,-0.93l-0.01 -12.38 -3.17 8.3c0,0.68 0.04,4.48 0.1,4.7 0.06,0.21 0.18,0.41 0.36,0.57 0.06,0.06 0.15,0.11 0.26,0.17l-0.02 1.4 -3.9 0.02c-0.01,-0.23 -0.08,-1.28 0.05,-1.33 0.1,-0.04 0.18,-0.08 0.23,-0.12 0.17,-0.13 0.29,-0.33 0.36,-0.59 0.07,-0.26 0.1,-0.57 0.1,-0.92l-0.01 -14.84c0,-0.35 -0.03,-0.64 -0.09,-0.88 -0.06,-0.23 -0.19,-0.44 -0.37,-0.62 -0.1,-0.09 -0.23,-0.18 -0.38,-0.26l0 -1.25 3.94 -0.36 0.01 1.44c-0.06,0.03 -0.1,0.05 -0.15,0.08 -0.18,0.13 -0.3,0.33 -0.36,0.61 -0.06,0.29 -0.09,0.58 -0.09,0.9l-0.02 7.91 3.17 -7.98c0,-0.51 0.04,-1 -0.18,-1.52 -0.14,-0.35 -0.5,-0.44 -0.58,-0.44l0 -1.05 3.83 -0.13 0 1.4c-0.22,-0.04 -0.49,0.38 -0.56,0.66 -0.06,0.27 -0.04,0.69 -0.04,1.02l0.01 15.34c0,0.35 0.03,0.65 0.09,0.89 0.06,0.25 0.43,0.78 0.61,0.95l-0.01 1.06zm-6.31 -26.15c-0.34,-0.47 -0.79,-0.56 -0.34,0.98 1.35,2.94 2.41,3.44 3.73,0.1 0.41,-1.23 0.02,-1.53 -0.25,-1.15 -0.97,1.57 -2,1.91 -3.14,0.07z"/>
    <path class="fil7 str0" d="M43.99 185.08l-4.63 0.05 -0.06 -0.55c0.14,-0.07 0.43,-0.15 0.63,-0.21 -0.24,-0.96 -0.73,-2.37 -1.27,-3.04 -0.15,-0.18 -0.32,-0.34 -0.53,-0.47 -0.6,-0.4 -0.89,-0.69 -1.31,-0.13l0 3.01c0,0.14 0.04,0.27 0.11,0.37 0.08,0.12 0.21,0.2 0.39,0.26 0.06,0.02 0.24,0.08 0.4,0.11l0.04 0.57 -4.77 -0.03 -0.02 -0.52c0.25,-0.02 0.44,-0.04 0.56,-0.08 0.18,-0.05 0.31,-0.13 0.39,-0.24 0.07,-0.11 0.11,-0.24 0.11,-0.38l0 -6.17c0,-0.14 -0.04,-0.26 -0.1,-0.36 -0.07,-0.1 -0.2,-0.18 -0.4,-0.26 -0.16,-0.05 -0.32,-0.08 -0.54,-0.14l0 -0.56 5.43 0 0 0.48c-0.16,0.01 -0.36,0.03 -0.58,0.06 -0.23,0.04 -0.4,0.07 -0.52,0.1 -0.2,0.05 -0.34,0.13 -0.4,0.25 -0.07,0.12 -0.1,0.24 -0.1,0.37l0 1.83 2.92 -2.37 -0.66 -0.27 0.01 -0.45 4.13 0.01c-0.02,0.18 -0.04,0.31 -0.09,0.49 -0.86,0.58 -2.81,1.06 -3.52,1.9l0.3 0.17c1.76,0.73 2.14,3.34 3.26,4.89 0.16,0.27 0.32,0.44 0.47,0.53 0.16,0.08 0.28,0.13 0.38,0.15l-0.03 0.63z"/>
    <path class="fil8 str0" d="M57.36 176.35c2.99,0.1 5.33,2.18 5.21,4.62 -0.11,2.45 -2.63,4.35 -5.62,4.24 -3,-0.11 -5.33,-2.18 -5.21,-4.63 0.11,-2.44 2.63,-4.34 5.62,-4.23zm-0.05 1.13c1.3,0.01 2.35,1.51 2.33,3.36 -0.02,1.85 -1.1,3.34 -2.41,3.34 -1.3,-0.01 -2.35,-1.52 -2.33,-3.36 0.02,-1.85 1.1,-3.35 2.41,-3.34z"/>
    <path class="fil8 str0" d="M71.7 176.94l0 7.55c-0.18,0.26 -0.45,0.4 -0.82,0.41l0 0.31 3.08 0 0 -0.25c-0.46,-0.08 -0.77,-0.22 -0.82,-0.47l0 -6.22 2.57 4.7 2.84 -4.7 0.01 6.2 -0.66 0.45 0 0.22 4.17 0 0 -0.24 -0.63 -0.44 0.01 -7.32 0.62 -0.31 0 -0.45 -4.41 0.01 -0.02 0.32 0.4 0.13 -0.04 0.71 -1.51 2.29 -1.17 -2.34 0.01 -0.72 0.45 -0.07 0 -0.32 -4.87 -0.01 -0.03 0.3 0.82 0.26z"/>
    <path class="fil7 str0" d="M98.77 184.57c-0.94,0.38 -2.22,0.5 -3.52,0.54 -2.04,0.07 -4.17,0.03 -4.76,0.03l0 -0.48c0.13,-0.01 -0.03,-0.03 0.19,-0.05 0.22,-0.03 0.23,-0.05 0.32,-0.09 0.16,-0.05 0.28,-0.13 0.35,-0.24 0.06,-0.1 0.09,-0.23 0.09,-0.39l0 -6.17c0,-0.14 -0.03,-0.26 -0.08,-0.36 -0.06,-0.11 -0.18,-0.2 -0.36,-0.27 -0.13,-0.05 -0.15,-0.09 -0.37,-0.13 -0.21,-0.04 -0.13,-0.03 -0.24,-0.05l0.07 -0.59 8.24 0 0.85 2.64 -0.53 0c-0.21,-0.48 -0.56,-0.78 -0.86,-1.15 -0.31,-0.37 -0.59,-0.57 -0.83,-0.6 -0.9,-0.15 -2.36,-0.06 -3.26,0.03l0 1.84c1.08,-0.22 2.98,0.09 4.03,0.57 0.42,0.19 1.04,0.41 1.39,0.76 1.31,1.28 1.16,3.4 -0.72,4.16zm-1.41 -2.27c-0.02,-1.92 -2.14,-2.34 -3.29,-2.27l0 4c0.71,0.3 3.32,-0.16 3.29,-1.73z"/>
    <path class="fil7 str0" d="M119.09 185.14l-4.09 0.08 -0.02 -0.54c0.19,-0.06 0.51,-0.2 0.59,-0.3 0.07,-0.1 0.1,-0.23 0.1,-0.38l0 -4.96 -3.48 3.26c0,0.28 0.04,1.86 0.11,1.95 0.07,0.09 0.2,0.17 0.39,0.24 0.07,0.02 0.16,0.04 0.28,0.07l-0.01 0.58 -4.28 0c-0.01,-0.09 -0.09,-0.53 0.05,-0.55 0.11,-0.01 0.2,-0.03 0.26,-0.05 0.19,-0.05 0.32,-0.13 0.39,-0.24 0.08,-0.11 0.11,-0.24 0.11,-0.39l0 -6.15c0,-0.14 -0.04,-0.26 -0.1,-0.36 -0.07,-0.1 -0.2,-0.18 -0.4,-0.26 -0.12,-0.04 -0.26,-0.08 -0.42,-0.11l0.01 -0.59 4.27 0 0.02 0.6c-0.06,0.01 -0.12,0.02 -0.16,0.03 -0.2,0.06 -0.34,0.14 -0.4,0.26 -0.07,0.11 -0.1,0.24 -0.1,0.37l0 3.21 3.48 -3.13c0,-0.21 -0.04,-0.24 -0.11,-0.33 -0.08,-0.09 -0.21,-0.16 -0.39,-0.23 -0.07,-0.02 -0.29,-0.06 -0.38,-0.06l0.04 -0.63 4.2 -0.03 0.06 0.63c-0.24,-0.02 -0.55,0.16 -0.61,0.27 -0.07,0.12 -0.11,0.24 -0.11,0.38l0.01 6.16c0,0.14 0.03,0.27 0.1,0.37 0.07,0.1 0.32,0.17 0.52,0.24l0.07 0.59z"/>
    <path class="fil7 str0" d="M137.72 185.13l-4.02 0.01 0.01 -0.48c0.19,-0.06 0.51,-0.2 0.58,-0.3 0.08,-0.1 0.11,-0.22 0.11,-0.38l0 -4.22 -3.37 -0.01c0,0.28 -0.05,4.39 0.02,4.48 0.07,0.08 0.2,0.16 0.39,0.23 0.07,0.03 0.16,0.05 0.27,0.07l-0.01 0.58 -4.25 -0.01c-0.01,-0.09 -0.09,-0.52 0.06,-0.54 0.1,-0.02 0.19,-0.03 0.25,-0.05 0.19,-0.06 0.32,-0.14 0.39,-0.24 0.07,-0.11 0.11,-0.24 0.11,-0.38l0.02 -6.12c0,-0.15 -0.03,-0.27 -0.1,-0.36 -0.06,-0.1 -0.19,-0.19 -0.39,-0.26 -0.12,-0.04 -0.26,-0.08 -0.42,-0.11l0.01 -0.59 4.25 0.01 0.01 0.6c-0.06,0.01 -0.11,0.02 -0.16,0.03 -0.19,0.05 -0.35,0.17 -0.43,0.29l-0.01 1.43 3.4 0 0 -1.01c0,-0.21 -0.04,-0.24 -0.11,-0.33 -0.08,-0.09 -0.21,-0.16 -0.39,-0.23 -0.06,-0.02 -0.29,-0.06 -0.37,-0.06l0.04 -0.63 4.18 -0.02 0.05 0.63c-0.24,-0.02 -0.55,0.16 -0.61,0.27 -0.07,0.11 -0.1,0.24 -0.1,0.37l-0.02 6.13c0,0.14 0.03,0.27 0.1,0.37 0.06,0.1 0.31,0.17 0.51,0.24l0 0.59z"/>
    <path class="fil7 str0" d="M157.38 185.16l-5.43 0 0 -0.51c0.25,-0.02 0.55,-0.06 0.89,-0.13 0.34,-0.07 0.51,-0.15 0.51,-0.25 0,-0.03 0,-0.07 -0.01,-0.12 0,-0.04 -0.01,-0.1 -0.06,-0.17 -1,-1.67 -2.34,-2.54 -3.9,-2.85 -0.08,0.18 -0.56,1.31 -0.65,1.55 -0.1,0.24 -0.18,0.45 -0.25,0.64 -0.09,0.25 -0.14,0.42 -0.16,0.53 -0.02,0.11 -0.03,0.19 -0.03,0.23 0,0.14 0.12,0.26 0.35,0.36 0.22,0.1 0.6,0.17 1.13,0.21l0 0.51 -4.09 0 0 -0.51c0.15,-0.01 0.33,-0.03 0.52,-0.07 0.11,-0.02 0.71,-0.58 0.79,-0.67 0.14,-0.15 0.24,-0.33 0.34,-0.54 0.54,-1.23 1.07,-2.36 1.62,-3.59 0.34,-0.76 0.9,-1.76 0.95,-2.69 0,-0.12 -0.34,-0.14 -0.33,-0.25l0.02 -0.47 4.08 0 0 0.62c-0.95,0.22 1.65,5.2 2.34,6.7 0.06,0.13 0.14,0.25 0.23,0.36 0.27,0.3 0.14,0.43 0.67,0.53 0.17,0.04 0.33,0.06 0.47,0.07l0 0.51zm-5.23 -3.76l-1.46 -3.12 -1.03 2.2c0.85,0.03 1.68,0.3 2.49,0.92z"/>
    <path class="fil7 str0" d="M173.7 178.92l-0.48 0c-0.54,-0.71 -0.75,-1.35 -1.4,-1.53 -0.12,-0.03 -0.29,-0.03 -0.48,-0.04 -0.2,-0.02 -0.37,-0.02 -0.5,-0.02l-0.3 0 0 6.49c0,0.15 0.03,0.28 0.08,0.39 0.06,0.12 0.17,0.21 0.32,0.27 0.1,0.04 0.24,0.08 0.44,0.12 0.2,0.04 0.37,0.06 0.51,0.08l0 0.48 -5.68 0 0 -0.48c0.12,-0.01 0.29,-0.03 0.5,-0.05 0.22,-0.02 0.37,-0.05 0.44,-0.09 0.16,-0.06 0.27,-0.15 0.33,-0.26 0.05,-0.11 0.08,-0.24 0.08,-0.39l0 -6.56c-0.41,0 -0.9,-0.07 -1.28,0.06 -0.65,0.22 -1.03,0.79 -1.4,1.53l-0.48 0 0.72 -2.5 7.71 0 0.87 2.5z"/>
   </g>
  </g>
 </g>
</svg>
