<?xml version="1.0" encoding="UTF-8"?>
<!DOCTYPE svg PUBLIC "-//W3C//DTD SVG 1.1//EN" "http://www.w3.org/Graphics/SVG/1.1/DTD/svg11.dtd">
<!-- Creator: CorelDRAW 2018 (64-Bit) -->
<svg xmlns="http://www.w3.org/2000/svg" xml:space="preserve" width="240px" height="339px" version="1.1" style="shape-rendering:geometricPrecision; text-rendering:geometricPrecision; image-rendering:optimizeQuality; fill-rule:evenodd; clip-rule:evenodd"
viewBox="0 0 240 339.43"
 xmlns:xlink="http://www.w3.org/1999/xlink">
 <defs>
  <style type="text/css">
   <![CDATA[
    .fil7 {fill:#FEFEFE}
    .fil0 {fill:#2B2A29}
    .fil6 {fill:#FEFEFE;fill-rule:nonzero}
    .fil2 {fill:url(#id0)}
    .fil5 {fill:url(#id1)}
    .fil4 {fill:url(#id2)}
    .fil3 {fill:url(#id3)}
    .fil1 {fill:url(#id4)}
   ]]>
  </style>
  <linearGradient id="id0" gradientUnits="userSpaceOnUse" x1="41.63" y1="122.88" x2="55.25" y2="138.37">
   <stop offset="0" style="stop-opacity:1; stop-color:#B9B7B7"/>
   <stop offset="1" style="stop-opacity:1; stop-color:#E5E4E5"/>
  </linearGradient>
  <linearGradient id="id1" gradientUnits="userSpaceOnUse" x1="189.5" y1="171.01" x2="183.04" y2="149.47">
   <stop offset="0" style="stop-opacity:1; stop-color:#AEAEAE"/>
   <stop offset="1" style="stop-opacity:1; stop-color:#DADADA"/>
  </linearGradient>
  <linearGradient id="id2" gradientUnits="userSpaceOnUse" x1="175.89" y1="150.19" x2="185.59" y2="128.84">
   <stop offset="0" style="stop-opacity:1; stop-color:gainsboro"/>
   <stop offset="0.490196" style="stop-opacity:1; stop-color:#FEFEFE"/>
   <stop offset="1" style="stop-opacity:1; stop-color:#E1E1E1"/>
  </linearGradient>
  <linearGradient id="id3" gradientUnits="userSpaceOnUse" x1="60.23" y1="160.52" x2="58.52" y2="137.19">
   <stop offset="0" style="stop-opacity:1; stop-color:#E5E4E5"/>
   <stop offset="1" style="stop-opacity:1; stop-color:#FEFEFE"/>
  </linearGradient>
  <radialGradient id="id4" gradientUnits="userSpaceOnUse" gradientTransform="matrix(-2.4203 -2.98053 2.97352 -2.42601 81 625)" cx="103.72" cy="92.19" r="66.42" fx="103.72" fy="92.19">
   <stop offset="0" style="stop-opacity:1; stop-color:#FEFEFE"/>
   <stop offset="1" style="stop-opacity:1; stop-color:#A2A2A2"/>
  </radialGradient>
 </defs>
 <g id="Layer_x0020_1">
  <metadata id="CorelCorpID_0Corel-Layer"/>
  <g id="_2940257168304">
   <path class="fil0" d="M169.05 128.06c0,18.42 -6.89,34.89 -17.7,45.82 -0.41,3.44 -2.07,6.18 -4.72,8.36 15.41,-10.95 25.74,-31.12 25.74,-54.18 0,-6.48 -0.81,-12.73 -2.33,-18.61 -0.23,2.58 -0.91,5.01 -1.9,7.16 0.6,3.7 0.91,7.53 0.91,11.45zm-43.19 46.06c2.69,4.53 5.93,8.41 10.55,8.33 0.21,0.78 0.42,1.55 0.64,2.33 -5.12,-0.55 -9.03,-3.68 -11.36,-10.25 -0.28,-0.9 -0.15,-0.87 0.17,-0.41zm10.85 3.78c-0.86,-0.92 -0.7,-0.38 -0.26,0.81 1.73,4.85 2.78,7.35 4,8.95 2.99,3.94 6.41,0.47 6.67,-2.65 0.21,-1.51 -0.09,-1.57 -0.91,-0.17 -2.71,4.82 -6.15,-1.73 -9.5,-6.94zm15.83 -48.28c-0.32,-1.37 -0.09,-1.44 0.67,-0.22 0.97,2.3 1.42,4.52 1.76,6.72 2.96,3.24 1.4,9.2 -4.07,11.75 -8.49,8.06 -0.73,15.08 -1.18,23.86 -0.23,4.51 -2.33,7.78 -7.74,11.19 -0.55,-0.49 -1.1,-0.99 -1.65,-1.48 3.75,-2.25 6.45,-4.93 7.05,-8.44 0.31,-6.9 -3.72,-12.72 -2.95,-18.48 2.75,-10.57 11.85,-8.71 8.11,-24.9zm-24.35 19.74c-0.05,-0.1 2.88,0.89 2.88,0.89 -0.08,0.74 -1.14,1.03 -1.65,0.86 -0.51,-0.17 -1.41,-1.4 -1.23,-1.75zm-1.28 -0.25c-0.19,7.34 5.35,7.15 6.12,1.51l4.42 -0.33c0.9,0.11 0.88,-0.12 -0.06,-0.68l-14.33 -5.66c-1.21,-0.19 -0.91,0.3 -0.41,0.88 1.17,1.7 2.64,3.07 4.26,4.28zm-15.17 11.09c-2.64,-4.63 -6.03,-8.71 -6.74,-12.91 -0.57,-3.38 -0.04,-6.68 1.83,-9.89 0.14,-0.27 0.25,-0.52 -0.32,-0.17 -6.36,5.39 -6.6,12.67 4.79,23.54 0.79,0.51 0.8,0.16 0.44,-0.57zm7.41 12.16c-4.72,-12.99 -15.85,-14.32 -27.12,-6.55 -0.77,0.74 -0.51,0.9 0.46,0.65 14.39,-5.4 21.49,-1.28 25.96,6.27l0.7 -0.37zm14.69 12.87c-4.39,1.56 -9.04,2.4 -13.84,2.4 -27.09,0 -49.05,-26.67 -49.05,-59.57 0,-11.09 2.49,-21.47 6.83,-30.36 1.89,-5.25 4.82,-12.29 7.87,-17.13 -11.04,11.54 -18.03,28.54 -18.03,47.49 0,34.73 23.46,62.9 52.38,62.9 6.33,0 12.4,-1.35 18.01,-3.82 -0.28,-0.49 -0.53,-1.01 -0.79,-1.52 -1.21,0.03 -2.34,-0.11 -3.38,-0.39zm3.28 -77.72c-4.64,-7.9 -10.43,-14.83 -15.37,-21.11 -9.93,-12.6 -23.54,-17.45 -32.75,-6.75 -4.3,4.99 -7.92,12.23 -12.12,23.41 1.74,0.13 9.29,-16.82 12.12,-20.11 9.21,-10.7 22.11,-5.52 32.75,6.76 1.22,1.4 6.34,7.29 10.02,12.22 2.33,3.12 3.78,6 4.39,6.08l0.12 -0.06 0.84 -0.44zm-2.94 61.46c2.88,0.44 4,4.43 2.87,6.65 -0.51,0.71 -0.61,1.12 -0.71,-0.02 -0.1,-1.13 -0.21,-1.93 -0.89,-2.53 -0.26,-0.28 -0.53,-0.18 -0.62,-0.07 -0.55,0.75 -0.93,1.41 -1.52,1.44 -0.23,0.08 -0.64,-0.67 -1.19,-2 -0.28,-0.69 -0.21,-0.53 -0.54,0.09 -0.25,0.48 -0.16,1.79 -0.77,1.44 -0.51,-0.4 -1.1,-1.09 -0.65,-2.18 0.77,-1.89 1.99,-2.98 4.02,-2.82zm-14.18 -100.49c19.56,0 36.46,13.92 44.33,34.05 0.83,-0.78 1.62,-1.77 2.35,-3.02 -8.67,-20.39 -26.32,-34.36 -46.68,-34.36 -7.6,0 -14.81,1.95 -21.33,5.44 2.79,-0.36 5.39,-0.27 7.81,0.19 4.29,-1.5 8.83,-2.3 13.52,-2.3zm47.63 32.92c-0.46,12.3 -6.1,22.2 -14.12,20.29l-0.31 0.82c7.5,3.79 12.78,-3.33 14.77,-9.55 1.05,-3.25 1.16,-7.48 0.14,-12.87 -0.19,-0.46 -0.41,-0.76 -0.82,-0.04 -1.17,2.86 -3.48,4.88 -6.77,6.16 -2.9,1.14 -6.91,0.36 -10.9,1.78 0.22,0.18 0.43,0.36 0.64,0.55 0.27,0.25 0.52,0.51 0.76,0.78 6.14,-0.74 13.45,2.17 16.61,-7.92zm-32.45 11.01c3.65,-2.66 7.89,-3.61 11.29,-1.3 4.1,2.78 3.55,8.49 -0.87,16.4 17.2,-17.29 -5.96,-27.47 -11.68,-14.53 0.48,-0.15 0.92,-0.32 1.26,-0.57zm-8.1 1.06c1.02,3.91 -0.13,8.74 -4.16,14.8 1.43,2.68 3.83,3.41 9.23,-1.92 6.07,2.72 8.92,-1.23 10.31,-8.23 1.23,3.04 1.85,6.08 1.74,9.11 0.86,1.25 2.3,-3.3 2.18,-4.7 -0.57,-2.15 -1.33,-3.96 -3.33,-5.62 -0.19,-0.21 -0.66,-0.48 -1.15,0.3 -3.09,4.86 -5.57,8.36 -8.94,7.66 2.67,-3.06 1.97,-5.81 0.66,-8.95 -1.75,8.82 -5,12.58 -9.91,12.06 5.15,-3.8 9.08,-10.85 4.14,-14.69 -0.62,-0.24 -0.98,-0.27 -0.77,0.18zm-3.95 12.88c-11.81,2.07 -15.97,-3.2 -16.16,-10.23 -0.09,-3.08 0.18,-6.65 1.69,-10.6 1.2,9.11 5.84,13.86 17.68,9.84 1.11,-0.45 0.53,-1.84 -0.82,-1.8 -13.69,0.89 -15.58,-4.48 -15.03,-11.14l-1.12 -0.28c-3.93,5.08 -4.74,12.38 -4.09,17.27 0.65,4.91 4.66,13.15 17,8.22l0.85 -1.28z"/>
   <path class="fil1" d="M99.32 81.48c-13.28,-2.34 -14.21,21.66 -23.33,24.04 -0.69,0.12 -0.78,-2.41 -0.45,-2.66 -2.95,7.65 -4.59,16.19 -4.59,25.2 0,32.9 21.96,59.57 49.05,59.57 4.8,0 9.45,-0.84 13.84,-2.4 -4.47,-1.21 -7.49,-5.19 -9.36,-11.34 -0.39,-1.23 0.75,-2.33 1.69,-1.38 3.82,5.82 7.01,8.26 9.66,7.88 -0.35,-1.82 -0.6,-3.6 -1.59,-5.02l-1.58 -0.2c-0.22,0.91 -0.9,1.03 -1.8,0.77 -4.79,-1.31 -2.65,-8.59 2.44,-8.8 4.56,0.03 6.58,3.58 6.55,5.84 -0.02,1.55 -0.51,3.65 -2.22,4.95l1.36 1.76c3.63,-1.83 5.67,-4.18 6.1,-6.97 0.87,-5.64 -3.74,-12.34 -2.45,-19.78 1.75,-5.85 6.22,-8.13 8.36,-12.53 1.36,-2.78 1.62,-6.63 0.17,-12.06 -0.2,-1.1 1.26,-2.17 1.8,-1.12 2.05,3.15 2.83,5.73 3.08,8.08 5.37,5.04 1.51,12.84 -4.27,13.91 -7.88,6.14 0.33,13.11 -0.33,22.7 0.01,0.68 -0.03,1.33 -0.1,1.96 10.81,-10.93 17.7,-27.4 17.7,-45.82 0,-3.92 -0.31,-7.75 -0.91,-11.45 -6.27,9.7 -11.08,9.32 -15.55,6.5 -1.42,-1.62 -0.42,-1.99 0.78,-2.25 6.67,0.98 10.03,-5.5 12.46,-14.06 -3.48,4.23 -8.63,4.26 -14.01,3.7 2.78,8.72 -1.1,13.6 -5.58,18.14l-1.18 0.25c-1.57,-0.23 -2.17,-2.23 -2.45,-4.99 -1.65,3.75 -4.73,6.15 -9.99,4.32 -6.53,4.87 -9.55,3.69 -10.56,0.44 -20.78,8.14 -22.75,-17.37 -12.48,-27.81 0.33,-0.34 1.82,-1.55 1.82,-0.29 -0.33,5.11 0.68,9.52 6.49,11.39 2.98,0.61 5.81,0.62 8.62,0.51 3.63,-1.33 5.31,5.5 3.92,8.8 1.13,-1.79 1.81,-3.93 2.36,-6.17 0.45,-0.82 1.82,0.33 2.25,0.72 1.62,1.44 1.98,3.71 1.7,6.39 1.79,-1.02 4.34,-6.8 5.85,-6.3 1.82,0.58 3,1.85 3.99,3.33 1.52,-4.09 -1.01,-11.67 -10.71,-5.49 -2.43,1.04 -4.69,-0.1 -3.48,-2.32l2.54 -2.79c-10.93,-14.73 -22.52,-25.4 -35.61,-27.15zm23.1 60.78l15.58 6.07c2.46,1.14 1.91,3.14 -0.07,3.41 -1.52,0.02 -2.71,0.21 -4.23,0.23 -1.77,7.13 -8.74,3.38 -8.34,-2.32 -1.66,-1.51 -2.49,-2.34 -3.92,-4.25 -1.34,-1.67 -0.63,-3.87 0.98,-3.14zm-17.49 -5.33c3.41,-2.36 3.35,-0.17 2.64,1.42 -1.08,1.88 -1.44,4.28 -0.95,7.29 0.79,4.9 4.44,9.9 6.06,14.67 0.23,0.66 0.24,1.13 0.04,1.41 4.15,2.68 6.58,6.94 7.58,12.5 0.25,1.77 -0.22,2.02 -1.42,0.74 -4.5,-5.25 -6.43,-12.08 -27.42,-7.23 -1.49,0.32 -2.87,-0.71 -1.22,-2.09 4.77,-3.8 10.19,-6.73 18.76,-5.47 -9,-7.19 -11.28,-16.7 -4.07,-23.24zm-37.31 -8.87c0,-18.11 6.38,-34.43 16.57,-45.9 0.13,-0.14 0.25,-0.28 0.38,-0.42 0.29,-0.44 0.78,-0.74 1.08,-1.17 3.75,-5.31 7.65,-9.7 13.02,-9.98 6.52,-3.49 13.73,-5.44 21.33,-5.44 20.36,0 38.01,13.97 46.68,34.36 1.28,-1.73 1.59,-1.21 2.35,0.37 1.17,3.18 1.11,6.48 1.01,9.57 1.52,5.88 2.33,12.13 2.33,18.61 0,23.06 -10.33,43.23 -25.74,54.18 -1.04,0.85 -2.23,1.61 -3.55,2.3 1.01,1.07 2.23,0.21 3.6,-1.95 0.9,-1 1.23,-0.77 1.32,0.03l-0.17 3.07c16.61,-11.47 27.8,-32.98 27.8,-57.63 0,-36.68 -24.77,-66.42 -55.31,-66.42 -30.55,0 -55.32,29.74 -55.32,66.42 0,36.67 24.77,66.42 55.32,66.42 7.13,0 13.96,-1.63 20.22,-4.58l-0.15 -0.17c-1.09,-0.62 -1.79,-1.56 -2.38,-2.59 -5.61,2.47 -11.68,3.82 -18.01,3.82 -28.92,0 -52.38,-28.17 -52.38,-62.9zm40.97 -17.13c-1.14,9.7 2.42,15.45 14.35,14.18 1.8,-2.39 2.94,-5.44 3.39,-8.37 -10.89,3.55 -15.97,-0.18 -17.74,-5.81zm-2.05 -40.17c13.52,2.62 22.93,17.42 31.03,36.05 4.06,-2.18 7.69,-1.91 11.04,0.05 5.66,-2.02 13.67,-0.28 15.72,-4.33 -7.87,-20.13 -24.77,-34.05 -44.33,-34.05 -4.67,0 -9.19,0.8 -13.46,2.28z"/>
   <path class="fil0" d="M46.88 131.26l-12.23 -9.71c4.6,-1.73 9.08,-2.75 13.47,-3.14 4.79,-0.43 9.49,-0.12 14.11,0.78 0.03,-0.28 0.06,-0.57 0.1,-0.85 0.03,-0.28 0.07,-0.57 0.1,-0.85 -4.71,-0.91 -9.53,-1.22 -14.45,-0.78 -5.01,0.45 -10.12,1.66 -15.35,3.79l-1.36 0.55 1.15 0.91 12.7 10.09 -6.97 8.17 -0.87 1.02 1.29 0.36 11.93 3.3c-0.05,-0.31 -0.11,-0.62 -0.17,-0.93 -0.06,-0.32 -0.13,-0.63 -0.19,-0.94l-9.82 -2.72 6.67 -7.82 0.58 -0.68 -0.69 -0.55zm3.29 0.2c1.75,-1.46 5.57,-2.35 11.48,-1.78 -0.01,-0.29 -0.01,-0.57 0,-0.86 0,-0.29 0,-0.57 0,-0.86 -6.31,-0.58 -10.53,0.49 -12.57,2.18l0 0c-1,0.83 -1.53,1.82 -1.58,2.88 -0.04,0.71 0.14,1.42 0.54,2.11 0.19,0.33 0.42,0.66 0.71,0.98 0.2,0.22 0.43,0.44 0.68,0.66 0.34,0.28 0.71,0.56 1.13,0.82 2.45,1.55 6.42,2.76 11.91,3.06 -0.04,-0.29 -0.08,-0.58 -0.12,-0.87 -0.04,-0.28 -0.08,-0.57 -0.11,-0.86 -6.46,-0.39 -10.51,-2.07 -12.22,-3.96 -0.16,-0.18 -0.3,-0.37 -0.42,-0.55 -0.26,-0.41 -0.39,-0.82 -0.4,-1.21 0,-0.03 0,-0.06 0.01,-0.1 0.02,-0.57 0.35,-1.13 0.96,-1.64l0 0zm3.04 25.82c0.09,-4.25 -0.26,-8.31 -0.94,-12.23 -0.44,-2.54 -1.02,-5.02 -1.71,-7.46 -0.42,-0.26 -0.79,-0.54 -1.13,-0.82 -0.25,-0.22 -0.48,-0.44 -0.68,-0.66 -0.29,-0.32 -0.52,-0.65 -0.71,-0.98 0.82,2.58 1.54,5.21 2.1,7.9 0.06,0.31 0.13,0.62 0.19,0.94 0.06,0.31 0.12,0.62 0.17,0.93 0.03,0.15 0.06,0.29 0.08,0.44 0.7,4.02 1.05,8.18 0.9,12.52l-0.02 0.64 0.6 0.2c2.99,1.01 5.89,1.74 8.72,2.25 2.81,0.51 5.55,0.8 8.24,0.93 -0.15,-0.29 -0.29,-0.59 -0.42,-0.88 -0.14,-0.29 -0.28,-0.59 -0.41,-0.88 -2.33,-0.15 -4.69,-0.42 -7.11,-0.85 -2.56,-0.46 -5.17,-1.11 -7.87,-1.99z"/>
   <path class="fil2" d="M49.08 130.14c2.04,-1.69 6.26,-2.76 12.57,-2.18 0.05,-2.86 0.24,-5.79 0.58,-8.77 -4.62,-0.9 -9.32,-1.21 -14.11,-0.78 -4.39,0.39 -8.87,1.41 -13.47,3.14l12.23 9.71 0.69 0.55 -0.58 0.68 -6.67 7.82 9.82 2.72c-0.56,-2.69 -1.28,-5.32 -2.1,-7.9 -0.4,-0.69 -0.58,-1.4 -0.54,-2.11 0.05,-1.06 0.58,-2.05 1.58,-2.88l0 0z"/>
   <path class="fil3" d="M62.47 140.65c-5.49,-0.3 -9.46,-1.51 -11.91,-3.06 0.69,2.44 1.27,4.92 1.71,7.46 0.68,3.92 1.03,7.98 0.94,12.23 2.7,0.88 5.31,1.53 7.87,1.99 2.42,0.43 4.78,0.7 7.11,0.85 -2.78,-6.15 -4.71,-12.63 -5.72,-19.47z"/>
   <g>
    <path class="fil0" d="M182.87 150.36c-2.01,-0.79 -4.11,-1.34 -6.28,-1.62 -0.15,0.56 -0.3,1.12 -0.46,1.67 2.12,0.25 4.15,0.77 6.11,1.55 2.28,0.9 4.45,2.14 6.52,3.71 0.01,0.01 0.02,0.02 0.04,0.04l1.04 -1.36c-1.93,-1.47 -3.94,-2.68 -6.03,-3.6 -0.31,-0.13 -0.62,-0.26 -0.94,-0.39zm4.81 12.04l0 0zm-4.63 -20.84c-0.96,1.61 -1.77,2.98 -1.27,4.63 0.24,1.76 1.02,3.24 2.03,4.56 2.09,0.92 4.1,2.13 6.03,3.6l-1.04 1.36c-0.02,-0.02 -0.03,-0.03 -0.04,-0.04 1.39,1.33 2.42,2.58 2.28,3.84 -0.14,0.83 -0.51,1.46 -1.01,1.9 -0.62,0.54 -1.45,0.85 -2.35,0.99 -2.37,0.22 -4.96,-0.14 -7.65,-0.87 -2.29,-0.62 -4.64,-1.52 -6.98,-2.57 -0.23,0.53 -0.46,1.05 -0.71,1.56 2.43,1.09 4.87,2.02 7.24,2.66 2.89,0.79 5.69,1.16 8.3,0.91l0.04 0c1.22,-0.18 2.36,-0.62 3.24,-1.39 0.79,-0.7 1.36,-1.65 1.57,-2.91l0 -0.04c0.32,-2.52 -1.76,-4.41 -4.11,-6.53 -1.45,-1.3 -3.01,-2.71 -4.04,-4.36 -0.36,0.09 -0.72,0.18 -1.08,0.27l-0.41 -1.66c0.24,-0.06 0.47,-0.12 0.71,-0.18 -0.16,-0.45 -0.28,-0.92 -0.34,-1.4l-0.01 -0.08 -0.03 -0.07c-0.3,-0.95 0.34,-2.03 1.1,-3.31 1.13,-1.89 2.46,-4.13 1.99,-7.4 -0.28,-1.89 -0.92,-3.83 -2.25,-5.42 -1.19,-1.44 -2.91,-2.57 -5.39,-3.11 0.03,0.6 0.04,1.19 0.05,1.77 1.84,0.48 3.13,1.35 4.03,2.43 1.09,1.31 1.62,2.95 1.86,4.58 0.39,2.67 -0.77,4.62 -1.76,6.28zm0.04 5.91l0.41 1.66c0.36,-0.09 0.72,-0.18 1.08,-0.27 3.07,-0.74 6.14,-1.31 9.2,-1.56 3.13,-0.26 6.26,-0.17 9.38,0.45l-0.74 4.79 -0.87 5.68 -0.08 0.53 0.44 0.3c0.79,0.54 1.46,0.96 2.08,1.34 2.07,1.29 3.34,2.08 3.92,4.66 -7.16,-0.46 -15.65,2 -23.81,4.37 -7.21,2.08 -14.14,4.09 -19.47,3.88 -0.41,0.54 -0.83,1.08 -1.26,1.62 5.78,0.61 13.34,-1.58 21.2,-3.86 8.43,-2.44 17.22,-4.99 24.27,-4.21l1.09 0.12 -0.15 -1.08c-0.55,-4.25 -2.12,-5.23 -4.89,-6.95 -0.49,-0.3 -1.02,-0.63 -1.57,-0.99l0.79 -5.15 0.86 -5.59 0.12 -0.79 -0.78 -0.17c-3.56,-0.81 -7.12,-0.95 -10.67,-0.66 -3.28,0.27 -6.56,0.9 -9.84,1.7l-0.71 0.18z"/>
    <path class="fil4" d="M176.59 148.74c2.17,0.28 4.27,0.83 6.28,1.62 0.32,0.13 0.63,0.26 0.94,0.39 -1.01,-1.32 -1.79,-2.8 -2.03,-4.56 -0.5,-1.65 0.31,-3.02 1.27,-4.63 0.99,-1.66 2.15,-3.61 1.76,-6.28 -0.24,-1.63 -0.77,-3.27 -1.86,-4.58 -0.9,-1.08 -2.19,-1.95 -4.03,-2.43 0.13,7.18 -0.65,14 -2.33,20.47z"/>
    <path class="fil5" d="M188.62 153.22c2.35,2.12 4.43,4.01 4.11,6.53l0 0.04c-0.21,1.26 -0.78,2.21 -1.57,2.91 -0.88,0.77 -2.02,1.21 -3.24,1.39l-0.04 0c-2.61,0.25 -5.41,-0.12 -8.3,-0.91 -2.37,-0.64 -4.81,-1.57 -7.24,-2.66 -2.08,4.45 -4.65,8.71 -7.71,12.78 5.33,0.21 12.26,-1.8 19.47,-3.88 8.16,-2.37 16.65,-4.83 23.81,-4.37 -0.58,-2.58 -1.85,-3.37 -3.92,-4.66 -0.62,-0.38 -1.29,-0.8 -2.08,-1.34l-0.44 -0.3 0.08 -0.53 0.87 -5.68 0.74 -4.79c-3.12,-0.62 -6.25,-0.71 -9.38,-0.45 -3.06,0.25 -6.13,0.82 -9.2,1.56 1.03,1.65 2.59,3.06 4.04,4.36z"/>
   </g>
   <g>
    <path class="fil6" d="M55.06 92.49c0.76,0.23 1.38,0.61 1.86,1.17 0.47,0.55 0.81,1.2 1,1.97 0.18,0.74 0.25,1.51 0.2,2.32 -0.04,0.82 -0.19,1.63 -0.43,2.45l-2.89 9.77 -0.84 -0.25c0.05,-0.24 -0.07,0.04 0.01,-0.36 0.07,-0.4 0.11,-0.69 0.09,-0.86 -0.01,-0.32 -0.09,-0.57 -0.24,-0.73 -0.14,-0.17 -0.36,-0.3 -0.63,-0.38l-10.76 -3.18c-0.25,-0.08 -0.48,-0.09 -0.69,-0.04 -0.21,0.05 -0.42,0.21 -0.64,0.49 -0.15,0.2 -0.32,0.48 -0.5,0.83 -0.18,0.35 -0.13,0.22 -0.21,0.4l-1 -0.43 3.86 -13.38 5.04 -0.14 -0.28 0.94c-0.93,0.11 -1.63,0.56 -2.43,0.91 -0.81,0.35 -1.3,0.73 -1.48,1.13 -0.12,0.25 -0.25,0.54 -0.37,0.87 -0.12,0.34 -0.27,0.67 -0.34,1.04l-0.52 2.81 3.5 1.04c0.1,-1.17 0.61,-2.45 1.24,-3.93 0.71,-1.64 2.75,-4.1 5.25,-4.46 0.67,-0.23 1.41,-0.23 2.2,0zm-1.4 5.14c-3.37,-0.94 -5.45,1.61 -5.92,3.65l6.97 2.07c2.04,-0.25 1.7,-4.95 -1.05,-5.72z"/>
    <path class="fil6" d="M57.69 74.28l-0.47 0.67c-0.94,-0.12 -3.61,0.31 -4.25,1.32 -0.17,0.2 -0.37,0.49 -0.61,0.88 -0.23,0.39 -0.44,0.7 -0.56,0.97 -0.42,0.86 -0.35,1.45 -0.12,2.47l2.51 1.42 0.42 -0.74c0.23,-0.4 0.39,-0.79 0.5,-1.17 0.1,-0.38 0.11,-0.77 0.02,-1.19 -0.06,-0.25 -0.22,-0.57 -0.5,-0.96 -0.28,-0.38 -0.55,-0.68 -0.8,-0.89l0.48 -0.84 5.98 3.05 -0.47 0.84c-0.43,-0.16 -2.13,-0.12 -2.57,0 -0.37,0.11 -0.7,0.31 -0.97,0.59 -0.28,0.28 -0.53,0.64 -0.78,1.08l-0.42 0.73 5.4 3.05c3.61,2.04 4.08,-5.57 3.73,-6.85 -0.63,-1.29 -1.14,-1.4 -0.51,-2.51l3.49 4.46 -7.66 12.97 -0.76 -0.43c0.11,-0.22 0.24,-0.51 0.4,-0.89 0.16,-0.37 0.25,-0.65 0.28,-0.83 0.06,-0.33 0.03,-0.6 -0.07,-0.78 -0.11,-0.19 -0.28,-0.35 -0.53,-0.49l-9.77 -5.52c-0.23,-0.14 -0.45,-0.21 -0.65,-0.21 -0.2,-0.01 -0.44,0.11 -0.74,0.35 -0.19,0.15 -0.41,0.38 -0.67,0.69 -0.26,0.31 -0.45,0.54 -0.57,0.71l-0.76 -0.43 7.16 -12.66 4.84 1.14z"/>
    <path class="fil6" d="M62.08 63.45l-0.68 0.8 4.09 3.62c0.64,-1.28 1.79,-3.98 0.04,-5.32 -0.95,-0.72 -2.42,-0.51 -3.45,0.9zm5.48 4.27l-0.8 1.25 4.15 3.61c0.2,0.17 0.41,0.28 0.64,0.33 0.22,0.04 0.48,-0.02 0.79,-0.19 0.15,-0.09 0.38,-0.25 0.67,-0.5l0.7 0.74 -4.92 5.7 -0.69 -0.73c0.14,-0.22 0.24,-0.39 0.28,-0.51 0.13,-0.33 0.16,-0.59 0.1,-0.78 -0.06,-0.19 -0.21,-0.39 -0.44,-0.59l-8.87 -7.79c-0.2,-0.17 -0.41,-0.28 -0.62,-0.33 -0.21,-0.05 -0.47,0.02 -0.79,0.19 -0.18,0.1 -0.39,0.24 -0.63,0.42l-0.78 -0.73 5.76 -6.64c6.31,-7.29 9.78,-2.46 5.45,6.55z"/>
    <path class="fil6" d="M85.02 48.51l-0.71 0.4c-0.8,-0.51 -3.4,-1.26 -4.41,-0.62 -0.24,0.1 -0.54,0.28 -0.92,0.53 -0.37,0.25 -0.7,0.44 -0.93,0.63 -0.75,0.6 -0.93,1.17 -1.16,2.18l1.66 2.36 0.69 -0.49c0.39,-0.27 0.7,-0.55 0.96,-0.85 0.25,-0.3 0.43,-0.65 0.53,-1.06 0.05,-0.25 0.04,-0.61 -0.05,-1.08 -0.08,-0.46 -0.2,-0.85 -0.33,-1.14l0.79 -0.56 4.09 5.32 -0.78 0.56c-0.33,-0.33 -1.87,-1.03 -2.32,-1.11 -0.39,-0.05 -0.76,-0.02 -1.13,0.12 -0.37,0.14 -0.76,0.35 -1.17,0.64l-0.69 0.48 3.57 5.07c2.38,3.39 6.08,-3.28 6.31,-4.59 -0.02,-1.43 -0.43,-1.76 0.61,-2.49l1.24 5.53 -12.47 8.44 -0.51 -0.72c0.19,-0.15 0.44,-0.36 0.74,-0.63 0.31,-0.27 0.51,-0.48 0.62,-0.62 0.19,-0.28 0.28,-0.53 0.26,-0.75 -0.01,-0.21 -0.1,-0.43 -0.26,-0.67l-6.46 -9.17c-0.16,-0.22 -0.32,-0.38 -0.5,-0.46 -0.18,-0.1 -0.45,-0.09 -0.82,-0.01 -0.24,0.06 -0.54,0.17 -0.91,0.33 -0.36,0.17 -0.64,0.3 -0.82,0.4l-0.5 -0.71 11.89 -8.37 3.89 3.11z"/>
    <path class="fil6" d="M106 50.9c-1.08,1.62 -3.02,2.7 -5.36,3.86 -2.01,0.98 -3.77,1.43 -5.28,1.32l-0.61 0.66 -3.34 -3.86 0.13 -0.6 5.35 1.56c1.01,0.1 1.74,0.09 2.57,-0.43 1.89,-1.2 3.43,-2.92 1.71,-5.77 -1.14,-1.39 -2.92,-0.72 -4.11,-0.42l-2.49 0.61 -0.96 -1.53c1.09,-0.49 2.69,-1.13 3.52,-2.03 1.59,-1.71 0.78,-4.65 -2.72,-3.43 -1.07,0.37 -2.2,1.07 -2.6,2.25 -0.23,0.66 -0.7,1.75 -0.75,2.48l-1.13 0.09 -0.43 -4.83 0.75 -0.76c0.37,0.29 0.82,0.65 1.27,0.32 0.67,-0.48 1.26,-0.9 2.74,-1.63 1.95,-0.96 6.4,-2.56 8.13,0.68 1.21,2.26 -1.35,5.29 -2.94,5.52l0.07 0.13c0.56,-0.26 1.17,-0.49 1.85,-0.67 4.07,-0.79 7.31,2.94 4.63,6.48z"/>
    <path class="fil7" d="M117.64 34.65c5.08,-0.24 9.39,3.44 9.61,8.2 0.22,4.77 -3.72,8.83 -8.81,9.06 -5.08,0.24 -9.38,-3.44 -9.6,-8.2 -0.22,-4.77 3.72,-8.82 8.8,-9.06zm0.1 2.21c2.21,-0.18 4.24,2.58 4.52,6.17 0.28,3.59 -1.29,6.65 -3.51,6.83 -2.21,0.18 -4.23,-2.58 -4.51,-6.17 -0.28,-3.59 1.28,-6.65 3.5,-6.83z"/>
    <path class="fil6" d="M140.59 45.57c-1.04,-0.04 -1.85,0.14 -2.98,-0.03l-2.05 5.59c0.32,1.22 2.16,1.29 3.87,1.17 2.73,-0.2 2.93,-4.82 1.16,-6.73zm2.4 -4.31c-0.37,-0.67 -1.09,-1.21 -2.17,-1.6 -0.15,-0.06 -0.36,-0.12 -0.61,-0.2 -0.25,-0.08 -0.23,0.13 -0.41,0.07l-1.53 4.18c1.16,-0.15 6.11,0.39 4.72,-2.45zm3.25 11.23c-1.05,2.88 -4.06,2.66 -6.11,2.22 -1,-0.21 -2.15,-0.55 -3.44,-1.02l-8.08 -2.94 0.4 -0.93c0.39,0.1 0.68,0.15 0.85,0.15 0.34,0 0.6,-0.07 0.78,-0.21 0.17,-0.13 0.31,-0.34 0.41,-0.62l3.93 -10.76c0.1,-0.26 0.13,-0.49 0.1,-0.7 -0.02,-0.2 -0.18,-0.43 -0.48,-0.69 -0.22,-0.18 -0.48,-0.37 -0.79,-0.55l0.42 -0.96c3.57,1.3 7.12,2.58 10.73,3.75 1.14,0.37 2.31,0.91 2.82,1.85 1.8,3.34 -3.49,4.21 -4.84,4.19 0.68,1.03 1.67,1.36 2.44,2.33 0.99,1.24 1.55,2.99 0.86,4.89z"/>
    <path class="fil6" d="M149.89 52.6c0.28,-1.11 0.82,-2.16 1.62,-3.12 0.78,-0.97 1.71,-1.7 2.75,-2.21 1.06,-0.5 2.17,-0.78 3.35,-0.82 1.16,-0.04 2.34,0.17 3.54,0.62 1.21,0.45 2.36,1.12 3.43,2 0.78,0.63 1.42,1.3 1.92,1.99l1.12 0.35 0.48 0.33 -2.53 6.27 -0.75 -0.63c0.53,-3.54 0.84,-4.35 -1.38,-6.17 -2.52,-2.07 -5.55,-1.26 -7.45,1.13 -2.08,2.63 -2.67,6.8 -0.21,8.7 0.94,0.73 1.63,1.59 2.71,1.74 1.08,0.14 2.62,0.02 3.76,-0.65l1.03 0.74c-0.71,0.28 -3.71,2.87 -4.41,2.97 -0.47,-0.46 -0.92,-0.72 -1.2,-0.79 -4.62,-1.14 -9.78,-7.44 -7.78,-12.45z"/>
    <path class="fil6" d="M172.62 80.4l-5.02 -5.55 0.7 -0.73c0.23,0.08 0.66,0.33 0.95,0.5 1.06,-1.44 2.46,-3.74 2.81,-5.2 0.1,-0.4 0.12,-0.81 0.08,-1.22 -0.1,-1.2 0,-1.91 -1.22,-1.74l-4.13 3.64c-0.18,0.16 -0.32,0.36 -0.39,0.58 -0.07,0.23 -0.05,0.49 0.07,0.79 0.03,0.09 0.15,0.38 0.28,0.61l-0.74 0.73 -5.06 -5.8 0.69 -0.65c0.3,0.28 0.54,0.47 0.71,0.57 0.27,0.16 0.52,0.23 0.75,0.19 0.23,-0.05 0.44,-0.16 0.64,-0.33l8.45 -7.44c0.19,-0.18 0.32,-0.36 0.39,-0.56 0.06,-0.2 0.03,-0.47 -0.08,-0.8 -0.09,-0.25 -0.24,-0.55 -0.44,-0.9 -0.2,-0.35 -0.36,-0.6 -0.47,-0.74l0.66 -0.58 6.43 7.3 -0.66 0.58c-0.18,-0.19 -0.42,-0.4 -0.7,-0.63 -0.29,-0.24 -0.51,-0.41 -0.68,-0.52 -0.29,-0.18 -0.55,-0.24 -0.78,-0.18 -0.23,0.06 -0.43,0.17 -0.61,0.33l-2.51 2.21 6.37 0.68 -0.34 -1.13 0.69 -0.63 4.79 4.86c-0.29,-0.04 -0.69,0.26 -0.98,0.42 -1.73,-0.34 -4.7,-1.81 -6.6,-1.65l0.08 0.56c0.88,3 -2.28,6.62 -3.22,9.85 -0.2,0.51 -0.27,0.92 -0.22,1.21 0.05,0.29 0.11,0.51 0.2,0.64l-0.89 0.73z"/>
    <path class="fil6" d="M180.97 96.33l-3.07 -5.89 0.85 -0.47c0.24,0.23 0.7,0.59 0.92,0.61 0.22,0.03 0.45,-0.03 0.71,-0.15l8.11 -4.04 -7.85 -2.41c-0.46,0.23 -3.02,1.56 -3.11,1.74 -0.1,0.17 -0.14,0.43 -0.11,0.77 0.01,0.11 0.04,0.27 0.09,0.45l-0.97 0.46 -3.09 -6.22c0.14,-0.1 0.8,-0.56 0.94,-0.37 0.1,0.14 0.19,0.26 0.27,0.33 0.22,0.23 0.45,0.36 0.68,0.38 0.23,0.01 0.47,-0.04 0.71,-0.16l10.07 -5.01c0.24,-0.12 0.41,-0.26 0.52,-0.44 0.12,-0.17 0.16,-0.44 0.13,-0.79 -0.01,-0.2 -0.05,-0.43 -0.12,-0.7l0.97 -0.47 3.09 6.22 -0.97 0.51c-0.06,-0.08 -0.11,-0.15 -0.16,-0.2 -0.24,-0.25 -0.47,-0.38 -0.71,-0.38 -0.24,0 -0.46,0.06 -0.68,0.16l-5.25 2.61 7.63 2.52c0.35,-0.17 0.37,-0.25 0.46,-0.43 0.09,-0.19 0.12,-0.44 0.1,-0.75 -0.01,-0.12 -0.12,-0.47 -0.18,-0.6l1.07 -0.45 3.08 6.09 -0.99 0.59c-0.15,-0.37 -0.66,-0.67 -0.89,-0.67 -0.24,-0.01 -0.47,0.05 -0.68,0.15l-10.09 5.02c-0.24,0.12 -0.43,0.27 -0.54,0.45 -0.12,0.18 -0.06,0.61 -0.03,0.95l-0.91 0.59z"/>
    <path class="fil6" d="M186.06 114.78l-1.81 -6.39 0.94 -0.29c0.18,0.27 0.56,0.71 0.77,0.78 0.21,0.07 0.45,0.07 0.72,-0.01l8.77 -2.29 -7.2 -3.96c-0.5,0.13 -3.27,0.91 -3.4,1.06 -0.13,0.15 -0.22,0.4 -0.26,0.73 -0.02,0.12 -0.02,0.28 -0.01,0.47l-1.03 0.25 -1.77 -6.72c0.16,-0.07 0.9,-0.39 1,-0.17 0.07,0.16 0.13,0.29 0.19,0.38 0.18,0.27 0.37,0.44 0.59,0.5 0.23,0.07 0.47,0.07 0.73,0l10.88 -2.86c0.26,-0.06 0.45,-0.17 0.6,-0.32 0.15,-0.15 0.24,-0.4 0.29,-0.75 0.03,-0.2 0.03,-0.43 0.03,-0.71l1.04 -0.26 1.76 6.72 -1.05 0.3c-0.05,-0.09 -0.09,-0.17 -0.13,-0.23 -0.17,-0.3 -0.38,-0.47 -0.61,-0.51 -0.23,-0.05 -0.47,-0.05 -0.7,0.01l-5.67 1.49 6.96 4.02c0.38,-0.1 0.41,-0.17 0.53,-0.33 0.13,-0.16 0.21,-0.4 0.25,-0.72 0.02,-0.11 -0.02,-0.48 -0.05,-0.62l1.14 -0.22 1.78 6.59 -1.1 0.38c-0.07,-0.39 -0.5,-0.79 -0.73,-0.84 -0.23,-0.06 -0.46,-0.05 -0.7,0.01l-10.9 2.86c-0.26,0.07 -0.47,0.18 -0.62,0.33 -0.15,0.15 -0.18,0.58 -0.22,0.93l-1.01 0.39zm17.36 -15.71c0.18,-0.68 0.06,-1.46 -0.87,-0.39 -1.56,2.87 -1.45,4.79 1.6,6.44 1.08,0.46 1.12,-0.27 0.72,-0.66 -1.59,-1.37 -2.3,-3.08 -1.45,-5.39z"/>
   </g>
   <path class="fil7" d="M35.52 185.46l0 21.73c-0.21,0.74 -0.51,1.15 -0.94,1.18l0.01 0.89 3.5 0 0 -0.73c-0.52,-0.22 -0.88,-0.62 -0.94,-1.33l0 -17.9 2.92 13.52 3.24 -13.1 0 17.42 -0.74 1.3 0 0.62 4.74 0 0 -0.71 -0.72 -1.24 0 -20.45 0.69 -0.9 0 -0.79c-1.64,-0.39 -3.31,-0.6 -4.98,-0.66l-0.03 0.91 0.45 0.38 -0.04 2.04 -1.71 6.17 -1.33 -6.74 0 -1.69 0.51 -0.41 0 -0.92c-1.5,-0.11 -3.41,-0.23 -5.53,-0.19l-0.04 0.86 0.94 0.74z"/>
   <path class="fil7" d="M59.49 187.4c-2.69,-0.75 -5,-1.29 -7.45,-1.71 -3.82,-0.77 -4.02,5.37 -0.56,9.62 -1.65,3.97 -2.74,8.46 -3.25,12.85l-0.61 0.16 0 0.68 5.27 0 0 -0.5c-0.56,-0.08 -0.86,-0.45 -0.85,-1.17 0.36,-3.12 1.24,-6.24 2.26,-8.93l0.94 0.67 0 8.3c-0.14,0.6 -0.41,0.94 -0.79,1.02l0 0.63 4.87 0 0 -0.54c-0.46,-0.16 -0.78,-0.42 -0.79,-0.9l0 -18.65c0.11,-0.57 0.43,-0.86 0.96,-0.87l0 -0.66zm-4.23 8.99l0 -7.58c-1.45,-0.82 -2.53,-1.01 -2.97,0.91 -0.22,3.8 1.2,5.46 2.97,6.67z"/>
   <path class="fil7" d="M69.85 189.54c0.34,2.64 0.68,5.29 1.02,7.93 -0.24,0.07 -0.49,0.14 -0.73,0.2 -1,-5.61 -2.91,-6.9 -3.93,-6.54 -3.57,1.29 -2.91,9.1 -2.15,11.91 1.08,4.03 3.91,6.52 6.78,0.96 0.15,0.01 0.29,0.02 0.43,0.03 -0.4,1.89 -0.72,3.99 -1.13,5.89 -0.23,-0.05 -0.66,-0.1 -0.89,-0.15 -0.18,-0.03 -0.64,-0.09 -0.81,-0.13 -4.99,0.97 -8.53,-4.17 -8.34,-12.51 0.38,-5.64 1.85,-11.3 8.24,-7.39 0.38,0.19 0.61,0 0.93,-0.2 0.15,-0.05 0.37,-0.04 0.58,0z"/>
   <path class="fil7" d="M77.1 191.58c3.42,-0.37 6.45,3.44 6.77,8.51 0.32,5.07 -2.2,9.48 -5.62,9.85 -3.42,0.37 -6.45,-3.44 -6.77,-8.51 -0.32,-5.07 2.2,-9.48 5.62,-9.85zm0.14 2.35c1.49,-0.24 2.95,2.65 3.27,6.47 0.32,3.82 -0.63,7.11 -2.12,7.35 -1.49,0.25 -2.95,-2.65 -3.27,-6.47 -0.31,-3.81 0.64,-7.11 2.12,-7.35z"/>
   <path class="fil6" d="M96.74 209.8l-5.31 0.09 -0.06 -0.86c0.15,-0.11 0.49,-0.24 0.72,-0.34 -0.28,-1.49 -0.85,-3.69 -1.46,-4.74 -0.17,-0.3 -0.37,-0.54 -0.61,-0.75 -0.69,-0.61 -1.02,-1.07 -1.5,-0.19l0 4.71c0,0.21 0.05,0.41 0.13,0.58 0.09,0.17 0.24,0.31 0.45,0.4 0.07,0.03 0.27,0.12 0.45,0.17l0.05 0.89 -5.46 -0.03 -0.02 -0.82c0.29,-0.03 0.5,-0.07 0.63,-0.13 0.22,-0.08 0.37,-0.21 0.45,-0.38 0.09,-0.17 0.13,-0.37 0.13,-0.6l-0.01 -11.84c0,-0.56 -0.32,-0.88 -0.72,-1.06l-0.02 -0.98 5.02 1.6 0 0.74c-0.6,0.05 -1.08,0.61 -1.08,1.8l0 2.86 3.35 -3.7 -0.86 -0.51 -0.01 -0.81 4.24 1.23c-0.17,0.17 -0.15,0.32 -0.2,0.59 -1.18,0.21 -2.75,0.72 -3.56,2.28l0.34 0.27c2.01,1.13 2.35,4.95 3.39,7.59 0.18,0.41 0.95,0.59 1.13,0.72 0.18,0.14 0.32,0.21 0.43,0.23l-0.03 0.99z"/>
   <path class="fil7" d="M102.19 197.93c3.33,0.04 6.04,2.81 6.06,6.17 0.01,3.36 -2.67,6.05 -6,6.01 -3.33,-0.05 -6.05,-2.81 -6.06,-6.17 -0.02,-3.36 2.67,-6.05 6,-6.01zm0 1.56c1.45,-0.04 2.7,1.99 2.79,4.53 0.09,2.54 -1.02,4.63 -2.48,4.66 -1.45,0.04 -2.7,-1.99 -2.78,-4.53 -0.09,-2.54 1.02,-4.63 2.47,-4.66z"/>
   <path class="fil6" d="M120.61 209.95l-4.51 0.08 -0.03 -0.63c0.21,-0.07 0.57,-0.23 0.65,-0.35 0.08,-0.11 0.12,-0.26 0.12,-0.44l0.01 -4.68 -3.74 -0.01c0,0.33 -0.07,4.87 0.01,4.97 0.08,0.11 0.22,0.2 0.43,0.28 0.08,0.03 0.18,0.05 0.31,0.08l-0.02 0.68 -4.71 -0.01c-0.02,-0.11 -0.1,-0.62 0.06,-0.64 0.12,-0.02 0.21,-0.04 0.29,-0.06 0.2,-0.06 0.35,-0.15 0.43,-0.28 0.08,-0.13 0.12,-0.28 0.12,-0.45l0.02 -7.17c0,-0.17 -0.04,-0.31 -0.11,-0.43 -0.07,-0.11 -0.22,-0.21 -0.44,-0.3 -0.13,-0.05 -0.28,-0.09 -0.46,-0.13l0.01 -0.68 4.71 0 0.01 0.7c-0.06,0.02 -0.12,0.03 -0.17,0.04 -0.21,0.06 -0.39,0.2 -0.48,0.34l0 1.68 3.76 0 0 -1.19c0,-0.25 -0.03,-0.28 -0.12,-0.38 -0.08,-0.1 -0.23,-0.19 -0.43,-0.27 -0.07,-0.03 -0.32,-0.07 -0.41,-0.07l0.05 -0.74 4.63 -0.02 0.05 0.74c-0.26,-0.03 -0.6,0.18 -0.67,0.31 -0.08,0.13 -0.11,0.28 -0.12,0.43l-0.02 7.19c0,0.17 0.04,0.32 0.11,0.44 0.08,0.12 0.36,0.2 0.57,0.28l0.09 0.69z"/>
   <path class="fil6" d="M122.18 205.95c-0.21,-0.63 -0.25,-1.31 -0.13,-2.01 0.12,-0.71 0.38,-1.34 0.79,-1.9 0.41,-0.55 0.93,-1.01 1.56,-1.38 0.62,-0.35 1.33,-0.6 2.14,-0.73 0.81,-0.13 1.65,-0.14 2.52,-0.02 0.63,0.08 1.2,0.22 1.7,0.42l0.72 -0.16 0.38 0.02 0.65 3.82 -0.61 -0.08c-0.87,-1.9 -0.96,-2.39 -2.76,-2.64 -2.05,-0.27 -3.45,1.01 -3.71,2.74 -0.28,1.91 0.76,4.13 2.71,4.34 0.76,0.09 1.41,0.31 2.05,0.06 0.64,-0.24 1.44,-0.75 1.85,-1.42l0.8 0.07c-0.29,0.34 -1.1,2.5 -1.44,2.75 -0.41,-0.09 -0.74,-0.08 -0.92,-0.04 -2.9,0.79 -7.76,-0.8 -8.3,-3.84z"/>
   <path class="fil6" d="M143.21 201.26l-0.54 -0.06c-0.24,-0.58 -1.45,-1.49 -2.25,-1.53 -0.45,-0.09 -2.56,0.68 -2.65,0.75l0.1 2.38c0.48,0 2.08,-0.43 2.35,-1.01 0.13,-0.28 0.21,-0.54 0.25,-0.75l0.65 0 0.41 3.99 -0.8 0.18c-0.04,-0.3 -0.69,-0.98 -0.9,-1.2 -0.19,-0.17 -0.41,-0.3 -0.66,-0.36 -0.22,-0.06 -0.95,-0.01 -1.3,-0.01l0.02 4.37c0,0.8 0.47,0.52 1.12,0.55 1.46,0.07 3.29,-1.63 4.13,-2.84 0.36,-0.54 0.91,-0.13 0.88,0l-1.77 4.24 -9.34 0.14 0 -0.58c0.15,-0.01 0.37,-0.03 0.64,-0.06 0.27,-0.03 0.46,-0.06 0.57,-0.1 0.21,-0.08 0.36,-0.18 0.43,-0.31 0.07,-0.12 0.11,-0.27 0.11,-0.46l0 -7.47c0,-0.18 -0.03,-0.32 -0.09,-0.44 -0.06,-0.12 -0.21,-0.22 -0.45,-0.32 -0.15,-0.06 -0.35,-0.11 -0.62,-0.16 -0.26,-0.05 -0.46,-0.08 -0.59,-0.1l0 -0.58 9.38 -1.45 0.92 3.19z"/>
   <path class="fil6" d="M149.4 197.82l-0.75 0.21 -0.02 3.87c1.08,-0.28 3.09,-1.38 2.85,-3.22 -0.11,-0.82 -0.85,-1.29 -2.08,-0.86zm-0.76 5.86l0.01 4.74c0,0.19 0.04,0.35 0.12,0.46 0.08,0.12 0.24,0.19 0.47,0.22 0.12,0 0.31,0 0.58,-0.03l-0.07 0.73 -5.33 0.01 0.07 -0.73c0.19,-0.07 0.32,-0.14 0.41,-0.19 0.23,-0.15 0.38,-0.3 0.46,-0.44 0.07,-0.14 0.11,-0.32 0.11,-0.54l0.03 -8.76c0,-0.19 -0.04,-0.34 -0.11,-0.45 -0.07,-0.11 -0.23,-0.18 -0.47,-0.21 -0.14,-0.01 -0.29,-0.02 -0.49,0l0 -0.76 6.22 -1.69c2.89,-0.79 3.89,-0.13 4.15,0.76 0.37,1.23 -0.65,3.5 -2.64,5.14 -1.04,0.86 -2.5,1.32 -3.52,1.74z"/>
   <path class="fil6" d="M161.15 200.15c-0.65,0.42 -1.12,0.92 -1.87,1.27l0 5.58c0.25,1 2.14,0.81 2.8,0.45 1.09,-0.6 1.34,-2.94 0.92,-4.75 -0.32,-1.4 -1.09,-2.4 -1.85,-2.55zm0.97 -5c-0.38,-0.41 -0.95,-0.54 -1.72,-0.4 -0.37,0.06 -0.7,0.2 -1.12,0.4l0 4.18c0.71,-0.51 3.92,-2.62 2.84,-4.18zm4.4 8.56c-0.02,2.88 -1.24,5.98 -3.63,6l-8.04 0 0.03 -0.95c0.27,-0.1 0.46,-0.18 0.57,-0.26 0.21,-0.14 0.36,-0.31 0.44,-0.5 0.07,-0.19 0.11,-0.42 0.11,-0.71l0 -10.74c0,-0.26 -0.03,-0.47 -0.09,-0.63 -0.06,-0.16 -0.22,-0.28 -0.46,-0.37 -0.18,-0.06 -0.22,-0.08 -0.46,-0.1l0.02 -0.71c2.48,-0.58 5.12,-1.55 7.68,-2.04 0.8,-0.19 1.65,-0.24 2.19,0.33 1.89,2.02 -1.47,5.27 -2.32,5.85 1.42,0.77 3.94,1.42 3.96,4.83z"/>
   <path class="fil6" d="M178.52 209.58l-4.51 0 -0.02 -0.98c0.21,-0.13 0.56,-0.42 0.64,-0.63 0.09,-0.21 0.12,-0.48 0.13,-0.8l0.01 -10.72 -3.57 0.83c0,0.59 -0.07,10.2 0.01,10.39 0.08,0.19 0.22,0.36 0.44,0.51 0.07,0.05 0.17,0.09 0.3,0.14l-0.02 1.22 -4.7 -0.01c-0.02,-0.2 -0.1,-1.12 0.05,-1.16 0.12,-0.03 0.22,-0.06 0.29,-0.1 0.2,-0.11 0.35,-0.28 0.43,-0.51 0.08,-0.23 0.12,-0.5 0.12,-0.8l0.02 -12.91c0,-0.31 -0.03,-0.56 -0.1,-0.76 -0.08,-0.21 -0.22,-0.39 -0.45,-0.55 -0.12,-0.08 -0.28,-0.16 -0.46,-0.23l0.01 -1.23 4.72 -1.37 0.01 1.19c-0.07,0.02 -0.13,0.04 -0.18,0.07 -0.21,0.1 -0.39,0.36 -0.47,0.61l-0.01 3.01 3.59 -0.84 0 -2.3c0,-0.45 -0.04,-0.5 -0.13,-0.69 -0.08,-0.18 -0.23,-0.35 -0.43,-0.48 -0.07,-0.06 -0.26,-0.12 -0.36,-0.12l-0.01 -0.93 4.7 -1.05 0 1.39c-0.27,-0.04 -0.6,0.32 -0.68,0.56 -0.08,0.24 -0.11,0.5 -0.11,0.78l-0.02 15.94c0,0.31 0.03,0.57 0.11,0.78 0.07,0.22 0.35,0.37 0.57,0.52l0.08 1.23z"/>
   <path class="fil6" d="M183.76 207.64l0.01 -11.1c3.4,0.83 4.16,11.1 -0.01,11.1zm1.06 -13.42l-1.04 -0.27 0.05 -3.79c0.01,-0.85 0.23,-1.28 0.59,-1.53 0.12,-0.08 0.32,-0.16 0.59,-0.25l-0.07 -1.32 -5.39 0.97 0.07 1.31c0.19,0.05 0.32,0.1 0.41,0.16 0.23,0.15 0.38,0.34 0.46,0.57 0.07,0.22 0.1,0.54 0.1,0.94l-0.01 15.4c0,0.35 -0.04,0.64 -0.11,0.89 -0.08,0.25 -0.23,0.46 -0.47,0.62 -0.14,0.1 -0.31,0.19 -0.52,0.26l0.02 1.4 6.23 -0.02c6.03,-1.07 5.16,-12.91 -0.91,-15.34z"/>
   <path class="fil7" d="M194.71 194.83c0,-2.75 0,-5.5 0.01,-8.23 0.09,-0.25 0.27,-0.51 0.48,-0.62 0.05,-0.02 0.11,-0.04 0.17,-0.07l-0.01 -1.18 -4.72 0.77 -0.01 1.23c0.18,0.08 0.34,0.15 0.46,0.24 0.23,0.15 0.37,0.34 0.45,0.54 0.07,0.21 0.1,0.46 0.1,0.76l-0.02 18.72c0,0.31 -0.04,0.57 -0.12,0.8 -0.08,0.23 -0.23,0.4 -0.43,0.51 -0.07,0.04 -0.17,0.07 -0.29,0.11 -0.16,0.04 -0.07,0.96 -0.06,1.15l4.71 0.01 0.02 -1.22c-0.13,-0.04 -0.23,-0.09 -0.3,-0.14 -0.22,-0.15 -0.36,-0.32 -0.44,-0.5 -0.08,-0.19 -0.01,-9.81 -0.01,-10.4l0.01 0 0 -2.48z"/>
   <path class="fil6" d="M208 209.54l-4.55 0.01 -0.03 -1.33c0.21,-0.18 0.56,-0.58 0.64,-0.87 0.08,-0.29 0.12,-0.66 0.12,-1.11l-0.01 -14.86 -3.8 9.96c0,0.81 0.03,5.38 0.11,5.64 0.08,0.26 0.22,0.49 0.44,0.69 0.07,0.06 0.17,0.13 0.3,0.19l-0.02 1.69 -4.68 0.02c-0.01,-0.27 -0.1,-1.54 0.06,-1.59 0.12,-0.05 0.21,-0.1 0.28,-0.15 0.21,-0.16 0.35,-0.39 0.43,-0.71 0.08,-0.31 0.12,-0.68 0.12,-1.1l-0.01 -17.81c-0.01,-0.42 -0.04,-0.77 -0.11,-1.05 -0.08,-0.29 -0.22,-0.53 -0.44,-0.74 -0.13,-0.12 -0.28,-0.23 -0.46,-0.33l0 -1.49 4.72 -0.44 0.02 1.74c-0.07,0.03 -0.13,0.06 -0.17,0.09 -0.23,0.16 -0.37,0.4 -0.44,0.74 -0.07,0.34 -0.11,0.7 -0.11,1.07l-0.03 9.5 3.81 -9.58c0,-0.61 0.05,-1.21 -0.21,-1.83 -0.18,-0.42 -0.61,-0.52 -0.7,-0.52l-0.01 -1.26 4.61 -0.16 0 1.68c-0.27,-0.04 -0.6,0.46 -0.67,0.79 -0.08,0.33 -0.05,0.84 -0.05,1.22l0.01 18.41c0,0.43 0.03,0.79 0.11,1.08 0.07,0.3 0.51,0.93 0.72,1.13l0 1.28zm-7.58 -31.39c-0.41,-0.55 -0.94,-0.67 -0.4,1.18 1.61,3.53 2.88,4.13 4.47,0.12 0.49,-1.48 0.02,-1.83 -0.3,-1.38 -1.17,1.89 -2.41,2.3 -3.77,0.08z"/>
   <path class="fil6" d="M50.09 223.6l-5.57 0.06 -0.06 -0.66c0.16,-0.08 0.51,-0.18 0.75,-0.25 -0.28,-1.15 -0.88,-2.84 -1.52,-3.65 -0.18,-0.22 -0.39,-0.41 -0.64,-0.57 -0.72,-0.47 -1.07,-0.82 -1.57,-0.15l0 3.61c0,0.17 0.04,0.32 0.13,0.45 0.1,0.13 0.25,0.24 0.47,0.31 0.07,0.02 0.29,0.09 0.48,0.13l0.05 0.68 -5.72 -0.03 -0.03 -0.62c0.31,-0.03 0.53,-0.06 0.67,-0.1 0.22,-0.06 0.38,-0.16 0.47,-0.29 0.09,-0.13 0.13,-0.28 0.13,-0.46l0 -7.39c0,-0.18 -0.04,-0.32 -0.12,-0.44 -0.08,-0.12 -0.24,-0.22 -0.48,-0.31 -0.19,-0.06 -0.38,-0.1 -0.64,-0.17l0 -0.67 6.51 0 0 0.57c-0.19,0.01 -0.43,0.04 -0.7,0.08 -0.27,0.04 -0.47,0.08 -0.62,0.11 -0.24,0.06 -0.4,0.16 -0.48,0.3 -0.08,0.15 -0.12,0.29 -0.12,0.45l0 2.19 3.51 -2.84 -0.79 -0.32 0 -0.54 4.96 0c-0.02,0.22 -0.05,0.38 -0.1,0.59 -1.04,0.71 -3.38,1.28 -4.23,2.29l0.36 0.2c2.11,0.87 2.57,4 3.91,5.87 0.19,0.32 0.38,0.53 0.57,0.63 0.18,0.11 0.34,0.17 0.45,0.18l-0.03 0.76z"/>
   <path class="fil7" d="M66.13 213.12c3.59,0.13 6.39,2.62 6.25,5.55 -0.14,2.94 -3.16,5.22 -6.75,5.09 -3.59,-0.13 -6.39,-2.62 -6.25,-5.55 0.14,-2.94 3.16,-5.22 6.75,-5.09zm-0.06 1.36c1.56,0.01 2.82,1.82 2.79,4.03 -0.02,2.22 -1.31,4.02 -2.88,4.01 -1.57,-0.01 -2.82,-1.82 -2.8,-4.04 0.03,-2.22 1.32,-4.01 2.89,-4z"/>
   <path class="fil7" d="M83.34 213.83l0 9.06c-0.22,0.31 -0.55,0.48 -0.99,0.49l0 0.38 3.7 0 0 -0.31c-0.55,-0.09 -0.93,-0.25 -0.99,-0.55l0 -7.47 3.08 5.64 3.42 -5.64 0.01 7.44 -0.79 0.54 0 0.26 5 0 0 -0.29 -0.76 -0.52 0.02 -8.79 0.74 -0.38 0 -0.54 -5.29 0.03 -0.03 0.37 0.48 0.16 -0.05 0.85 -1.8 2.75 -1.41 -2.81 0.01 -0.86 0.55 -0.09 -0.01 -0.38 -5.84 -0.01 -0.04 0.36 0.99 0.31z"/>
   <path class="fil6" d="M115.82 222.99c-1.13,0.46 -2.67,0.6 -4.22,0.65 -2.46,0.08 -5,0.03 -5.72,0.03l0 -0.58c0.16,-0.01 -0.03,-0.03 0.23,-0.06 0.27,-0.02 0.28,-0.06 0.38,-0.1 0.2,-0.07 0.34,-0.16 0.42,-0.29 0.08,-0.12 0.12,-0.28 0.12,-0.47l0 -7.4c0,-0.17 -0.04,-0.31 -0.11,-0.44 -0.07,-0.12 -0.21,-0.23 -0.43,-0.31 -0.15,-0.06 -0.18,-0.12 -0.44,-0.17 -0.25,-0.04 -0.15,-0.03 -0.29,-0.05l0.09 -0.71 9.88 0 1.03 3.16 -0.64 0c-0.25,-0.57 -0.67,-0.93 -1.04,-1.37 -0.37,-0.44 -0.7,-0.69 -0.99,-0.72 -1.08,-0.19 -2.83,-0.08 -3.91,0.03l0 2.21c1.3,-0.26 3.58,0.1 4.84,0.68 0.5,0.23 1.24,0.5 1.67,0.91 1.57,1.54 1.39,4.09 -0.87,5zm-1.69 -2.73c-0.03,-2.3 -2.57,-2.8 -3.95,-2.72l0 4.8c0.85,0.36 3.98,-0.19 3.95,-2.08z"/>
   <path class="fil6" d="M140.21 223.67l-4.91 0.09 -0.03 -0.64c0.23,-0.07 0.62,-0.24 0.71,-0.36 0.08,-0.12 0.13,-0.27 0.13,-0.46l-0.01 -5.94 -4.17 3.91c0,0.33 0.04,2.23 0.12,2.33 0.09,0.11 0.24,0.21 0.48,0.29 0.08,0.03 0.19,0.05 0.33,0.08l-0.02 0.7 -5.12 0c-0.02,-0.11 -0.11,-0.63 0.06,-0.66 0.13,-0.02 0.23,-0.04 0.31,-0.06 0.22,-0.06 0.38,-0.16 0.47,-0.29 0.08,-0.13 0.13,-0.28 0.13,-0.46l-0.01 -7.38c0,-0.17 -0.04,-0.32 -0.12,-0.44 -0.08,-0.11 -0.24,-0.22 -0.48,-0.3 -0.14,-0.05 -0.3,-0.1 -0.5,-0.14l0.01 -0.7 5.13 -0.01 0.02 0.72c-0.08,0.02 -0.14,0.03 -0.19,0.04 -0.25,0.07 -0.41,0.17 -0.48,0.31 -0.08,0.14 -0.12,0.29 -0.12,0.44l0 3.85 4.17 -3.75c0,-0.26 -0.04,-0.29 -0.13,-0.39 -0.09,-0.11 -0.25,-0.2 -0.47,-0.28 -0.08,-0.03 -0.35,-0.07 -0.45,-0.07l0.05 -0.76 5.04 -0.04 0.07 0.76c-0.29,-0.02 -0.66,0.19 -0.74,0.33 -0.08,0.13 -0.12,0.28 -0.12,0.44l0.01 7.4c0,0.17 0.03,0.32 0.12,0.44 0.08,0.13 0.38,0.21 0.62,0.3l0.09 0.7z"/>
   <path class="fil6" d="M162.56 223.66l-4.82 0.01 0.01 -0.57c0.23,-0.08 0.61,-0.24 0.7,-0.36 0.09,-0.12 0.13,-0.27 0.13,-0.46l0 -5.06 -4.05 -0.01c0,0.33 -0.06,5.26 0.02,5.36 0.09,0.11 0.24,0.21 0.47,0.29 0.08,0.03 0.19,0.06 0.33,0.08l-0.02 0.7 -5.09 -0.01c-0.02,-0.11 -0.11,-0.63 0.06,-0.66 0.13,-0.01 0.24,-0.04 0.31,-0.06 0.23,-0.06 0.38,-0.16 0.47,-0.29 0.09,-0.13 0.13,-0.28 0.13,-0.45l0.02 -7.35c0,-0.17 -0.04,-0.31 -0.11,-0.43 -0.08,-0.11 -0.24,-0.22 -0.48,-0.31 -0.14,-0.04 -0.3,-0.09 -0.5,-0.13l0.01 -0.7 5.1 0.01 0.01 0.71c-0.07,0.02 -0.13,0.03 -0.19,0.04 -0.22,0.06 -0.42,0.21 -0.51,0.35l-0.01 1.72 4.07 0 0 -1.22c0.01,-0.25 -0.04,-0.29 -0.13,-0.39 -0.09,-0.11 -0.25,-0.2 -0.46,-0.28 -0.08,-0.03 -0.35,-0.06 -0.45,-0.07l0.06 -0.75 5 -0.03 0.06 0.76c-0.29,-0.02 -0.65,0.18 -0.73,0.32 -0.08,0.13 -0.12,0.28 -0.12,0.44l-0.02 7.36c0,0.17 0.03,0.32 0.12,0.44 0.08,0.12 0.38,0.21 0.61,0.29l0 0.71z"/>
   <path class="fil6" d="M186.16 223.7l-6.52 0 0 -0.62c0.3,-0.02 0.66,-0.07 1.07,-0.15 0.41,-0.08 0.61,-0.18 0.61,-0.3 0,-0.04 0,-0.09 -0.01,-0.14 -0.01,-0.06 -0.02,-0.13 -0.07,-0.21 -1.21,-2.01 -2.81,-3.04 -4.69,-3.42 -0.09,0.22 -0.67,1.57 -0.78,1.86 -0.12,0.29 -0.22,0.55 -0.3,0.77 -0.11,0.29 -0.17,0.5 -0.19,0.64 -0.02,0.13 -0.03,0.22 -0.03,0.27 0,0.17 0.14,0.31 0.41,0.43 0.27,0.12 0.73,0.2 1.36,0.25l0 0.62 -4.91 0 0 -0.62c0.19,0 0.4,-0.03 0.63,-0.08 0.13,-0.02 0.85,-0.69 0.95,-0.8 0.16,-0.19 0.29,-0.4 0.4,-0.66 0.65,-1.47 1.29,-2.83 1.95,-4.31 0.4,-0.91 1.08,-2.1 1.13,-3.21 0.01,-0.15 -0.4,-0.17 -0.39,-0.31l0.03 -0.57 4.9 0.01 -0.01 0.74c-1.14,0.27 1.98,6.24 2.81,8.04 0.07,0.16 0.16,0.3 0.28,0.43 0.32,0.37 0.17,0.52 0.8,0.65 0.21,0.04 0.4,0.07 0.57,0.07l0 0.62zm-6.29 -4.51l-1.75 -3.76 -1.23 2.65c1.02,0.03 2.02,0.36 2.98,1.11z"/>
   <path class="fil6" d="M205.73 216.21l-0.57 0c-0.65,-0.85 -0.89,-1.62 -1.67,-1.84 -0.16,-0.04 -0.36,-0.04 -0.59,-0.05 -0.23,-0.02 -0.43,-0.02 -0.6,-0.02l-0.35 0 0 7.79c0,0.18 0.03,0.34 0.1,0.47 0.06,0.14 0.19,0.24 0.38,0.33 0.11,0.04 0.29,0.08 0.53,0.13 0.24,0.05 0.44,0.08 0.61,0.1l0 0.58 -6.82 0 0 -0.58c0.14,-0.01 0.34,-0.03 0.6,-0.06 0.26,-0.03 0.44,-0.06 0.53,-0.1 0.19,-0.08 0.32,-0.19 0.39,-0.32 0.06,-0.13 0.09,-0.29 0.09,-0.47l0 -7.87c-0.49,0 -1.07,-0.08 -1.53,0.07 -0.78,0.26 -1.24,0.95 -1.68,1.84l-0.57 0 0.86 -3 9.25 0 1.04 3z"/>
  </g>
 </g>
</svg>
