<?xml version="1.0" encoding="UTF-8"?>
<!DOCTYPE svg PUBLIC "-//W3C//DTD SVG 1.1//EN" "http://www.w3.org/Graphics/SVG/1.1/DTD/svg11.dtd">
<!-- Creator: CorelDRAW 2018 (64-Bit) -->
<svg xmlns="http://www.w3.org/2000/svg" xml:space="preserve" width="200px" height="210px" version="1.1" style="shape-rendering:geometricPrecision; text-rendering:geometricPrecision; image-rendering:optimizeQuality; fill-rule:evenodd; clip-rule:evenodd"
viewBox="0 0 206.56 217.23"
 xmlns:xlink="http://www.w3.org/1999/xlink">
 <defs>
  <style type="text/css">
   <![CDATA[
    .str0 {stroke:#D00D03;stroke-width:0.09;stroke-miterlimit:22.9256}
    .fil0 {fill:#FEFEFE}
    .fil1 {fill:#2B2A29}
    .fil8 {fill:#D00D03}
    .fil7 {fill:#D00D03;fill-rule:nonzero}
    .fil6 {fill:url(#id0)}
    .fil3 {fill:url(#id1)}
    .fil5 {fill:url(#id2)}
    .fil4 {fill:url(#id3)}
    .fil2 {fill:url(#id4)}
   ]]>
  </style>
  <linearGradient id="id0" gradientUnits="userSpaceOnUse" x1="171.72" y1="147.85" x2="165.3" y2="126.46">
   <stop offset="0" style="stop-opacity:1; stop-color:#E95445"/>
   <stop offset="1" style="stop-opacity:1; stop-color:#F4B0AA"/>
  </linearGradient>
  <linearGradient id="id1" gradientUnits="userSpaceOnUse" x1="24.83" y1="100.04" x2="38.36" y2="115.43">
   <stop offset="0" style="stop-opacity:1; stop-color:#E42A2A"/>
   <stop offset="1" style="stop-opacity:1; stop-color:#F7CFCE"/>
  </linearGradient>
  <linearGradient id="id2" gradientUnits="userSpaceOnUse" x1="158.2" y1="127.17" x2="167.84" y2="105.96">
   <stop offset="0" style="stop-opacity:1; stop-color:#F5B2B6"/>
   <stop offset="0.490196" style="stop-opacity:1; stop-color:#FEFEFE"/>
   <stop offset="1" style="stop-opacity:1; stop-color:#F4B0AA"/>
  </linearGradient>
  <linearGradient id="id3" gradientUnits="userSpaceOnUse" x1="43.31" y1="137.43" x2="41.62" y2="114.26">
   <stop offset="0" style="stop-opacity:1; stop-color:#F5BAB0"/>
   <stop offset="1" style="stop-opacity:1; stop-color:#FEFEFE"/>
  </linearGradient>
  <radialGradient id="id4" gradientUnits="userSpaceOnUse" gradientTransform="matrix(-2.4203 -2.98053 2.97352 -2.42601 89 496)" cx="86.51" cy="69.56" r="65.98" fx="86.51" fy="69.56">
   <stop offset="0" style="stop-opacity:1; stop-color:#FEFEFE"/>
   <stop offset="1" style="stop-opacity:1; stop-color:#E31E24"/>
  </radialGradient>
 </defs>
 <g id="Layer_x0020_1">
  <metadata id="CorelCorpID_0Corel-Layer"/>
  <g id="_2024928919424">
   <path class="fil0" d="M103.28 0c57.04,0 103.28,60.19 103.28,134.45 0,31.22 -8.18,59.96 -21.9,82.78l-162.76 0c-13.72,-22.82 -21.9,-51.56 -21.9,-82.78 0,-74.26 46.24,-134.45 103.28,-134.45z"/>
   <g>
    <path class="fil1" d="M151.41 105.19c0,18.3 -6.84,34.66 -17.58,45.51 -0.41,3.43 -2.06,6.15 -4.7,8.31 15.31,-10.88 25.58,-30.91 25.58,-53.82 0,-6.44 -0.81,-12.64 -2.31,-18.49 -0.23,2.56 -0.91,4.98 -1.89,7.11 0.59,3.68 0.9,7.49 0.9,11.38zm-42.9 45.76c2.67,4.49 5.89,8.35 10.47,8.27 0.22,0.77 0.43,1.54 0.64,2.31 -5.08,-0.54 -8.97,-3.65 -11.28,-10.18 -0.28,-0.89 -0.15,-0.86 0.17,-0.4zm10.77 3.75c-0.85,-0.92 -0.69,-0.38 -0.26,0.81 1.72,4.81 2.77,7.29 3.98,8.89 2.97,3.91 6.37,0.46 6.62,-2.63 0.22,-1.51 -0.09,-1.56 -0.9,-0.17 -2.69,4.78 -6.1,-1.72 -9.44,-6.9zm15.73 -47.96c-0.32,-1.36 -0.09,-1.43 0.67,-0.21 0.96,2.27 1.4,4.48 1.74,6.67 2.94,3.22 1.39,9.13 -4.04,11.67 -8.43,8.01 -0.73,14.98 -1.17,23.7 -0.23,4.48 -2.31,7.73 -7.69,11.12 -0.55,-0.49 -1.09,-0.98 -1.64,-1.47 3.73,-2.24 6.41,-4.9 7.01,-8.39 0.3,-6.85 -3.71,-12.64 -2.93,-18.35 2.73,-10.5 11.76,-8.66 8.05,-24.74zm-24.19 19.61c-0.05,-0.1 2.86,0.89 2.86,0.89 -0.08,0.73 -1.14,1.02 -1.64,0.85 -0.5,-0.17 -1.4,-1.39 -1.22,-1.74zm-1.27 -0.25c-0.19,7.29 5.31,7.1 6.08,1.51l4.39 -0.34c0.9,0.11 0.87,-0.11 -0.06,-0.67l-14.24 -5.63c-1.2,-0.18 -0.9,0.3 -0.4,0.87 1.16,1.7 2.62,3.05 4.23,4.26zm-15.07 11.02c-2.62,-4.6 -5.99,-8.66 -6.69,-12.83 -0.57,-3.35 -0.05,-6.63 1.81,-9.82 0.14,-0.27 0.25,-0.52 -0.31,-0.17 -6.33,5.35 -6.56,12.59 4.75,23.39 0.79,0.5 0.79,0.16 0.44,-0.57zm7.36 12.08c-4.69,-12.9 -15.75,-14.23 -26.94,-6.51 -0.76,0.73 -0.51,0.89 0.45,0.65 14.3,-5.36 21.36,-1.28 25.8,6.23l0.69 -0.37zm14.59 12.78c-4.36,1.56 -8.97,2.39 -13.75,2.39 -26.9,0 -48.72,-26.5 -48.72,-59.18 0,-11.01 2.47,-21.32 6.79,-30.15 1.88,-5.22 4.78,-12.21 7.81,-17.02 -10.97,11.46 -17.9,28.34 -17.9,47.17 0,34.5 23.29,62.49 52.02,62.49 6.29,0 12.32,-1.34 17.9,-3.8 -0.28,-0.49 -0.53,-1 -0.79,-1.51 -1.2,0.02 -2.32,-0.11 -3.36,-0.39zm3.27 -77.2c-4.61,-7.85 -10.37,-14.74 -15.28,-20.97 -9.86,-12.52 -23.38,-17.34 -32.53,-6.71 -4.27,4.96 -7.87,12.15 -12.04,23.26 1.72,0.13 9.23,-16.71 12.04,-19.98 9.15,-10.63 21.97,-5.49 32.53,6.71 1.21,1.4 6.3,7.25 9.96,12.14 2.31,3.1 3.75,5.97 4.36,6.04l0.12 -0.06 0.84 -0.43zm-2.93 61.05c2.86,0.44 3.97,4.4 2.85,6.61 -0.5,0.7 -0.61,1.11 -0.71,-0.02 -0.09,-1.13 -0.2,-1.93 -0.88,-2.52 -0.26,-0.28 -0.53,-0.18 -0.61,-0.07 -0.55,0.74 -0.93,1.4 -1.52,1.44 -0.22,0.07 -0.63,-0.67 -1.17,-1.99 -0.28,-0.69 -0.22,-0.53 -0.54,0.08 -0.25,0.48 -0.16,1.78 -0.76,1.44 -0.52,-0.41 -1.1,-1.08 -0.66,-2.17 0.77,-1.88 1.99,-2.96 4,-2.8zm-14.09 -99.82c19.44,0 36.22,13.83 44.04,33.82 0.82,-0.78 1.61,-1.76 2.33,-3 -8.6,-20.26 -26.14,-34.13 -46.37,-34.13 -7.54,0 -14.71,1.93 -21.18,5.4 2.77,-0.36 5.35,-0.27 7.75,0.19 4.27,-1.49 8.77,-2.28 13.43,-2.28zm47.32 32.7c-0.46,12.22 -6.06,22.05 -14.02,20.16l-0.31 0.8c7.45,3.77 12.69,-3.3 14.67,-9.48 1.04,-3.23 1.15,-7.43 0.13,-12.79 -0.18,-0.45 -0.4,-0.75 -0.8,-0.03 -1.17,2.84 -3.46,4.84 -6.73,6.12 -2.88,1.13 -6.86,0.35 -10.83,1.77 0.22,0.17 0.43,0.35 0.63,0.54 0.27,0.25 0.52,0.51 0.75,0.78 6.11,-0.74 13.37,2.15 16.51,-7.87zm-32.23 10.93c3.62,-2.64 7.84,-3.58 11.21,-1.29 4.07,2.76 3.53,8.44 -0.87,16.29 17.09,-17.17 -5.91,-27.29 -11.6,-14.43 0.48,-0.15 0.92,-0.32 1.26,-0.57zm-8.05 1.06c1.01,3.88 -0.13,8.68 -4.13,14.7 1.42,2.66 3.8,3.39 9.16,-1.91 6.04,2.7 8.87,-1.23 10.24,-8.17 1.23,3.02 1.85,6.03 1.73,9.05 0.85,1.24 2.29,-3.28 2.17,-4.68 -0.56,-2.13 -1.32,-3.93 -3.31,-5.58 -0.19,-0.21 -0.65,-0.47 -1.14,0.3 -3.07,4.83 -5.53,8.3 -8.88,7.61 2.65,-3.04 1.96,-5.77 0.66,-8.89 -1.74,8.76 -4.98,12.5 -9.85,11.98 5.12,-3.77 9.02,-10.78 4.11,-14.59 -0.61,-0.24 -0.97,-0.27 -0.76,0.18zm-3.93 12.79c-11.73,2.06 -15.86,-3.18 -16.05,-10.16 -0.09,-3.06 0.18,-6.61 1.68,-10.53 1.19,9.05 5.8,13.77 17.57,9.77 1.09,-0.44 0.52,-1.83 -0.83,-1.78 -13.59,0.88 -15.47,-4.45 -14.93,-11.07l-1.1 -0.27c-3.91,5.04 -4.71,12.29 -4.07,17.15 0.65,4.87 4.63,13.06 16.89,8.16l0.84 -1.27z"/>
    <path class="fil2" d="M82.14 58.92c-13.19,-2.33 -14.12,21.51 -23.18,23.88 -0.68,0.12 -0.77,-2.4 -0.44,-2.65 -2.93,7.61 -4.56,16.09 -4.56,25.04 0,32.68 21.82,59.18 48.72,59.18 4.78,0 9.39,-0.83 13.75,-2.39 -4.44,-1.2 -7.43,-5.15 -9.3,-11.27 -0.38,-1.21 0.75,-2.31 1.68,-1.37 3.8,5.79 6.97,8.21 9.6,7.84 -0.35,-1.81 -0.59,-3.59 -1.58,-4.99l-1.57 -0.2c-0.22,0.9 -0.9,1.02 -1.78,0.77 -4.76,-1.31 -2.64,-8.54 2.41,-8.74 4.54,0.02 6.55,3.55 6.52,5.79 -0.02,1.54 -0.52,3.63 -2.21,4.92l1.35 1.74c3.6,-1.81 5.63,-4.14 6.06,-6.92 0.86,-5.6 -3.72,-12.25 -2.43,-19.65 1.73,-5.81 6.18,-8.07 8.3,-12.44 1.35,-2.77 1.61,-6.59 0.17,-11.98 -0.2,-1.09 1.25,-2.15 1.78,-1.12 2.04,3.14 2.81,5.7 3.07,8.03 5.33,5.01 1.5,12.75 -4.24,13.82 -7.83,6.1 0.32,13.02 -0.34,22.55 0.01,0.67 -0.02,1.32 -0.09,1.94 10.74,-10.85 17.58,-27.21 17.58,-45.51 0,-3.89 -0.31,-7.7 -0.9,-11.38 -6.23,9.64 -11.01,9.26 -15.45,6.47 -1.41,-1.61 -0.42,-1.98 0.77,-2.25 6.63,0.98 9.97,-5.45 12.39,-13.96 -3.47,4.2 -8.58,4.24 -13.93,3.68 2.77,8.65 -1.09,13.51 -5.54,18.02l-1.18 0.24c-1.55,-0.23 -2.15,-2.21 -2.42,-4.96 -1.64,3.73 -4.7,6.12 -9.92,4.3 -6.49,4.84 -9.49,3.66 -10.5,0.43 -20.64,8.1 -22.6,-17.25 -12.4,-27.62 0.33,-0.34 1.81,-1.54 1.81,-0.29 -0.33,5.08 0.68,9.46 6.45,11.32 2.96,0.61 5.77,0.62 8.56,0.5 3.6,-1.31 5.28,5.47 3.89,8.74 1.12,-1.78 1.81,-3.9 2.35,-6.12 0.45,-0.82 1.81,0.33 2.24,0.71 1.61,1.43 1.96,3.69 1.69,6.35 1.78,-1.01 4.31,-6.76 5.81,-6.26 1.8,0.58 2.97,1.84 3.95,3.31 1.52,-4.07 -0.99,-11.6 -10.63,-5.45 -2.41,1.03 -4.66,-0.1 -3.46,-2.31l2.52 -2.77c-10.85,-14.63 -22.37,-25.24 -35.37,-26.97zm22.94 60.38l15.48 6.03c2.45,1.13 1.9,3.12 -0.07,3.38 -1.51,0.02 -2.68,0.21 -4.19,0.24 -1.76,7.07 -8.69,3.35 -8.29,-2.32 -1.65,-1.49 -2.48,-2.32 -3.9,-4.22 -1.33,-1.65 -0.62,-3.84 0.97,-3.11zm-17.36 -5.3c3.38,-2.35 3.33,-0.17 2.62,1.41 -1.08,1.87 -1.43,4.26 -0.95,7.24 0.79,4.87 4.42,9.84 6.03,14.58 0.22,0.65 0.23,1.12 0.03,1.4 4.13,2.66 6.54,6.89 7.54,12.41 0.24,1.77 -0.23,2.01 -1.42,0.74 -4.47,-5.22 -6.38,-12 -27.23,-7.18 -1.49,0.31 -2.86,-0.71 -1.22,-2.08 4.74,-3.77 10.12,-6.68 18.63,-5.44 -8.93,-7.14 -11.19,-16.58 -4.03,-23.08zm-37.06 -8.81c0,-17.99 6.33,-34.2 16.45,-45.6 0.13,-0.14 0.25,-0.28 0.38,-0.41 0.29,-0.44 0.77,-0.74 1.07,-1.16 3.72,-5.28 7.6,-9.64 12.94,-9.92 6.47,-3.47 13.64,-5.4 21.18,-5.4 20.23,0 37.77,13.87 46.37,34.13 1.28,-1.72 1.59,-1.21 2.34,0.37 1.16,3.16 1.1,6.44 1.01,9.5 1.5,5.85 2.31,12.05 2.31,18.49 0,22.91 -10.27,42.94 -25.58,53.82 -1.02,0.84 -2.2,1.6 -3.52,2.28 1.01,1.07 2.22,0.22 3.58,-1.94 0.89,-0.99 1.22,-0.75 1.31,0.04l-0.17 3.04c16.5,-11.38 27.62,-32.76 27.62,-57.24 0,-36.43 -24.61,-65.98 -54.95,-65.98 -30.34,0 -54.95,29.55 -54.95,65.98 0,36.43 24.61,65.98 54.95,65.98 7.09,0 13.87,-1.62 20.09,-4.55l-0.15 -0.17c-1.09,-0.62 -1.78,-1.55 -2.36,-2.57 -5.58,2.46 -11.61,3.8 -17.9,3.8 -28.73,0 -52.02,-27.99 -52.02,-62.49zm40.69 -17.02c-1.13,9.64 2.41,15.35 14.26,14.09 1.78,-2.37 2.92,-5.41 3.36,-8.32 -10.81,3.53 -15.86,-0.17 -17.62,-5.77zm-2.04 -39.9c13.44,2.6 22.78,17.3 30.83,35.81 4.03,-2.17 7.64,-1.89 10.96,0.05 5.63,-2.01 13.58,-0.28 15.62,-4.3 -7.82,-19.99 -24.6,-33.82 -44.04,-33.82 -4.63,0 -9.12,0.79 -13.37,2.26z"/>
    <path class="fil1" d="M30.05 108.37l-12.15 -9.65c4.57,-1.72 9.02,-2.72 13.39,-3.11 4.75,-0.43 9.42,-0.13 14,0.77 0.03,-0.28 0.07,-0.56 0.1,-0.85 0.04,-0.28 0.07,-0.56 0.11,-0.84 -4.69,-0.91 -9.47,-1.21 -14.36,-0.77 -4.98,0.44 -10.05,1.65 -15.25,3.76l-1.34 0.55 1.14 0.91 12.61 10.01 -6.93 8.12 -0.86 1.01 1.28 0.36 11.86 3.28c-0.06,-0.31 -0.11,-0.62 -0.17,-0.93 -0.07,-0.31 -0.13,-0.62 -0.19,-0.93l-9.76 -2.7 6.63 -7.77 0.58 -0.67 -0.69 -0.55zm3.27 0.19c1.74,-1.44 5.53,-2.32 11.4,-1.76 0,-0.29 0,-0.57 0,-0.86 0,-0.28 0,-0.56 0,-0.85 -6.27,-0.57 -10.45,0.48 -12.49,2.17l0 0c-0.99,0.82 -1.52,1.81 -1.57,2.86 -0.03,0.7 0.15,1.41 0.54,2.09 0.19,0.33 0.42,0.66 0.71,0.97 0.2,0.23 0.42,0.45 0.68,0.66 0.33,0.28 0.7,0.55 1.12,0.82 2.43,1.53 6.38,2.74 11.83,3.03 -0.05,-0.28 -0.09,-0.57 -0.12,-0.85 -0.04,-0.29 -0.08,-0.58 -0.12,-0.86 -6.41,-0.39 -10.44,-2.06 -12.13,-3.93 -0.16,-0.19 -0.3,-0.37 -0.42,-0.55 -0.26,-0.41 -0.39,-0.82 -0.39,-1.2 0,-0.03 0,-0.07 0,-0.1 0.03,-0.57 0.35,-1.13 0.96,-1.63l0 -0.01zm3.01 25.66c0.1,-4.22 -0.25,-8.26 -0.93,-12.15 -0.44,-2.52 -1.01,-4.99 -1.69,-7.41 -0.42,-0.27 -0.79,-0.54 -1.12,-0.82 -0.26,-0.21 -0.48,-0.43 -0.68,-0.66 -0.29,-0.31 -0.52,-0.64 -0.71,-0.97 0.82,2.57 1.53,5.18 2.09,7.85 0.06,0.31 0.12,0.62 0.19,0.93 0.06,0.31 0.11,0.62 0.17,0.93 0.03,0.14 0.05,0.29 0.08,0.43 0.69,4 1.03,8.13 0.89,12.45l-0.02 0.63 0.6 0.2c2.97,1 5.84,1.72 8.65,2.23 2.8,0.5 5.52,0.79 8.19,0.92 -0.14,-0.29 -0.28,-0.58 -0.42,-0.87 -0.13,-0.29 -0.27,-0.58 -0.4,-0.87 -2.31,-0.15 -4.66,-0.42 -7.07,-0.85 -2.53,-0.46 -5.13,-1.1 -7.82,-1.97z"/>
    <path class="fil3" d="M32.23 107.26c2.04,-1.69 6.22,-2.74 12.49,-2.17 0.05,-2.84 0.23,-5.75 0.57,-8.71 -4.58,-0.9 -9.25,-1.2 -14,-0.77 -4.37,0.39 -8.82,1.39 -13.39,3.11l12.15 9.65 0.69 0.55 -0.58 0.67 -6.63 7.77 9.76 2.7c-0.56,-2.67 -1.27,-5.28 -2.09,-7.85 -0.39,-0.68 -0.57,-1.39 -0.54,-2.09 0.05,-1.05 0.58,-2.04 1.57,-2.86l0 0z"/>
    <path class="fil4" d="M45.54 117.69c-5.45,-0.29 -9.4,-1.5 -11.83,-3.03 0.68,2.42 1.25,4.89 1.69,7.41 0.68,3.89 1.03,7.93 0.93,12.15 2.69,0.87 5.29,1.51 7.82,1.97 2.41,0.43 4.76,0.7 7.07,0.85 -2.77,-6.11 -4.68,-12.55 -5.68,-19.35z"/>
    <g>
     <path class="fil1" d="M165.14 127.35c-2,-0.8 -4.08,-1.34 -6.24,-1.61 -0.15,0.55 -0.3,1.1 -0.46,1.65 2.1,0.25 4.13,0.77 6.08,1.54 2.25,0.89 4.41,2.13 6.47,3.69 0.01,0.01 0.02,0.02 0.04,0.03l1.03 -1.35c-1.92,-1.46 -3.91,-2.65 -5.99,-3.57 -0.31,-0.13 -0.62,-0.26 -0.93,-0.38zm4.77 11.95l0 0zm-4.59 -20.7c-0.95,1.6 -1.76,2.96 -1.27,4.6 0.25,1.74 1.01,3.22 2.02,4.53 2.08,0.92 4.07,2.11 5.99,3.57l-1.03 1.35c-0.02,-0.01 -0.03,-0.02 -0.04,-0.03 1.38,1.32 2.41,2.56 2.26,3.81 -0.13,0.83 -0.5,1.45 -1,1.89 -0.61,0.54 -1.44,0.84 -2.34,0.98 -2.35,0.22 -4.92,-0.13 -7.59,-0.86 -2.27,-0.62 -4.61,-1.51 -6.94,-2.55 -0.22,0.52 -0.46,1.03 -0.7,1.55 2.42,1.08 4.84,2 7.19,2.64 2.87,0.78 5.66,1.15 8.25,0.9l0.04 0c1.2,-0.18 2.34,-0.61 3.21,-1.38 0.79,-0.69 1.35,-1.64 1.56,-2.9l0 -0.02c0.33,-2.52 -1.75,-4.39 -4.08,-6.49 -1.44,-1.3 -2.99,-2.7 -4.01,-4.33 -0.36,0.08 -0.72,0.17 -1.07,0.26l-0.42 -1.65c0.24,-0.06 0.48,-0.12 0.72,-0.18 -0.17,-0.44 -0.28,-0.91 -0.35,-1.39l-0.01 -0.08 -0.02 -0.07c-0.31,-0.94 0.33,-2.02 1.09,-3.28 1.12,-1.88 2.45,-4.11 1.97,-7.36 -0.27,-1.88 -0.91,-3.8 -2.23,-5.38 -1.18,-1.43 -2.9,-2.55 -5.35,-3.09 0.02,0.59 0.04,1.18 0.05,1.76 1.83,0.48 3.11,1.34 4,2.41 1.08,1.3 1.61,2.93 1.85,4.55 0.39,2.65 -0.77,4.6 -1.75,6.24zm0.03 5.87l0.42 1.65c0.35,-0.09 0.71,-0.18 1.07,-0.26 3.05,-0.74 6.09,-1.31 9.13,-1.56 3.12,-0.25 6.22,-0.16 9.32,0.45l-0.73 4.76 -0.87 5.64 -0.08 0.53 0.44 0.3c0.78,0.53 1.46,0.95 2.06,1.33 2.06,1.28 3.33,2.07 3.9,4.63 -7.11,-0.46 -15.55,1.98 -23.65,4.33 -7.16,2.08 -14.05,4.07 -19.34,3.86 -0.41,0.54 -0.83,1.08 -1.25,1.61 5.74,0.6 13.25,-1.57 21.06,-3.84 8.37,-2.42 17.1,-4.95 24.11,-4.18l1.07 0.12 -0.14 -1.07c-0.55,-4.22 -2.11,-5.19 -4.86,-6.9 -0.48,-0.3 -1.01,-0.63 -1.55,-0.99l0.78 -5.12 0.85 -5.55 0.12 -0.78 -0.77 -0.18c-3.54,-0.79 -7.08,-0.93 -10.6,-0.65 -3.26,0.27 -6.52,0.89 -9.77,1.69l-0.72 0.18z"/>
     <path class="fil5" d="M158.9 125.74c2.16,0.27 4.24,0.81 6.24,1.61 0.31,0.12 0.62,0.25 0.93,0.38 -1.01,-1.31 -1.77,-2.79 -2.02,-4.53 -0.49,-1.64 0.32,-3 1.27,-4.6 0.98,-1.64 2.14,-3.59 1.75,-6.24 -0.24,-1.62 -0.77,-3.25 -1.85,-4.55 -0.89,-1.07 -2.17,-1.93 -4,-2.41 0.12,7.13 -0.65,13.91 -2.32,20.34z"/>
     <path class="fil6" d="M170.85 130.19c2.33,2.1 4.41,3.97 4.08,6.49l0 0.02c-0.21,1.26 -0.77,2.21 -1.56,2.9 -0.87,0.77 -2.01,1.2 -3.21,1.38l-0.04 0c-2.59,0.25 -5.38,-0.12 -8.25,-0.9 -2.35,-0.64 -4.77,-1.56 -7.19,-2.64 -2.06,4.42 -4.62,8.65 -7.66,12.69 5.29,0.21 12.18,-1.78 19.34,-3.86 8.1,-2.35 16.54,-4.79 23.65,-4.33 -0.57,-2.56 -1.84,-3.35 -3.9,-4.63 -0.6,-0.38 -1.28,-0.8 -2.06,-1.33l-0.44 -0.3 0.08 -0.53 0.87 -5.64 0.73 -4.76c-3.1,-0.61 -6.2,-0.7 -9.32,-0.45 -3.04,0.25 -6.08,0.82 -9.13,1.56 1.02,1.63 2.57,3.03 4.01,4.33z"/>
    </g>
    <g>
     <path class="fil7 str0" d="M38.18 69.86c0.75,0.22 1.36,0.6 1.84,1.15 0.47,0.55 0.81,1.2 1,1.96 0.18,0.74 0.24,1.5 0.2,2.31 -0.05,0.81 -0.19,1.62 -0.43,2.43l-2.88 9.71 -0.83 -0.25c0.05,-0.24 -0.07,0.04 0.01,-0.36 0.07,-0.4 0.11,-0.68 0.09,-0.85 -0.01,-0.32 -0.09,-0.56 -0.23,-0.73 -0.15,-0.17 -0.36,-0.29 -0.64,-0.37l-10.68 -3.17c-0.25,-0.07 -0.47,-0.08 -0.69,-0.03 -0.2,0.05 -0.42,0.21 -0.63,0.49 -0.16,0.2 -0.32,0.47 -0.5,0.82 -0.18,0.35 -0.12,0.21 -0.2,0.4l-1 -0.43 3.84 -13.29 5 -0.14 -0.28 0.93c-0.92,0.11 -1.62,0.56 -2.42,0.91 -0.8,0.34 -1.29,0.72 -1.47,1.12 -0.12,0.25 -0.24,0.53 -0.36,0.87 -0.12,0.33 -0.27,0.66 -0.34,1.02l-0.52 2.8 3.48 1.03c0.1,-1.16 0.61,-2.44 1.24,-3.9 0.7,-1.63 2.73,-4.08 5.21,-4.44 0.67,-0.23 1.4,-0.23 2.19,0.01zm-1.4 5.11c-3.35,-0.94 -5.41,1.59 -5.88,3.62l6.93 2.05c2.03,-0.25 1.68,-4.91 -1.05,-5.67z"/>
     <path class="fil7 str0" d="M40.79 51.77l-0.47 0.66c-0.93,-0.12 -3.59,0.31 -4.22,1.32 -0.17,0.19 -0.37,0.48 -0.6,0.87 -0.23,0.38 -0.44,0.7 -0.57,0.96 -0.41,0.86 -0.34,1.45 -0.11,2.45l2.49 1.41 0.42 -0.73c0.23,-0.4 0.39,-0.79 0.49,-1.16 0.1,-0.38 0.11,-0.77 0.03,-1.18 -0.06,-0.25 -0.22,-0.57 -0.5,-0.95 -0.28,-0.39 -0.54,-0.68 -0.79,-0.89l0.47 -0.84 5.94 3.03 -0.47 0.84c-0.43,-0.16 -2.11,-0.13 -2.55,0 -0.37,0.11 -0.69,0.3 -0.97,0.58 -0.27,0.28 -0.52,0.64 -0.77,1.07l-0.41 0.73 5.36 3.03c3.58,2.03 4.06,-5.53 3.71,-6.81 -0.63,-1.27 -1.14,-1.39 -0.52,-2.49l3.48 4.44 -7.61 12.87 -0.76 -0.42c0.11,-0.22 0.24,-0.51 0.4,-0.88 0.15,-0.38 0.25,-0.65 0.28,-0.82 0.05,-0.34 0.03,-0.6 -0.08,-0.78 -0.1,-0.19 -0.28,-0.35 -0.52,-0.49l-9.7 -5.49c-0.24,-0.13 -0.45,-0.2 -0.65,-0.2 -0.2,-0.01 -0.44,0.11 -0.74,0.35 -0.18,0.14 -0.4,0.37 -0.67,0.68 -0.25,0.31 -0.44,0.54 -0.56,0.7l-0.76 -0.42 7.11 -12.58 4.82 1.14z"/>
     <path class="fil7 str0" d="M45.15 41.01l-0.68 0.79 4.07 3.6c0.63,-1.27 1.77,-3.95 0.04,-5.28 -0.95,-0.73 -2.41,-0.51 -3.43,0.89zm5.45 4.24l-0.8 1.24 4.12 3.58c0.2,0.18 0.41,0.29 0.63,0.33 0.22,0.05 0.49,-0.02 0.79,-0.18 0.15,-0.09 0.38,-0.26 0.67,-0.5l0.69 0.73 -4.89 5.67 -0.68 -0.73c0.14,-0.22 0.23,-0.39 0.28,-0.51 0.12,-0.32 0.15,-0.58 0.09,-0.77 -0.06,-0.19 -0.2,-0.39 -0.43,-0.59l-8.82 -7.73c-0.19,-0.18 -0.4,-0.28 -0.61,-0.33 -0.21,-0.05 -0.47,0.02 -0.78,0.19 -0.19,0.09 -0.39,0.23 -0.63,0.42l-0.78 -0.73 5.72 -6.6c6.28,-7.24 9.73,-2.44 5.43,6.51z"/>
     <path class="fil7 str0" d="M67.94 26.17l-0.71 0.39c-0.79,-0.5 -3.37,-1.25 -4.38,-0.62 -0.23,0.11 -0.54,0.28 -0.91,0.53 -0.37,0.25 -0.7,0.44 -0.92,0.63 -0.75,0.6 -0.93,1.16 -1.16,2.16l1.65 2.35 0.69 -0.48c0.38,-0.27 0.69,-0.55 0.94,-0.85 0.26,-0.29 0.43,-0.64 0.53,-1.05 0.06,-0.25 0.05,-0.61 -0.04,-1.07 -0.09,-0.47 -0.2,-0.85 -0.33,-1.14l0.78 -0.55 4.07 5.28 -0.78 0.55c-0.32,-0.32 -1.86,-1.02 -2.31,-1.09 -0.38,-0.06 -0.75,-0.02 -1.12,0.11 -0.37,0.14 -0.75,0.35 -1.16,0.64l-0.68 0.48 3.54 5.03c2.37,3.37 6.04,-3.26 6.27,-4.56 -0.02,-1.42 -0.43,-1.74 0.6,-2.47l1.24 5.5 -12.39 8.37 -0.5 -0.71c0.18,-0.15 0.43,-0.35 0.73,-0.62 0.31,-0.27 0.51,-0.48 0.61,-0.62 0.19,-0.28 0.28,-0.53 0.26,-0.74 -0.01,-0.21 -0.1,-0.44 -0.26,-0.67l-6.41 -9.11c-0.16,-0.22 -0.32,-0.37 -0.5,-0.46 -0.18,-0.09 -0.45,-0.09 -0.82,0 -0.23,0.05 -0.53,0.16 -0.89,0.32 -0.37,0.17 -0.64,0.3 -0.82,0.4l-0.5 -0.71 11.82 -8.31 3.86 3.09z"/>
     <path class="fil7 str0" d="M88.78 28.54c-1.08,1.61 -3,2.69 -5.33,3.83 -2,0.98 -3.75,1.42 -5.24,1.32l-0.61 0.66 -3.32 -3.84 0.14 -0.6 5.31 1.55c1.01,0.1 1.73,0.09 2.55,-0.43 1.88,-1.19 3.4,-2.89 1.7,-5.73 -1.13,-1.38 -2.9,-0.71 -4.08,-0.42l-2.48 0.61 -0.95 -1.52c1.08,-0.48 2.67,-1.12 3.5,-2.01 1.58,-1.7 0.77,-4.62 -2.71,-3.41 -1.06,0.36 -2.18,1.06 -2.58,2.24 -0.23,0.65 -0.7,1.73 -0.74,2.46l-1.13 0.08 -0.43 -4.8 0.75 -0.75c0.37,0.29 0.82,0.65 1.26,0.32 0.67,-0.48 1.25,-0.9 2.72,-1.62 1.94,-0.95 6.37,-2.54 8.08,0.67 1.2,2.25 -1.34,5.26 -2.92,5.49l0.07 0.13c0.55,-0.26 1.17,-0.49 1.83,-0.66 4.06,-0.79 7.27,2.91 4.61,6.43z"/>
     <path class="fil8 str0" d="M100.34 12.4c5.05,-0.24 9.32,3.41 9.54,8.15 0.22,4.73 -3.69,8.76 -8.74,9 -5.05,0.23 -9.32,-3.42 -9.54,-8.15 -0.22,-4.74 3.69,-8.77 8.74,-9zm0.1 2.19c2.2,-0.18 4.21,2.57 4.49,6.14 0.27,3.56 -1.28,6.6 -3.48,6.78 -2.2,0.18 -4.21,-2.57 -4.49,-6.13 -0.28,-3.57 1.28,-6.61 3.48,-6.79z"/>
     <path class="fil7 str0" d="M123.14 23.24c-1.03,-0.03 -1.84,0.14 -2.97,-0.02l-2.03 5.55c0.32,1.21 2.15,1.28 3.85,1.16 2.71,-0.2 2.91,-4.79 1.15,-6.69zm2.38 -4.28c-0.36,-0.66 -1.08,-1.19 -2.15,-1.59 -0.16,-0.05 -0.36,-0.12 -0.61,-0.2 -0.25,-0.07 -0.22,0.13 -0.4,0.07l-1.52 4.16c1.14,-0.15 6.06,0.38 4.68,-2.44zm3.23 11.16c-1.04,2.86 -4.03,2.64 -6.07,2.21 -0.99,-0.21 -2.13,-0.55 -3.42,-1.02l-8.02 -2.91 0.39 -0.93c0.39,0.09 0.68,0.14 0.85,0.14 0.34,0.01 0.6,-0.06 0.77,-0.2 0.17,-0.13 0.31,-0.34 0.41,-0.62l3.91 -10.69c0.09,-0.26 0.13,-0.49 0.1,-0.69 -0.03,-0.2 -0.19,-0.43 -0.48,-0.68 -0.22,-0.19 -0.48,-0.37 -0.79,-0.55l0.42 -0.96c3.54,1.3 7.07,2.57 10.66,3.73 1.13,0.36 2.29,0.9 2.8,1.84 1.79,3.31 -3.47,4.18 -4.81,4.16 0.68,1.02 1.66,1.35 2.43,2.31 0.98,1.24 1.54,2.97 0.85,4.86z"/>
     <path class="fil7 str0" d="M132.37 30.23c0.29,-1.11 0.83,-2.14 1.61,-3.1 0.79,-0.96 1.7,-1.69 2.74,-2.19 1.05,-0.51 2.15,-0.78 3.33,-0.81 1.14,-0.04 2.32,0.16 3.52,0.61 1.2,0.45 2.33,1.11 3.4,1.98 0.77,0.63 1.41,1.29 1.91,1.98l1.11 0.35 0.48 0.33 -2.51 6.22 -0.76 -0.62c0.53,-3.52 0.85,-4.32 -1.36,-6.13 -2.51,-2.05 -5.52,-1.26 -7.4,1.12 -2.07,2.62 -2.65,6.75 -0.22,8.64 0.94,0.73 1.62,1.58 2.7,1.73 1.08,0.15 2.6,0.03 3.73,-0.65l1.03 0.74c-0.7,0.28 -3.69,2.85 -4.38,2.96 -0.47,-0.46 -0.92,-0.72 -1.2,-0.79 -4.59,-1.14 -9.71,-7.39 -7.73,-12.37z"/>
     <path class="fil7 str0" d="M154.95 57.84l-4.99 -5.51 0.7 -0.72c0.23,0.08 0.66,0.33 0.95,0.49 1.05,-1.43 2.44,-3.71 2.79,-5.17 0.1,-0.39 0.12,-0.79 0.08,-1.2 -0.1,-1.2 0,-1.9 -1.21,-1.73l-4.1 3.61c-0.19,0.17 -0.32,0.36 -0.39,0.58 -0.07,0.23 -0.05,0.49 0.06,0.78 0.04,0.1 0.16,0.38 0.28,0.61l-0.73 0.72 -5.02 -5.75 0.68 -0.65c0.3,0.28 0.53,0.47 0.7,0.57 0.28,0.16 0.52,0.22 0.75,0.18 0.23,-0.04 0.44,-0.15 0.64,-0.33l8.39 -7.39c0.19,-0.17 0.32,-0.36 0.38,-0.55 0.07,-0.2 0.04,-0.47 -0.08,-0.8 -0.08,-0.25 -0.23,-0.54 -0.43,-0.89 -0.2,-0.35 -0.36,-0.59 -0.46,-0.74l0.65 -0.57 6.39 7.25 -0.66 0.57c-0.18,-0.18 -0.41,-0.39 -0.7,-0.62 -0.28,-0.24 -0.5,-0.4 -0.67,-0.51 -0.29,-0.19 -0.55,-0.25 -0.78,-0.19 -0.22,0.07 -0.43,0.18 -0.6,0.33l-2.49 2.19 6.32 0.68 -0.33 -1.11 0.68 -0.63 4.76 4.83c-0.29,-0.05 -0.69,0.25 -0.98,0.41 -1.71,-0.34 -4.67,-1.8 -6.55,-1.64l0.08 0.56c0.88,2.98 -2.27,6.58 -3.2,9.78 -0.19,0.51 -0.27,0.92 -0.22,1.21 0.05,0.29 0.12,0.5 0.2,0.63l-0.89 0.72z"/>
     <path class="fil7 str0" d="M163.25 73.68l-3.05 -5.86 0.85 -0.47c0.24,0.23 0.69,0.59 0.91,0.61 0.22,0.03 0.45,-0.03 0.7,-0.15l8.06 -4.01 -7.8 -2.4c-0.45,0.23 -3,1.55 -3.09,1.73 -0.1,0.17 -0.13,0.42 -0.11,0.76 0.02,0.12 0.04,0.27 0.09,0.46l-0.96 0.45 -3.07 -6.18c0.14,-0.1 0.8,-0.56 0.93,-0.37 0.11,0.15 0.2,0.26 0.27,0.33 0.23,0.23 0.45,0.35 0.68,0.37 0.23,0.02 0.46,-0.03 0.7,-0.15l10.01 -4.98c0.23,-0.11 0.4,-0.26 0.52,-0.43 0.11,-0.18 0.15,-0.44 0.13,-0.79 -0.02,-0.2 -0.06,-0.43 -0.12,-0.7l0.96 -0.46 3.07 6.18 -0.96 0.5c-0.06,-0.07 -0.12,-0.14 -0.17,-0.2 -0.23,-0.25 -0.46,-0.37 -0.7,-0.37 -0.24,0 -0.46,0.05 -0.67,0.16l-5.22 2.59 7.58 2.5c0.35,-0.17 0.37,-0.24 0.45,-0.43 0.09,-0.18 0.12,-0.43 0.1,-0.74 -0.01,-0.12 -0.12,-0.47 -0.18,-0.6l1.06 -0.44 3.07 6.04 -0.99 0.59c-0.15,-0.36 -0.65,-0.66 -0.88,-0.66 -0.24,-0.01 -0.46,0.04 -0.68,0.15l-10.02 4.99c-0.24,0.11 -0.42,0.26 -0.54,0.44 -0.11,0.18 -0.05,0.61 -0.02,0.95l-0.91 0.59z"/>
     <path class="fil7 str0" d="M168.31 92l-1.8 -6.35 0.93 -0.29c0.18,0.27 0.56,0.71 0.76,0.78 0.21,0.07 0.45,0.06 0.72,-0.01l8.71 -2.28 -7.15 -3.93c-0.49,0.13 -3.25,0.9 -3.38,1.05 -0.13,0.15 -0.21,0.39 -0.25,0.73 -0.02,0.12 -0.02,0.27 -0.01,0.46l-1.03 0.25 -1.75 -6.67c0.16,-0.07 0.89,-0.39 0.99,-0.17 0.07,0.16 0.13,0.28 0.19,0.38 0.17,0.26 0.37,0.43 0.59,0.5 0.22,0.06 0.46,0.06 0.72,-0.01l10.81 -2.84c0.25,-0.06 0.45,-0.17 0.59,-0.32 0.15,-0.15 0.25,-0.39 0.29,-0.74 0.03,-0.2 0.03,-0.43 0.03,-0.71l1.03 -0.25 1.75 6.67 -1.04 0.3c-0.05,-0.09 -0.09,-0.17 -0.13,-0.23 -0.17,-0.3 -0.37,-0.46 -0.61,-0.51 -0.23,-0.05 -0.46,-0.04 -0.69,0.02l-5.64 1.48 6.92 3.99c0.37,-0.1 0.41,-0.17 0.53,-0.33 0.12,-0.16 0.21,-0.4 0.25,-0.71 0.01,-0.12 -0.02,-0.49 -0.06,-0.62l1.13 -0.22 1.77 6.54 -1.09 0.38c-0.06,-0.39 -0.49,-0.78 -0.72,-0.83 -0.23,-0.06 -0.46,-0.05 -0.7,0.01l-10.83 2.84c-0.25,0.07 -0.46,0.17 -0.61,0.33 -0.15,0.15 -0.18,0.58 -0.22,0.92l-1 0.39zm17.24 -15.61c0.18,-0.67 0.06,-1.45 -0.86,-0.39 -1.55,2.86 -1.45,4.76 1.58,6.4 1.08,0.46 1.12,-0.26 0.73,-0.65 -1.58,-1.37 -2.29,-3.07 -1.45,-5.36z"/>
    </g>
    <path class="fil8 str0" d="M18.77 162.21l0 21.59c-0.21,0.73 -0.52,1.14 -0.94,1.16l0.01 0.89 3.48 0 0 -0.72c-0.52,-0.22 -0.88,-0.61 -0.93,-1.32l0 -17.79 2.9 13.43 3.22 -13.01 0 17.31 -0.75 1.28 0 0.62 4.71 0 0 -0.7 -0.71 -1.24 0 -20.3 0.69 -0.9 0 -0.79c-1.64,-0.39 -3.29,-0.59 -4.95,-0.65l-0.03 0.9 0.45 0.38 -0.04 2.02 -1.71 6.13 -1.32 -6.69 0 -1.68 0.52 -0.41 -0.01 -0.91c-1.49,-0.11 -3.38,-0.23 -5.49,-0.19l-0.03 0.85 0.93 0.74z"/>
    <path class="fil8 str0" d="M42.58 164.14c-2.68,-0.75 -4.97,-1.28 -7.4,-1.7 -3.8,-0.76 -4,5.33 -0.57,9.55 -1.63,3.95 -2.72,8.41 -3.22,12.77l-0.61 0.16 0 0.67 5.24 0 0 -0.49c-0.55,-0.08 -0.86,-0.45 -0.85,-1.17 0.36,-3.1 1.24,-6.19 2.25,-8.87l0.93 0.67 0 8.25c-0.14,0.59 -0.4,0.93 -0.78,1.01l0 0.63 4.84 0 0 -0.54c-0.46,-0.16 -0.78,-0.42 -0.79,-0.9l0 -18.53c0.11,-0.56 0.43,-0.84 0.95,-0.86l0.01 -0.65zm-4.2 8.92l0 -7.52c-1.45,-0.82 -2.52,-1 -2.96,0.9 -0.22,3.78 1.2,5.42 2.96,6.62z"/>
    <path class="fil8 str0" d="M52.87 166.26c0.33,2.63 0.67,5.25 1.01,7.88 -0.24,0.07 -0.48,0.14 -0.72,0.2 -1,-5.58 -2.9,-6.86 -3.91,-6.49 -3.54,1.28 -2.89,9.03 -2.14,11.82 1.08,4.01 3.89,6.48 6.74,0.96 0.15,0.01 0.29,0.02 0.43,0.02 -0.4,1.88 -0.72,3.97 -1.12,5.85 -0.23,-0.05 -0.66,-0.09 -0.89,-0.14 -0.18,-0.04 -0.63,-0.09 -0.8,-0.13 -4.96,0.96 -8.48,-4.14 -8.29,-12.43 0.38,-5.6 1.84,-11.22 8.19,-7.34 0.37,0.19 0.6,0 0.92,-0.2 0.15,-0.05 0.37,-0.03 0.58,0z"/>
    <path class="fil8 str0" d="M60.07 168.29c3.4,-0.37 6.41,3.42 6.72,8.45 0.32,5.04 -2.18,9.42 -5.58,9.79 -3.39,0.37 -6.41,-3.42 -6.72,-8.45 -0.32,-5.04 2.18,-9.42 5.58,-9.79zm0.14 2.33c1.48,-0.24 2.93,2.64 3.25,6.43 0.31,3.79 -0.63,7.06 -2.11,7.3 -1.48,0.25 -2.93,-2.63 -3.25,-6.42 -0.31,-3.79 0.63,-7.06 2.11,-7.31z"/>
    <path class="fil7 str0" d="M79.58 186.39l-5.28 0.09 -0.05 -0.86c0.15,-0.1 0.48,-0.24 0.71,-0.33 -0.28,-1.48 -0.84,-3.67 -1.45,-4.72 -0.17,-0.29 -0.37,-0.53 -0.61,-0.74 -0.68,-0.61 -1.01,-1.07 -1.49,-0.19l0.01 4.68c0,0.21 0.04,0.41 0.12,0.58 0.09,0.17 0.24,0.3 0.45,0.4 0.06,0.03 0.27,0.11 0.45,0.16l0.05 0.89 -5.43 -0.04 -0.02 -0.8c0.29,-0.04 0.5,-0.08 0.63,-0.13 0.21,-0.09 0.36,-0.21 0.45,-0.38 0.08,-0.17 0.12,-0.37 0.12,-0.59l0 -11.77c0,-0.56 -0.32,-0.87 -0.72,-1.05l-0.02 -0.97 4.98 1.58 0 0.74c-0.59,0.05 -1.07,0.61 -1.07,1.79l0 2.84 3.33 -3.68 -0.85 -0.51 -0.02 -0.8 4.21 1.23c-0.16,0.16 -0.14,0.31 -0.19,0.58 -1.17,0.21 -2.73,0.71 -3.53,2.27l0.33 0.26c2,1.13 2.33,4.92 3.37,7.54 0.18,0.41 0.94,0.59 1.12,0.72 0.18,0.13 0.32,0.21 0.43,0.23l-0.03 0.98z"/>
    <path class="fil8 str0" d="M84.99 174.6c3.31,0.04 6,2.79 6.02,6.13 0.02,3.34 -2.65,6.01 -5.96,5.97 -3.31,-0.05 -6,-2.79 -6.02,-6.13 -0.02,-3.34 2.65,-6.02 5.96,-5.97zm0 1.55c1.45,-0.04 2.69,1.98 2.77,4.5 0.09,2.52 -1.01,4.59 -2.45,4.63 -1.45,0.03 -2.69,-1.98 -2.77,-4.51 -0.09,-2.52 1.01,-4.59 2.45,-4.62z"/>
    <path class="fil7 str0" d="M103.29 186.54l-4.48 0.07 -0.03 -0.62c0.21,-0.07 0.57,-0.23 0.65,-0.34 0.08,-0.12 0.12,-0.27 0.12,-0.45l0.01 -4.64 -3.72 -0.01c0,0.32 -0.07,4.83 0.01,4.94 0.08,0.1 0.22,0.19 0.43,0.27 0.08,0.03 0.18,0.06 0.3,0.08l-0.01 0.68 -4.68 -0.01c-0.02,-0.11 -0.1,-0.61 0.06,-0.64 0.12,-0.01 0.21,-0.03 0.28,-0.06 0.2,-0.06 0.35,-0.15 0.43,-0.28 0.08,-0.12 0.12,-0.27 0.12,-0.44l0.02 -7.13c0,-0.17 -0.04,-0.31 -0.11,-0.42 -0.07,-0.11 -0.21,-0.21 -0.44,-0.3 -0.12,-0.05 -0.27,-0.09 -0.45,-0.13l0.01 -0.68 4.68 0.01 0.01 0.69c-0.06,0.02 -0.12,0.03 -0.17,0.04 -0.21,0.06 -0.39,0.2 -0.48,0.34l0 1.67 3.74 0 0 -1.18c0,-0.25 -0.04,-0.28 -0.12,-0.38 -0.09,-0.11 -0.23,-0.2 -0.43,-0.27 -0.07,-0.03 -0.32,-0.07 -0.41,-0.07l0.05 -0.73 4.6 -0.03 0.05 0.73c-0.26,-0.02 -0.59,0.18 -0.67,0.32 -0.07,0.13 -0.11,0.27 -0.11,0.43l-0.02 7.14c0,0.17 0.03,0.31 0.11,0.43 0.07,0.12 0.35,0.2 0.56,0.28l0.09 0.69z"/>
    <path class="fil7 str0" d="M104.85 182.56c-0.2,-0.63 -0.25,-1.29 -0.13,-2 0.12,-0.69 0.38,-1.32 0.78,-1.88 0.41,-0.55 0.93,-1.01 1.56,-1.37 0.61,-0.35 1.32,-0.6 2.12,-0.73 0.8,-0.13 1.64,-0.14 2.51,-0.02 0.62,0.09 1.19,0.23 1.68,0.42l0.72 -0.15 0.37 0.02 0.66 3.79 -0.62 -0.09c-0.86,-1.88 -0.94,-2.37 -2.74,-2.61 -2.04,-0.28 -3.42,1 -3.68,2.72 -0.28,1.89 0.75,4.1 2.7,4.31 0.74,0.09 1.39,0.3 2.03,0.06 0.64,-0.24 1.43,-0.75 1.83,-1.41l0.8 0.06c-0.29,0.35 -1.09,2.49 -1.43,2.74 -0.41,-0.09 -0.74,-0.08 -0.91,-0.04 -2.88,0.79 -7.71,-0.79 -8.25,-3.82z"/>
    <path class="fil7 str0" d="M125.74 177.9l-0.54 -0.06c-0.23,-0.57 -1.44,-1.47 -2.23,-1.51 -0.45,-0.1 -2.54,0.67 -2.63,0.75l0.1 2.35c0.47,0 2.06,-0.42 2.33,-1 0.13,-0.28 0.21,-0.53 0.25,-0.74l0.64 0 0.42 3.96 -0.8 0.18c-0.05,-0.3 -0.68,-0.97 -0.9,-1.19 -0.19,-0.18 -0.4,-0.3 -0.65,-0.36 -0.22,-0.06 -0.94,-0.01 -1.29,-0.01l0.01 4.34c0.01,0.8 0.47,0.52 1.12,0.55 1.45,0.06 3.27,-1.62 4.1,-2.83 0.36,-0.53 0.91,-0.12 0.88,0.01l-1.76 4.21 -9.29 0.14 0 -0.58c0.16,-0.01 0.37,-0.03 0.64,-0.06 0.27,-0.03 0.46,-0.06 0.57,-0.1 0.21,-0.08 0.36,-0.18 0.43,-0.3 0.07,-0.12 0.11,-0.28 0.11,-0.47l0 -7.41c0,-0.18 -0.03,-0.33 -0.09,-0.44 -0.06,-0.12 -0.21,-0.22 -0.45,-0.32 -0.14,-0.06 -0.35,-0.11 -0.61,-0.16 -0.26,-0.05 -0.46,-0.08 -0.6,-0.1l0 -0.57 9.32 -1.44 0.92 3.16z"/>
    <path class="fil7 str0" d="M131.89 174.49l-0.74 0.2 -0.02 3.86c1.07,-0.28 3.06,-1.38 2.83,-3.2 -0.11,-0.82 -0.85,-1.29 -2.07,-0.86zm-0.76 5.82l0.02 4.71c0,0.19 0.04,0.34 0.12,0.46 0.08,0.12 0.23,0.18 0.46,0.21 0.12,0.01 0.31,0 0.58,-0.03l-0.07 0.73 -5.29 0.01 0.07 -0.73c0.18,-0.07 0.31,-0.13 0.4,-0.19 0.23,-0.15 0.38,-0.29 0.45,-0.43 0.08,-0.14 0.11,-0.32 0.11,-0.54l0.04 -8.7c0,-0.19 -0.04,-0.33 -0.12,-0.45 -0.07,-0.11 -0.22,-0.18 -0.46,-0.2 -0.14,-0.02 -0.28,-0.02 -0.49,-0.01l0 -0.75 6.18 -1.68c2.87,-0.78 3.87,-0.13 4.13,0.75 0.36,1.23 -0.66,3.48 -2.63,5.11 -1.03,0.86 -2.48,1.31 -3.5,1.73z"/>
    <path class="fil7 str0" d="M143.57 176.8c-0.66,0.42 -1.12,0.92 -1.86,1.27l0 5.54c0.25,0.99 2.12,0.8 2.78,0.44 1.07,-0.6 1.32,-2.92 0.91,-4.71 -0.32,-1.4 -1.09,-2.39 -1.83,-2.54zm0.96 -4.97c-0.38,-0.4 -0.95,-0.53 -1.71,-0.39 -0.37,0.06 -0.7,0.2 -1.11,0.39l0 4.16c0.7,-0.51 3.89,-2.6 2.82,-4.16zm4.37 8.51c-0.02,2.86 -1.23,5.94 -3.61,5.96l-7.99 0 0.04 -0.95c0.26,-0.09 0.45,-0.17 0.56,-0.25 0.21,-0.14 0.36,-0.31 0.43,-0.5 0.08,-0.19 0.12,-0.42 0.12,-0.7l0 -10.67c0,-0.26 -0.03,-0.47 -0.1,-0.63 -0.06,-0.16 -0.21,-0.28 -0.45,-0.36 -0.18,-0.07 -0.22,-0.09 -0.46,-0.11l0.02 -0.7c2.47,-0.58 5.09,-1.54 7.63,-2.03 0.79,-0.18 1.64,-0.24 2.17,0.33 1.88,2 -1.46,5.24 -2.3,5.81 1.41,0.77 3.91,1.41 3.94,4.8z"/>
    <path class="fil7 str0" d="M160.82 186.17l-4.48 0 -0.03 -0.98c0.21,-0.12 0.57,-0.41 0.65,-0.62 0.08,-0.21 0.12,-0.47 0.12,-0.8l0.01 -10.65 -3.54 0.83c0,0.58 -0.07,10.14 0.01,10.33 0.07,0.18 0.22,0.35 0.43,0.5 0.07,0.04 0.17,0.09 0.3,0.14l-0.02 1.21 -4.67 -0.01c-0.02,-0.19 -0.1,-1.11 0.06,-1.15 0.11,-0.03 0.21,-0.06 0.28,-0.1 0.2,-0.12 0.35,-0.28 0.43,-0.51 0.08,-0.22 0.12,-0.49 0.12,-0.79l0.02 -12.83c0,-0.3 -0.04,-0.55 -0.11,-0.76 -0.07,-0.2 -0.22,-0.38 -0.44,-0.53 -0.12,-0.09 -0.27,-0.17 -0.46,-0.24l0.02 -1.22 4.68 -1.36 0.01 1.18c-0.07,0.02 -0.12,0.04 -0.17,0.07 -0.21,0.1 -0.4,0.36 -0.48,0.61l-0.01 2.99 3.57 -0.84 0 -2.28c0,-0.45 -0.04,-0.5 -0.12,-0.69 -0.09,-0.18 -0.23,-0.34 -0.43,-0.48 -0.07,-0.05 -0.27,-0.11 -0.36,-0.11l-0.01 -0.92 4.66 -1.05 0.01 1.38c-0.27,-0.04 -0.6,0.32 -0.68,0.56 -0.07,0.23 -0.11,0.5 -0.11,0.78l-0.02 15.83c0,0.3 0.03,0.56 0.11,0.77 0.07,0.22 0.35,0.37 0.56,0.51l0.09 1.23z"/>
    <path class="fil7 str0" d="M166.02 184.24l0.01 -11.02c3.38,0.82 4.13,11.02 -0.01,11.02zm1.05 -13.33l-1.03 -0.27 0.05 -3.76c0.02,-0.85 0.23,-1.27 0.59,-1.53 0.12,-0.07 0.32,-0.15 0.58,-0.24l-0.06 -1.31 -5.36 0.97 0.07 1.3c0.18,0.04 0.32,0.09 0.4,0.15 0.23,0.15 0.38,0.34 0.46,0.57 0.07,0.22 0.11,0.53 0.11,0.93l-0.02 15.31c0,0.34 -0.04,0.63 -0.11,0.88 -0.07,0.24 -0.23,0.45 -0.47,0.61 -0.13,0.1 -0.3,0.19 -0.51,0.26l0.02 1.39 6.19 -0.02c5.99,-1.07 5.13,-12.82 -0.91,-15.24z"/>
    <path class="fil8 str0" d="M176.9 171.51c0,-2.72 0,-5.45 0.01,-8.17 0.08,-0.25 0.27,-0.51 0.48,-0.61 0.05,-0.02 0.1,-0.05 0.17,-0.07l-0.01 -1.18 -4.69 0.77 -0.01 1.23c0.18,0.07 0.33,0.14 0.46,0.23 0.22,0.15 0.36,0.33 0.44,0.54 0.07,0.2 0.1,0.45 0.1,0.75l-0.02 18.6c0,0.3 -0.04,0.57 -0.12,0.79 -0.08,0.23 -0.22,0.4 -0.43,0.51 -0.07,0.04 -0.16,0.07 -0.28,0.1 -0.16,0.04 -0.08,0.96 -0.06,1.15l4.68 0.01 0.02 -1.21c-0.13,-0.05 -0.23,-0.09 -0.31,-0.14 -0.21,-0.15 -0.35,-0.31 -0.43,-0.5 -0.08,-0.19 -0.01,-9.74 -0.01,-10.33l0.01 0 0 -2.47z"/>
    <path class="fil7 str0" d="M190.1 186.13l-4.52 0.01 -0.03 -1.32c0.21,-0.18 0.56,-0.58 0.64,-0.87 0.08,-0.28 0.12,-0.65 0.12,-1.1l-0.01 -14.76 -3.78 9.9c0,0.8 0.04,5.34 0.11,5.59 0.08,0.26 0.22,0.49 0.43,0.69 0.08,0.07 0.18,0.13 0.31,0.19l-0.02 1.68 -4.65 0.02c-0.02,-0.27 -0.1,-1.53 0.06,-1.58 0.11,-0.05 0.21,-0.1 0.28,-0.15 0.2,-0.16 0.34,-0.39 0.42,-0.7 0.08,-0.31 0.12,-0.68 0.12,-1.1l-0.01 -17.69c0,-0.42 -0.04,-0.76 -0.11,-1.04 -0.07,-0.28 -0.22,-0.53 -0.44,-0.74 -0.12,-0.12 -0.27,-0.22 -0.46,-0.32l0.01 -1.49 4.69 -0.43 0.01 1.72c-0.06,0.04 -0.12,0.07 -0.17,0.1 -0.22,0.15 -0.36,0.39 -0.43,0.73 -0.07,0.34 -0.11,0.69 -0.11,1.07l-0.02 9.43 3.77 -9.51c0,-0.62 0.06,-1.2 -0.2,-1.82 -0.18,-0.42 -0.6,-0.52 -0.7,-0.52l-0.01 -1.25 4.58 -0.16 0 1.67c-0.26,-0.04 -0.59,0.45 -0.67,0.79 -0.07,0.32 -0.04,0.82 -0.04,1.21l0 18.29c0,0.42 0.04,0.78 0.11,1.07 0.08,0.29 0.51,0.92 0.72,1.12l0 1.27zm-7.53 -31.18c-0.4,-0.55 -0.93,-0.67 -0.4,1.17 1.6,3.5 2.87,4.1 4.45,0.12 0.48,-1.47 0.02,-1.82 -0.31,-1.37 -1.15,1.87 -2.38,2.28 -3.74,0.08z"/>
    <path class="fil7 str0" d="M33.24 200.1l-5.53 0.06 -0.06 -0.66c0.16,-0.08 0.51,-0.18 0.74,-0.25 -0.28,-1.14 -0.87,-2.82 -1.51,-3.62 -0.18,-0.22 -0.39,-0.41 -0.64,-0.57 -0.71,-0.47 -1.06,-0.82 -1.56,-0.15l0 3.59c0,0.17 0.05,0.32 0.14,0.45 0.09,0.13 0.25,0.23 0.46,0.3 0.07,0.03 0.29,0.09 0.48,0.13l0.04 0.68 -5.68 -0.03 -0.02 -0.62c0.3,-0.02 0.52,-0.06 0.66,-0.1 0.22,-0.06 0.38,-0.16 0.47,-0.29 0.08,-0.13 0.13,-0.28 0.13,-0.45l0 -7.35c0,-0.17 -0.04,-0.31 -0.12,-0.43 -0.08,-0.12 -0.24,-0.22 -0.48,-0.31 -0.18,-0.06 -0.38,-0.1 -0.64,-0.17l0 -0.66 6.47 0 0 0.57c-0.19,0.01 -0.42,0.03 -0.69,0.07 -0.27,0.04 -0.47,0.08 -0.62,0.11 -0.24,0.06 -0.4,0.16 -0.48,0.3 -0.08,0.14 -0.12,0.29 -0.12,0.45l0 2.18 3.49 -2.83 -0.79 -0.32 0.01 -0.53 4.93 0c-0.03,0.21 -0.05,0.37 -0.11,0.58 -1.03,0.7 -3.35,1.28 -4.19,2.27l0.35 0.21c2.09,0.86 2.56,3.97 3.88,5.83 0.19,0.31 0.38,0.52 0.57,0.63 0.18,0.1 0.33,0.16 0.45,0.17l-0.03 0.76z"/>
    <path class="fil8 str0" d="M49.18 189.69c3.56,0.13 6.34,2.59 6.2,5.51 -0.13,2.92 -3.14,5.18 -6.7,5.05 -3.57,-0.12 -6.35,-2.59 -6.21,-5.51 0.14,-2.92 3.14,-5.18 6.71,-5.05zm-0.07 1.35c1.56,0.01 2.8,1.8 2.78,4.01 -0.03,2.2 -1.31,3.98 -2.87,3.97 -1.56,-0.01 -2.8,-1.8 -2.78,-4.01 0.03,-2.2 1.31,-3.98 2.87,-3.97z"/>
    <path class="fil8 str0" d="M66.27 190.39l0 9.01c-0.22,0.3 -0.54,0.47 -0.99,0.48l0 0.37 3.68 0 0 -0.3c-0.55,-0.09 -0.92,-0.25 -0.98,-0.55l0 -7.42 3.06 5.6 3.4 -5.6 0 7.39 -0.78 0.54 0 0.26 4.97 0 0 -0.29 -0.76 -0.52 0.02 -8.73 0.73 -0.37 0 -0.54 -5.25 0.02 -0.03 0.38 0.48 0.16 -0.05 0.84 -1.79 2.73 -1.4 -2.79 0.01 -0.86 0.54 -0.08 0 -0.38 -5.81 -0.01 -0.04 0.36 0.99 0.3z"/>
    <path class="fil7 str0" d="M98.54 199.49c-1.13,0.46 -2.66,0.59 -4.2,0.65 -2.44,0.08 -4.97,0.03 -5.68,0.03l0 -0.58c0.16,-0.01 -0.04,-0.03 0.23,-0.06 0.26,-0.02 0.27,-0.06 0.38,-0.1 0.2,-0.06 0.34,-0.16 0.41,-0.28 0.08,-0.12 0.12,-0.28 0.12,-0.47l0 -7.35c0,-0.17 -0.04,-0.32 -0.1,-0.44 -0.08,-0.12 -0.22,-0.23 -0.43,-0.31 -0.16,-0.06 -0.18,-0.11 -0.44,-0.16 -0.25,-0.05 -0.16,-0.04 -0.29,-0.06l0.09 -0.71 9.82 0.01 1.02 3.14 -0.64 0c-0.25,-0.57 -0.66,-0.93 -1.03,-1.36 -0.37,-0.45 -0.7,-0.69 -0.98,-0.72 -1.08,-0.18 -2.81,-0.08 -3.89,0.03l0 2.2c1.29,-0.27 3.56,0.1 4.8,0.67 0.51,0.23 1.24,0.5 1.66,0.91 1.56,1.52 1.38,4.06 -0.85,4.96zm-1.68 -2.71c-0.04,-2.29 -2.56,-2.78 -3.93,-2.7l0 4.77c0.85,0.36 3.96,-0.2 3.93,-2.07z"/>
    <path class="fil7 str0" d="M122.76 200.17l-4.87 0.09 -0.04 -0.64c0.23,-0.07 0.62,-0.24 0.7,-0.36 0.09,-0.12 0.13,-0.27 0.13,-0.45l0 -5.91 -4.14 3.89c0,0.33 0.03,2.21 0.12,2.32 0.08,0.1 0.24,0.2 0.47,0.28 0.08,0.03 0.19,0.06 0.33,0.08l-0.02 0.7 -5.09 0c-0.02,-0.11 -0.11,-0.63 0.06,-0.66 0.13,-0.01 0.23,-0.03 0.31,-0.06 0.22,-0.06 0.38,-0.16 0.47,-0.29 0.08,-0.13 0.13,-0.28 0.13,-0.45l-0.01 -7.34c0,-0.17 -0.04,-0.31 -0.12,-0.43 -0.08,-0.11 -0.24,-0.22 -0.48,-0.3 -0.13,-0.05 -0.3,-0.1 -0.5,-0.14l0.01 -0.7 5.1 0 0.02 0.71c-0.08,0.02 -0.14,0.03 -0.19,0.04 -0.24,0.07 -0.4,0.17 -0.48,0.31 -0.08,0.14 -0.11,0.28 -0.11,0.44l0 3.82 4.14 -3.73c0,-0.25 -0.04,-0.28 -0.13,-0.39 -0.09,-0.1 -0.25,-0.19 -0.47,-0.27 -0.08,-0.03 -0.34,-0.07 -0.45,-0.07l0.06 -0.75 5 -0.04 0.07 0.75c-0.29,-0.02 -0.65,0.19 -0.73,0.33 -0.09,0.13 -0.12,0.28 -0.12,0.44l0 7.34c0,0.18 0.04,0.33 0.12,0.45 0.08,0.12 0.38,0.21 0.62,0.29l0.09 0.7z"/>
    <path class="fil7 str0" d="M144.96 200.16l-4.78 0.01 0 -0.57c0.23,-0.07 0.61,-0.24 0.7,-0.36 0.09,-0.12 0.13,-0.27 0.13,-0.45l0 -5.03 -4.02 -0.01c0,0.33 -0.06,5.22 0.02,5.33 0.08,0.11 0.24,0.2 0.47,0.28 0.08,0.03 0.19,0.06 0.32,0.08l-0.01 0.69 -5.06 0c-0.02,-0.11 -0.11,-0.63 0.06,-0.66 0.13,-0.01 0.23,-0.03 0.31,-0.06 0.22,-0.06 0.37,-0.15 0.46,-0.28 0.09,-0.13 0.13,-0.28 0.13,-0.46l0.02 -7.29c0,-0.17 -0.04,-0.31 -0.11,-0.43 -0.08,-0.12 -0.24,-0.22 -0.48,-0.3 -0.13,-0.05 -0.3,-0.1 -0.49,-0.14l0.01 -0.69 5.06 0 0.01 0.71c-0.07,0.02 -0.13,0.03 -0.18,0.04 -0.23,0.06 -0.43,0.21 -0.52,0.35l0 1.7 4.04 0.01 0 -1.21c0,-0.26 -0.04,-0.29 -0.13,-0.39 -0.09,-0.11 -0.24,-0.2 -0.46,-0.28 -0.08,-0.03 -0.34,-0.06 -0.45,-0.07l0.06 -0.75 4.97 -0.02 0.07 0.75c-0.29,-0.02 -0.65,0.18 -0.73,0.32 -0.08,0.13 -0.12,0.28 -0.12,0.44l-0.02 7.3c-0.01,0.18 0.03,0.33 0.11,0.45 0.08,0.12 0.38,0.2 0.61,0.29l0 0.7z"/>
    <path class="fil7 str0" d="M168.4 200.19l-6.47 0 0 -0.61c0.3,-0.01 0.65,-0.07 1.06,-0.15 0.41,-0.08 0.61,-0.18 0.61,-0.3 0,-0.04 0,-0.09 -0.01,-0.14 -0.01,-0.05 -0.02,-0.12 -0.07,-0.21 -1.2,-1.99 -2.8,-3.02 -4.66,-3.39 -0.09,0.21 -0.66,1.56 -0.78,1.85 -0.11,0.28 -0.21,0.54 -0.29,0.76 -0.11,0.29 -0.17,0.5 -0.19,0.63 -0.02,0.13 -0.03,0.22 -0.03,0.28 0,0.16 0.13,0.3 0.41,0.42 0.27,0.12 0.72,0.2 1.35,0.25l0 0.61 -4.88 0 0 -0.61c0.19,0 0.39,-0.03 0.63,-0.08 0.13,-0.02 0.84,-0.68 0.94,-0.8 0.16,-0.18 0.29,-0.4 0.4,-0.64 0.64,-1.47 1.28,-2.82 1.93,-4.29 0.4,-0.9 1.08,-2.09 1.13,-3.19 0.01,-0.15 -0.4,-0.17 -0.4,-0.31l0.03 -0.56 4.87 0.01 0 0.73c-1.14,0.27 1.96,6.2 2.78,7.99 0.08,0.16 0.17,0.3 0.28,0.43 0.32,0.36 0.17,0.52 0.8,0.64 0.21,0.04 0.39,0.07 0.56,0.07l0 0.61zm-6.24 -4.48l-1.74 -3.72 -1.22 2.63c1.01,0.03 2,0.35 2.96,1.09z"/>
    <path class="fil7 str0" d="M187.85 192.76l-0.57 0c-0.64,-0.85 -0.89,-1.62 -1.66,-1.83 -0.15,-0.04 -0.35,-0.04 -0.58,-0.05 -0.24,-0.02 -0.43,-0.02 -0.6,-0.02l-0.35 0 0 7.74c0,0.18 0.04,0.33 0.1,0.47 0.06,0.13 0.19,0.24 0.38,0.32 0.11,0.04 0.28,0.08 0.52,0.13 0.24,0.05 0.44,0.08 0.61,0.1l0 0.57 -6.77 0 0 -0.57c0.14,-0.01 0.34,-0.03 0.59,-0.06 0.26,-0.03 0.44,-0.06 0.53,-0.1 0.19,-0.08 0.32,-0.18 0.38,-0.32 0.07,-0.13 0.1,-0.28 0.1,-0.46l0 -7.82c-0.49,0 -1.06,-0.08 -1.52,0.07 -0.78,0.26 -1.23,0.94 -1.67,1.83l-0.57 0 0.85 -2.98 9.2 0 1.03 2.98z"/>
   </g>
  </g>
 </g>
</svg>
