<?xml version="1.0" encoding="UTF-8"?>
<!DOCTYPE svg PUBLIC "-//W3C//DTD SVG 1.1//EN" "http://www.w3.org/Graphics/SVG/1.1/DTD/svg11.dtd">
<!-- Creator: CorelDRAW 2018 (64-Bit) -->
<svg xmlns="http://www.w3.org/2000/svg" xml:space="preserve" width="639px" height="94px" version="1.1" style="shape-rendering:geometricPrecision; text-rendering:geometricPrecision; image-rendering:optimizeQuality; fill-rule:evenodd; clip-rule:evenodd"
viewBox="0 0 612.72 90.1"
 xmlns:xlink="http://www.w3.org/1999/xlink">
 <defs>
  <style type="text/css">
   <![CDATA[
    .str0 {stroke:#FEFEFE;stroke-width:0.31;stroke-miterlimit:22.9256}
    .fil0 {fill:#FEFEFE;fill-rule:nonzero}
   ]]>
  </style>
 </defs>
 <g id="Layer_x0020_1">
  <metadata id="CorelCorpID_0Corel-Layer"/>
  <g id="_1894750153600">
   <g>
    <path class="fil0 str0" d="M471.96 47.29c-0.88,-1.32 -2.47,-2.42 -4.74,-3.3 -2.37,-0.88 -4.74,-1.32 -7.11,-1.32 -1.29,0 -2.38,0.27 -3.26,0.8 -0.89,0.52 -1.34,1.18 -1.34,1.98 0,1.05 0.74,1.84 2.22,2.37 1.39,0.62 3.22,0.93 5.49,0.93 3.36,0 6.27,-0.49 8.74,-1.46zm-47.73 13.61c1.29,-2.12 3.56,-5.77 6.82,-10.96 3.96,-6.34 6.82,-10.7 8.6,-13.08 1.98,-2.81 3.85,-5.15 5.63,-6.99 2.47,-2.65 4.89,-5.02 7.27,-7.14 2.57,-2.11 5.04,-3.96 7.41,-5.54 2.27,-1.5 5.14,-3.13 8.6,-4.89 2.96,-1.41 6.12,-2.73 9.48,-3.96 -6.92,-3.7 -14.23,-5.54 -21.94,-5.54 -8,0 -15.61,1.8 -22.82,5.41 -7.12,3.61 -12.8,8.45 -17.05,14.52 -4.25,6.08 -6.37,12.59 -6.37,19.55 0,4.84 1.23,8.89 3.7,12.15 2.47,3.16 6.03,5.32 10.67,6.47zm6.08 3.16c-3.46,3.88 -7.11,7.27 -10.97,10.17 -3.95,2.99 -8.1,5.37 -12.45,7.13 -4.25,1.85 -8.69,3.08 -13.34,3.7 2.37,0.53 5.04,0.97 8.01,1.32 3.16,0.35 5.88,0.53 8.15,0.53 3.75,0 7.61,-0.62 11.56,-1.85 3.76,-1.23 7.07,-2.91 9.93,-5.02 -0.2,-0.88 -0.29,-1.8 -0.29,-2.77 0,-1.94 0.54,-3.61 1.63,-5.02 0.98,-1.32 2.17,-1.98 3.55,-1.98 0.79,0 1.44,0.26 1.93,0.79 0.49,0.44 0.74,1.1 0.74,1.98 0,2.64 -1.58,5.15 -4.74,7.53 0.69,1.85 2.12,3.34 4.3,4.49 2.17,1.06 4.79,1.58 7.85,1.58 5.04,0 9.84,-1.32 14.38,-3.96 4.45,-2.73 8.01,-6.34 10.67,-10.83 2.67,-4.4 4.01,-9.11 4.01,-14.12 0,-3.08 -0.65,-5.9 -1.93,-8.45 -3.46,1.05 -6.77,1.58 -9.93,1.58 -3.26,0 -5.93,-0.53 -8.01,-1.58 -2.07,-1.15 -3.11,-2.6 -3.11,-4.36 0.1,-1.67 1.14,-3.04 3.11,-4.1 1.88,-1.05 4.3,-1.58 7.27,-1.58 5.53,0 10.57,1.85 15.12,5.55 3.75,-1.85 6.62,-4.32 8.59,-7.4 2.18,-3.17 3.26,-6.6 3.26,-10.3 0,-3.25 -0.84,-6.38 -2.52,-9.37 -1.68,-3 -3.95,-5.59 -6.81,-7.79 -4.95,1.4 -9.39,3.47 -13.35,6.2 -4.24,2.82 -8.1,6.25 -11.56,10.3 -3.75,4.32 -7.31,9.42 -10.67,15.32 -3.46,6.07 -5.39,9.51 -5.78,10.3 -2.08,3.43 -4.35,6.69 -6.82,9.77 4.15,-0.18 8.8,-1.41 13.93,-3.7l0.89 1.85c-2.57,1.32 -5.23,2.33 -8,3.04 -3.06,0.7 -5.93,1.05 -8.6,1.05zm54.55 -57.57c2.97,-0.61 5.68,-1.1 8.15,-1.45 2.28,-0.18 4.4,-0.26 6.38,-0.26 3.46,0 6.57,0.35 9.34,1.05 3.06,0.71 5.33,1.63 6.81,2.78 1.68,1.23 2.52,2.55 2.52,3.96 0,0.79 -0.29,1.45 -0.89,1.98 -0.49,0.53 -1.18,0.79 -2.07,0.79 -0.79,0 -1.53,-0.18 -2.22,-0.53 -0.79,-0.35 -1.83,-1.14 -3.12,-2.37 -4.15,-3.44 -9.14,-5.15 -14.97,-5.15 -1.88,0 -4.44,0.3 -7.71,0.92 2.57,2.02 4.55,4.4 5.93,7.13 1.39,2.73 2.08,5.77 2.08,9.11 0,4.58 -1.39,8.85 -4.15,12.81 -1.48,2.02 -3.16,3.81 -5.04,5.35 -1.88,1.54 -4,2.88 -6.38,4.02 2.28,3.44 3.41,7.09 3.41,10.96 0,5.37 -1.73,10.44 -5.18,15.19 -3.36,4.93 -7.86,8.89 -13.49,11.88 -5.73,2.91 -11.66,4.36 -17.79,4.36 -3.56,0 -6.57,-0.57 -9.04,-1.72 -2.47,-1.23 -4.25,-2.99 -5.34,-5.28 -3.06,2.38 -6.92,4.23 -11.56,5.55 -4.55,1.23 -9.29,1.85 -14.23,1.85 -4.65,0 -11.56,-0.49 -20.75,-1.46 -3.36,-0.35 -5.78,-0.52 -7.27,-0.52 -3.36,0 -6.82,0.61 -10.37,1.84 -1.09,0.44 -1.93,0.66 -2.52,0.66 -0.79,0 -1.44,-0.22 -1.93,-0.66 -0.49,-0.52 -0.74,-1.05 -0.74,-1.58 0,-1.41 0.94,-2.55 2.82,-3.43 1.77,-0.88 4.1,-1.32 6.96,-1.32 1.68,0 4.45,0.13 8.3,0.39 1.88,0.18 3.56,0.27 5.04,0.27 5.24,0 9.98,-0.71 14.23,-2.12 4.15,-1.4 8.11,-3.61 11.86,-6.6 3.56,-2.9 7.22,-6.86 10.97,-11.88 -3.85,-1.23 -7.16,-2.95 -9.93,-5.15 -2.67,-2.11 -4.69,-4.67 -6.08,-7.66 -1.38,-2.91 -2.07,-6.34 -2.07,-10.3 0,-5.19 1.43,-10.21 4.3,-15.05 1.48,-2.29 3.21,-4.51 5.18,-6.67 1.98,-2.16 4.3,-4.2 6.97,-6.14 5.04,-3.7 10.92,-6.6 17.64,-8.72 6.62,-2.11 13.54,-3.16 20.75,-3.16 4.74,0 9.34,0.57 13.79,1.71 4.44,1.06 8.25,2.6 11.41,4.62z"/>
    <path class="fil0 str0" d="M509.49 38.03c0,2.27 -1.82,5.21 -5.48,8.81 -3.19,3.18 -6.17,5.42 -8.93,6.7 -0.81,1.82 -1.68,3.73 -2.62,5.74 1.79,-1.93 3.17,-3.29 4.15,-4.09 3.15,-2.57 5.7,-3.86 7.65,-3.86 1.92,0 2.87,0.77 2.87,2.33 0,1.66 -1.31,3.39 -3.95,5.17 -2.64,1.78 -5.36,2.9 -8.17,3.35 2.43,3.07 4.34,4.66 5.74,4.77 1.58,0.16 2.88,-0.26 3.9,-1.25 0.08,-0.11 0.19,-0.17 0.32,-0.17 0.51,0 0.76,0.21 0.76,0.63 0,0.11 -0.06,0.23 -0.19,0.34 -2,1.48 -4.13,2.22 -6.38,2.22 -1.57,0 -3.15,-0.7 -4.72,-2.11 -0.3,-0.26 -1.47,-1.55 -3.51,-3.86 -1.15,2.54 -1.79,4 -1.91,4.37 -0.17,0.5 -1.36,1.03 -3.58,1.6 -0.25,0.07 -0.42,0.03 -0.51,-0.12 -0.12,-0.19 -0.1,-0.47 0.07,-0.85l9.95 -21.37c1.32,-2.76 3.1,-5.24 5.36,-7.44 2.46,-2.35 4.7,-3.52 6.7,-3.52 1.66,0 2.48,0.87 2.48,2.61zm-2.48 -0.28c0,-0.61 -0.26,-0.91 -0.77,-0.91 -1.06,0 -2.49,1.28 -4.27,3.86 -1.36,1.86 -3.32,5.44 -5.87,10.74 2.04,-1.06 4.31,-3.09 6.82,-6.08 2.73,-3.26 4.09,-5.8 4.09,-7.61zm-3.64 15.4c0,-0.35 -0.23,-0.52 -0.7,-0.52 -1.06,0 -3.02,1.37 -5.87,4.1 -2.72,2.53 -4.08,3.95 -4.08,4.26 0,0.22 0.36,0.34 1.08,0.34 1.66,0 3.67,-1.01 6.03,-3.01 2.36,-2.01 3.54,-3.73 3.54,-5.17z"/>
    <path class="fil0 str0" d="M527.36 52.18c-0.21,0.42 -2.02,4.77 -5.42,13.07 1.19,-0.76 2,-1.4 2.42,-1.93 0.51,0 0.87,0.24 1.09,0.74 -0.73,0.75 -2.15,1.76 -4.28,3.01l-0.44 1.13c-1.28,3.04 -3.22,5.9 -5.81,8.59 -2.98,3.03 -5.74,4.54 -8.29,4.54 -1.79,0 -2.68,-0.79 -2.68,-2.38 0,-0.91 0.59,-2.04 1.78,-3.39 1.19,-1.34 2.68,-2.56 4.47,-3.66 1.19,-0.72 3.4,-1.97 6.63,-3.75l1.98 -4.38c-0.89,1.03 -2.06,2.05 -3.51,3.07 -1.78,1.29 -3.17,1.93 -4.14,1.93 -0.85,0 -1.57,-0.26 -2.14,-0.79 -0.57,-0.53 -0.86,-1.18 -0.86,-1.93 0,-1.1 1.02,-3.26 3.06,-6.48 2.21,-3.49 3.32,-5.5 3.32,-6.03 0,-0.6 -0.28,-0.91 -0.83,-0.91 -0.47,0 -1.32,0.31 -2.55,0.91 -0.47,-0.11 -0.77,-0.38 -0.9,-0.79 0.94,-1.06 2.51,-1.59 4.72,-1.59 2,0 3,0.77 3,2.33 0,0.83 -1.16,3.16 -3.47,6.99 -2.32,3.82 -3.48,5.94 -3.48,6.36 0,0.42 0.21,0.63 0.64,0.63 1.27,0 3.12,-1.24 5.55,-3.7 2.08,-2.2 3.46,-3.99 4.14,-5.4l2.62 -5.68c0.38,-0.72 0.76,-1.12 1.15,-1.19 0.59,-0.12 1.02,-0.17 1.27,-0.17 0.73,0 1.09,0.17 1.09,0.51 0,0.07 -0.04,0.19 -0.13,0.34zm-11.29 17.73c-2.09,1.14 -3.42,1.91 -4.02,2.33 -1.36,1.02 -2.55,2.14 -3.57,3.35 -1.19,1.4 -1.79,2.52 -1.79,3.36 0,0.68 0.34,1.02 1.02,1.02 1.11,0 2.43,-0.9 3.96,-2.7 1.53,-1.8 2.83,-3.86 3.89,-6.17l0.51 -1.19z"/>
    <path class="fil0 str0" d="M544.33 54.17c0,0.95 -0.31,1.68 -0.92,2.19 -0.62,0.51 -1.27,0.76 -1.95,0.76 -1.28,0 -1.91,-0.55 -1.91,-1.64 0,-0.53 0.33,-1.04 0.99,-1.51 0.65,-0.47 0.98,-0.82 0.98,-1.05 0,-0.38 -0.21,-0.57 -0.63,-0.57 -1.45,0 -3.21,1.93 -5.3,5.8 -1.91,3.63 -2.87,6.3 -2.87,8.01 0,0.83 0.41,1.25 1.21,1.25 1.07,0 2.38,-0.61 3.96,-1.82 1.32,-0.98 2.23,-1.86 2.74,-2.61 0.21,-0.08 0.44,-0.03 0.67,0.14 0.23,0.17 0.35,0.39 0.35,0.65 -0.76,0.95 -1.76,1.9 -3,2.84 -1.87,1.44 -3.65,2.16 -5.35,2.16 -2.77,0 -4.15,-1.57 -4.15,-4.71 0,-2.73 1.35,-5.57 4.05,-8.53 2.7,-2.95 5.35,-4.43 7.94,-4.43 2.13,0 3.19,1.02 3.19,3.07z"/>
    <path class="fil0 str0" d="M561.62 51.95c0.47,-0.26 1,-0.45 1.6,-0.57 0.59,-0.11 1.12,-0.17 1.59,-0.17 0.47,0 0.7,0.21 0.7,0.63 -0.04,0 -0.24,0.33 -0.6,0.99 -0.37,0.67 -0.82,1.51 -1.38,2.53 -0.55,1.02 -1.13,2.14 -1.75,3.35 -0.62,1.22 -1.19,2.37 -1.72,3.47 -0.53,1.1 -0.97,2.06 -1.31,2.87 -0.34,0.82 -0.51,1.34 -0.51,1.56 0,0.57 0.38,0.86 1.15,0.86 1.53,0 3.08,-1.22 4.65,-3.64 0.34,-0.08 0.58,-0.11 0.71,-0.11 0.34,0 0.51,0.15 0.51,0.45 -0.77,1.29 -1.79,2.38 -3.07,3.27 -1.27,0.89 -2.44,1.33 -3.5,1.33 -1.24,0 -2.09,-0.21 -2.56,-0.62 -0.46,-0.42 -0.7,-1.06 -0.7,-1.93 0,-0.84 0.21,-1.88 0.64,-3.13 0.3,-0.91 0.64,-1.84 1.02,-2.78l-0.13 0c-0.85,0 -1.76,0.01 -2.74,0.05 -0.72,0 -1.4,0.02 -2.04,0.06 -0.09,0.15 -0.17,0.3 -0.26,0.45l-3.38 6.82c-0.34,0.42 -0.76,0.68 -1.27,0.77 -0.51,0.1 -1.07,0.14 -1.66,0.14 -0.51,0 -0.77,-0.22 -0.77,-0.68 0,-0.11 1.17,-2.37 3.51,-6.76 2.04,-3.9 3.06,-6.21 3.06,-6.93 0,-0.72 -0.29,-1.08 -0.89,-1.08 -0.13,0 -0.96,0.2 -2.49,0.62 -0.34,-0.11 -0.51,-0.3 -0.51,-0.57 0,-0.34 0.23,-0.62 0.67,-0.85 0.45,-0.23 0.97,-0.43 1.56,-0.6 0.6,-0.17 1.2,-0.29 1.79,-0.37 0.6,-0.07 1.02,-0.11 1.28,-0.11 0.59,0 1.13,0.18 1.62,0.54 0.49,0.36 0.74,0.86 0.74,1.51 0,1.02 -0.81,3.05 -2.43,6.08 0.51,0 1.11,0 1.79,0 0.81,0.03 1.79,0.05 2.93,0.05 0.05,-0.07 0.09,-0.15 0.13,-0.22 0.64,-1.37 1.32,-2.69 2.04,-3.98 0.73,-1.29 1.38,-2.39 1.98,-3.3z"/>
    <path class="fil0 str0" d="M586.06 60.7c-0.73,0.65 -1.54,0.97 -2.43,0.97 -0.13,0 -0.32,-0.02 -0.57,-0.06 -1.24,2.01 -2.81,3.71 -4.72,5.09 -1.92,1.38 -3.68,2.07 -5.3,2.07 -3.27,0 -4.91,-1.46 -4.91,-4.37 0,-3.15 1.4,-6.17 4.21,-9.07 2.81,-2.89 5.95,-4.34 9.44,-4.34 0.6,0 0.89,0.11 0.89,0.34 0,0.38 -0.29,0.57 -0.89,0.57 -2.38,0 -4.78,1.85 -7.21,5.56 -2.21,3.41 -3.31,6.27 -3.31,8.59 0,1.21 0.63,1.81 1.91,1.81 1.15,0 2.48,-0.7 3.99,-2.1 1.51,-1.4 2.79,-3.05 3.86,-4.94 -1.37,-0.91 -2.05,-2.18 -2.05,-3.81 0,-1.44 0.37,-2.56 1.09,-3.35 0.64,-0.68 1.34,-1.03 2.1,-1.03 1.83,0 2.75,1.08 2.75,3.24 0,1.52 -0.45,3.11 -1.34,4.78 0.29,0.03 0.46,0.05 0.51,0.05 0.51,0 1.04,-0.2 1.59,-0.62 0.43,0.07 0.56,0.28 0.39,0.62zm-3.26 -5.11c0,-1.29 -0.3,-1.93 -0.89,-1.93 -0.77,0 -1.15,1.06 -1.15,3.18 0,1.36 0.28,2.35 0.83,2.95 0.81,-1.66 1.21,-3.06 1.21,-4.2z"/>
    <path class="fil0 str0" d="M612.55 33.58l-16.53 27.9 -1.08 -0.17 13.4 -27.73c0.29,-0.49 0.93,-0.74 1.91,-0.74 1.36,0 2.13,0.25 2.3,0.74zm-16.97 32.22c0,0.95 -0.41,1.88 -1.22,2.81 -0.8,0.93 -1.72,1.4 -2.74,1.4 -1.15,0 -1.72,-0.61 -1.72,-1.82 0,-0.91 0.41,-1.84 1.24,-2.79 0.83,-0.95 1.74,-1.42 2.71,-1.42 1.15,0 1.73,0.61 1.73,1.82z"/>
   </g>
   <g>
    <path class="fil0 str0" d="M270.57 53c0.47,-0.27 1,-0.46 1.6,-0.57 0.59,-0.11 1.13,-0.17 1.59,-0.17 0.47,0 0.7,0.21 0.7,0.62 -0.04,0 -0.24,0.34 -0.6,1 -0.36,0.66 -0.82,1.5 -1.37,2.53 -0.56,1.02 -1.14,2.14 -1.76,3.35 -0.61,1.21 -1.19,2.37 -1.72,3.47 -0.53,1.09 -0.97,2.05 -1.31,2.87 -0.34,0.81 -0.51,1.33 -0.51,1.56 0,0.57 0.38,0.85 1.15,0.85 1.53,0 3.08,-1.21 4.66,-3.64 0.34,-0.07 0.57,-0.11 0.7,-0.11 0.34,0 0.51,0.15 0.51,0.46 -0.77,1.28 -1.79,2.37 -3.06,3.26 -1.28,0.89 -2.45,1.34 -3.51,1.34 -1.23,0 -2.09,-0.21 -2.55,-0.63 -0.47,-0.41 -0.7,-1.06 -0.7,-1.93 0,-0.83 0.21,-1.87 0.63,-3.12 0.3,-0.91 0.64,-1.84 1.02,-2.79l-0.12 0c-0.85,0 -1.77,0.02 -2.75,0.06 -0.72,0 -1.4,0.02 -2.04,0.05 -0.08,0.16 -0.17,0.31 -0.25,0.46l-3.38 6.82c-0.34,0.41 -0.77,0.67 -1.28,0.77 -0.51,0.09 -1.06,0.14 -1.66,0.14 -0.51,0 -0.76,-0.23 -0.76,-0.68 0,-0.12 1.16,-2.37 3.5,-6.77 2.05,-3.9 3.07,-6.21 3.07,-6.93 0,-0.72 -0.3,-1.08 -0.9,-1.08 -0.12,0 -0.95,0.21 -2.48,0.63 -0.34,-0.12 -0.52,-0.31 -0.52,-0.57 0,-0.34 0.23,-0.63 0.67,-0.85 0.45,-0.23 0.97,-0.43 1.57,-0.6 0.59,-0.17 1.19,-0.3 1.78,-0.37 0.6,-0.08 1.02,-0.11 1.28,-0.11 0.6,0 1.14,0.18 1.63,0.54 0.49,0.36 0.73,0.86 0.73,1.5 0,1.02 -0.81,3.05 -2.42,6.08 0.51,0 1.1,0 1.78,0 0.81,0.04 1.79,0.06 2.94,0.06 0.04,-0.08 0.08,-0.15 0.12,-0.23 0.64,-1.36 1.32,-2.69 2.05,-3.98 0.72,-1.28 1.38,-2.38 1.97,-3.29zm25.01 0.22c-0.21,0.42 -2.02,4.78 -5.42,13.07 1.19,-0.75 2,-1.4 2.42,-1.93 0.51,0 0.87,0.25 1.09,0.74 -0.73,0.76 -2.15,1.76 -4.28,3.01l-0.44 1.14c-1.28,3.03 -3.22,5.89 -5.81,8.58 -2.98,3.03 -5.74,4.55 -8.29,4.55 -1.79,0 -2.68,-0.8 -2.68,-2.39 0,-0.91 0.59,-2.04 1.78,-3.38 1.19,-1.35 2.68,-2.57 4.47,-3.67 1.19,-0.72 3.4,-1.97 6.63,-3.75l1.98 -4.37c-0.89,1.02 -2.06,2.04 -3.51,3.07 -1.78,1.28 -3.17,1.93 -4.14,1.93 -0.85,0 -1.57,-0.27 -2.14,-0.8 -0.57,-0.53 -0.86,-1.17 -0.86,-1.93 0,-1.1 1.02,-3.26 3.06,-6.48 2.21,-3.48 3.32,-5.49 3.32,-6.02 0,-0.61 -0.28,-0.91 -0.83,-0.91 -0.47,0 -1.32,0.3 -2.55,0.91 -0.47,-0.12 -0.77,-0.38 -0.9,-0.8 0.94,-1.06 2.51,-1.59 4.72,-1.59 2,0 3,0.78 3,2.33 0,0.84 -1.16,3.17 -3.47,6.99 -2.32,3.83 -3.48,5.95 -3.48,6.37 0,0.41 0.21,0.62 0.64,0.62 1.27,0 3.12,-1.23 5.55,-3.69 2.08,-2.2 3.46,-4 4.14,-5.4l2.62 -5.68c0.38,-0.72 0.76,-1.12 1.15,-1.2 0.59,-0.11 1.02,-0.17 1.27,-0.17 0.73,0 1.09,0.17 1.09,0.51 0,0.08 -0.04,0.19 -0.13,0.34zm-11.29 17.73c-2.09,1.14 -3.42,1.92 -4.02,2.33 -1.36,1.03 -2.55,2.15 -3.57,3.36 -1.19,1.4 -1.79,2.52 -1.79,3.35 0,0.68 0.34,1.02 1.02,1.02 1.11,0 2.43,-0.9 3.96,-2.7 1.53,-1.8 2.83,-3.85 3.89,-6.16l0.51 -1.2zm28.26 -3.46c0,-2.2 1.38,-5.76 4.15,-10.69l-0.2 -0.22c-0.08,0.07 -0.33,0.33 -0.73,0.76 -0.4,0.44 -0.89,0.96 -1.47,1.57 -0.57,0.6 -1.19,1.24 -1.85,1.9 -0.66,0.66 -1.3,1.3 -1.94,1.9 -0.38,0.35 -0.72,0.67 -1.02,0.97 -0.43,0.57 -0.9,1.12 -1.41,1.65 -1.14,1.29 -2.43,2.36 -3.86,3.21 -1.42,0.85 -2.77,1.28 -4.05,1.28 -2.12,0 -3.19,-1.02 -3.19,-3.07 0,-0.95 0.31,-1.68 0.93,-2.19 0.62,-0.51 1.26,-0.77 1.94,-0.77 1.28,0 1.92,0.55 1.92,1.65 0,0.27 -0.11,0.53 -0.32,0.8 -0.21,0.26 -0.44,0.51 -0.67,0.74 -0.23,0.22 -0.46,0.42 -0.67,0.59 -0.21,0.17 -0.32,0.32 -0.32,0.43 0,0.38 0.21,0.57 0.64,0.57 0.72,0 1.55,-0.57 2.49,-1.71 0.93,-1.13 1.83,-2.47 2.68,-4 0.85,-1.54 1.56,-3.07 2.13,-4.61 0.58,-1.53 0.86,-2.7 0.86,-3.49 0,-0.83 -0.4,-1.25 -1.21,-1.25 -0.47,0 -1.02,0.15 -1.66,0.45 -0.63,0.31 -1.28,0.69 -1.94,1.14 -0.66,0.45 -1.27,0.94 -1.82,1.45 -0.55,0.51 -0.98,0.97 -1.28,1.39 -0.04,0.04 -0.1,0.06 -0.19,0.06 -0.21,0 -0.4,-0.09 -0.57,-0.26 -0.17,-0.17 -0.26,-0.37 -0.26,-0.59 0.51,-0.65 1.11,-1.27 1.79,-1.88 0.68,-0.61 1.39,-1.14 2.14,-1.59 0.74,-0.46 1.5,-0.82 2.26,-1.11 0.77,-0.28 1.49,-0.43 2.17,-0.43 2.76,0 4.15,1.58 4.15,4.72 0,1.1 -0.28,2.27 -0.83,3.52 0.85,-0.9 1.87,-1.97 3.06,-3.18 1.49,-1.51 2.76,-2.64 3.83,-3.38 1.06,-0.74 1.85,-1.11 2.36,-1.11 0.59,0 0.9,0.06 0.92,0.17 0.02,0.12 0.03,0.27 0.03,0.46 0,-0.12 -0.23,0.3 -0.7,1.25 -0.93,1.93 -1.72,3.55 -2.36,4.86 -0.64,1.3 -1.16,2.39 -1.56,3.26 -0.4,0.88 -0.69,1.56 -0.86,2.05 -0.17,0.49 -0.26,0.91 -0.26,1.25l-0.25 0.97c0.13,-0.12 0.42,-0.41 0.89,-0.88 0.47,-0.48 1.02,-1.04 1.66,-1.68 0.64,-0.64 1.32,-1.33 2.04,-2.05 0.55,-0.56 1.11,-1.11 1.66,-1.64 0.76,-1.48 1.73,-2.86 2.9,-4.15 1.17,-1.29 2.47,-2.36 3.89,-3.21 1.43,-0.86 2.78,-1.28 4.05,-1.28 2.13,0 3.19,1.02 3.19,3.07 0,0.94 -0.3,1.67 -0.92,2.18 -0.62,0.52 -1.27,0.77 -1.95,0.77 -1.27,0 -1.91,-0.55 -1.91,-1.65 0,-0.26 0.11,-0.53 0.32,-0.79 0.21,-0.27 0.43,-0.51 0.67,-0.74 0.23,-0.23 0.46,-0.43 0.67,-0.6 0.21,-0.17 0.32,-0.31 0.32,-0.42 0,-0.38 -0.22,-0.57 -0.64,-0.57 -0.72,0 -1.55,0.57 -2.49,1.7 -0.93,1.14 -1.83,2.47 -2.68,4.01 -0.85,1.53 -1.56,3.07 -2.14,4.6 -0.57,1.54 -0.86,2.7 -0.86,3.5 0,0.83 0.41,1.25 1.22,1.25 0.42,0 0.96,-0.15 1.62,-0.46 0.66,-0.3 1.32,-0.68 1.98,-1.13 0.66,-0.46 1.27,-0.94 1.82,-1.45 0.55,-0.51 0.98,-0.98 1.27,-1.39l0.2 -0.06c0.21,0 0.4,0.08 0.57,0.25 0.17,0.17 0.25,0.37 0.25,0.6 -0.51,0.64 -1.1,1.27 -1.78,1.88 -0.68,0.6 -1.39,1.13 -2.14,1.59 -0.74,0.45 -1.5,0.82 -2.26,1.11 -0.77,0.28 -1.49,0.42 -2.17,0.42 -2.77,0 -4.15,-1.57 -4.15,-4.72 0,-0.53 0.07,-1.09 0.19,-1.7 -0.47,0.49 -0.98,1.02 -1.53,1.59 -1.53,1.59 -2.76,2.79 -3.7,3.58 -0.93,0.8 -1.68,1.21 -2.23,1.25 -0.21,0 -0.43,-0.06 -0.64,-0.2 -0.21,-0.13 -0.32,-0.42 -0.32,-0.88 0,-0.15 0.01,-0.34 0.03,-0.57 0.02,-0.22 0.06,-0.43 0.1,-0.62zm40.19 -14.49c0.47,-0.27 1,-0.46 1.59,-0.57 0.6,-0.11 1.13,-0.17 1.6,-0.17 0.47,0 0.7,0.21 0.7,0.62 -0.04,0 -0.24,0.34 -0.61,1 -0.36,0.66 -0.81,1.5 -1.37,2.53 -0.55,1.02 -1.13,2.14 -1.75,3.35 -0.62,1.21 -1.19,2.37 -1.72,3.47 -0.53,1.09 -0.97,2.05 -1.31,2.87 -0.34,0.81 -0.51,1.33 -0.51,1.56 0,0.57 0.38,0.85 1.15,0.85 1.53,0 3.08,-1.21 4.65,-3.64 0.34,-0.07 0.58,-0.11 0.71,-0.11 0.34,0 0.51,0.15 0.51,0.46 -0.77,1.28 -1.79,2.37 -3.07,3.26 -1.27,0.89 -2.44,1.34 -3.5,1.34 -1.24,0 -2.09,-0.21 -2.56,-0.63 -0.46,-0.41 -0.7,-1.06 -0.7,-1.93 0,-0.83 0.21,-1.87 0.64,-3.12 0.3,-0.91 0.64,-1.84 1.02,-2.79l-0.13 0c-0.85,0 -1.76,0.02 -2.74,0.06 -0.72,0 -1.4,0.02 -2.04,0.05 -0.09,0.16 -0.17,0.31 -0.26,0.46l-3.38 6.82c-0.34,0.41 -0.76,0.67 -1.27,0.77 -0.51,0.09 -1.07,0.14 -1.66,0.14 -0.51,0 -0.77,-0.23 -0.77,-0.68 0,-0.12 1.17,-2.37 3.51,-6.77 2.04,-3.9 3.06,-6.21 3.06,-6.93 0,-0.72 -0.3,-1.08 -0.89,-1.08 -0.13,0 -0.96,0.21 -2.49,0.63 -0.34,-0.12 -0.51,-0.31 -0.51,-0.57 0,-0.34 0.22,-0.63 0.67,-0.85 0.45,-0.23 0.97,-0.43 1.56,-0.6 0.6,-0.17 1.19,-0.3 1.79,-0.37 0.6,-0.08 1.02,-0.11 1.28,-0.11 0.59,0 1.13,0.18 1.62,0.54 0.49,0.36 0.74,0.86 0.74,1.5 0,1.02 -0.81,3.05 -2.43,6.08 0.51,0 1.11,0 1.79,0 0.81,0.04 1.78,0.06 2.93,0.06 0.05,-0.08 0.09,-0.15 0.13,-0.23 0.64,-1.36 1.32,-2.69 2.04,-3.98 0.72,-1.28 1.38,-2.38 1.98,-3.29zm24.43 8.75c-0.72,0.64 -1.53,0.96 -2.42,0.96 -0.13,0 -0.32,-0.01 -0.58,-0.05 -1.23,2.01 -2.8,3.7 -4.72,5.08 -1.91,1.39 -3.68,2.08 -5.29,2.08 -3.28,0 -4.91,-1.46 -4.91,-4.38 0,-3.14 1.4,-6.16 4.21,-9.06 2.8,-2.9 5.95,-4.35 9.44,-4.35 0.59,0 0.89,0.11 0.89,0.34 0,0.38 -0.3,0.57 -0.89,0.57 -2.38,0 -4.79,1.86 -7.21,5.57 -2.21,3.41 -3.32,6.27 -3.32,8.58 0,1.21 0.64,1.82 1.92,1.82 1.14,0 2.47,-0.7 3.98,-2.1 1.51,-1.41 2.8,-3.05 3.86,-4.95 -1.36,-0.91 -2.04,-2.18 -2.04,-3.81 0,-1.43 0.36,-2.55 1.09,-3.35 0.63,-0.68 1.34,-1.02 2.1,-1.02 1.83,0 2.74,1.08 2.74,3.24 0,1.51 -0.44,3.1 -1.34,4.77 0.3,0.04 0.47,0.06 0.51,0.06 0.52,0 1.05,-0.21 1.6,-0.63 0.43,0.08 0.55,0.29 0.38,0.63zm-3.25 -5.12c0,-1.28 -0.3,-1.93 -0.89,-1.93 -0.77,0 -1.15,1.06 -1.15,3.18 0,1.37 0.27,2.35 0.83,2.96 0.8,-1.67 1.21,-3.07 1.21,-4.21z"/>
    <path class="fil0 str0" d="M124.97 40.91c1.24,0.09 2.8,0.13 4.7,0.13 4.84,0 9.68,-0.51 14.52,-1.52 4.84,-1.1 9.06,-2.66 12.66,-4.69 3.8,-2.03 7.07,-4.48 9.83,-7.35 -1.52,-1.78 -2.28,-3.6 -2.28,-5.46 0,-1.26 0.33,-2.32 0.99,-3.17 0.76,-0.84 1.71,-1.26 2.85,-1.26 1.04,0 1.85,0.38 2.42,1.14 0.66,0.76 1,1.77 1,3.04 0,2.03 -0.67,3.8 -2,5.33 1.9,1.6 4.61,2.4 8.12,2.4 2.08,0 4.17,-0.38 6.26,-1.14 1.9,-0.67 3.6,-1.6 5.12,-2.79 1.52,-1.18 2.75,-2.53 3.7,-4.05 0.86,-1.61 1.28,-3.22 1.28,-4.82 0,-2.79 -1.28,-5.11 -3.84,-6.97 -2.56,-1.78 -5.98,-2.67 -10.25,-2.67 -3.32,0 -6.92,0.55 -10.81,1.65 -3.8,1.02 -7.74,2.62 -11.82,4.82 -4.08,2.11 -8.2,4.69 -12.38,7.73 -4.36,3.21 -8.16,6.43 -11.38,9.64 -3.42,3.29 -6.31,6.63 -8.69,10.01zm-49.95 9.89c-1.24,-0.08 -2.8,-0.12 -4.7,-0.12 -4.84,0 -9.68,0.5 -14.52,1.52 -4.83,1.1 -9.06,2.66 -12.66,4.69 -3.8,2.03 -7.07,4.48 -9.82,7.35 1.52,1.78 2.27,3.59 2.27,5.45 0,1.27 -0.33,2.33 -0.99,3.17 -0.76,0.85 -1.71,1.27 -2.85,1.27 -1.04,0 -1.85,-0.38 -2.42,-1.14 -0.66,-0.76 -0.99,-1.77 -0.99,-3.04 0,-2.03 0.66,-3.81 1.99,-5.33 -1.9,-1.6 -4.6,-2.41 -8.11,-2.41 -2.09,0 -4.18,0.38 -6.27,1.14 -1.89,0.68 -3.6,1.61 -5.12,2.79 -1.52,1.19 -2.75,2.54 -3.7,4.06 -0.85,1.61 -1.28,3.21 -1.28,4.82 0,2.79 1.28,5.11 3.84,6.97 2.56,1.78 5.98,2.66 10.25,2.66 3.32,0 6.92,-0.54 10.82,-1.64 3.79,-1.02 7.73,-2.62 11.81,-4.82 4.08,-2.11 8.21,-4.69 12.38,-7.74 4.36,-3.21 8.16,-6.42 11.39,-9.63 3.41,-3.3 6.31,-6.64 8.68,-10.02zm51.66 -44.5c-6.54,2.88 -11.19,5.62 -13.95,8.24 -3.89,3.3 -6.26,6.98 -7.11,11.03 -1.05,3.72 -0.43,6.93 1.85,9.64 1.9,-2.79 3.3,-4.8 4.2,-6.02 0.9,-1.23 2.01,-2.69 3.34,-4.38 1.33,-1.69 2.47,-3.08 3.42,-4.18 3.51,-4.48 6.64,-8.11 9.39,-10.9 1.9,-2.2 3.94,-4.23 6.12,-6.09l-7.26 2.66zm7.26 -4.05c2.85,-0.93 4.27,-0.98 4.27,-0.13 -0.66,1.44 -2.66,3.93 -5.98,7.48 -4.93,5.24 -8.77,9.97 -11.53,14.2 -2.46,3.72 -5.45,8.49 -8.96,14.33 2.18,0.76 4.13,1.35 5.83,1.77 4.84,-5.07 10.11,-9.85 15.8,-14.33 5.5,-4.31 11.2,-8.11 17.08,-11.41 5.69,-3.12 11.34,-5.53 16.94,-7.22 5.59,-1.69 10.81,-2.54 15.65,-2.54 5.03,0 9.11,0.97 12.24,2.92 3.04,2.03 4.56,4.65 4.56,7.86 0,2.87 -1,5.58 -2.99,8.11 -1.99,2.45 -4.65,4.48 -7.97,6.09 -3.32,1.52 -6.79,2.28 -10.39,2.28 -4.18,0 -7.55,-0.93 -10.11,-2.79 -2.65,2.87 -5.97,5.37 -9.96,7.48 -3.89,2.11 -8.49,3.76 -13.81,4.95 -5.21,1.18 -10.48,1.77 -15.79,1.77 -2.19,0 -4.04,-0.04 -5.55,-0.13 -3.23,4.14 -5.89,8.71 -7.97,13.7 -2,4.9 -2.99,9.17 -2.99,12.8 0,2.87 0.76,5.41 2.27,7.61 1.52,2.19 3.66,3.89 6.41,5.07 2.85,1.18 6.07,1.77 9.68,1.77 4.74,0 9.53,-1.09 14.37,-3.29 4.84,-2.2 8.83,-4.99 11.96,-8.37 3.03,-3.38 4.55,-6.76 4.55,-10.14 0,-2.12 -0.66,-3.81 -1.99,-5.07 -1.42,-1.27 -3.27,-1.91 -5.55,-1.91 -2.37,0 -4.56,0.6 -6.55,1.78 -1.9,1.1 -3.94,3.08 -6.12,5.96l-1.71 -0.76c1.05,-2.28 2.52,-4.4 4.42,-6.34 1.89,-1.86 4.03,-3.34 6.4,-4.44 2.56,-1.01 4.98,-1.52 7.26,-1.52 2.66,0 4.84,0.76 6.55,2.28 1.7,1.52 2.56,3.59 2.56,6.21 0,3.05 -1.19,6.34 -3.56,9.89 -2.28,3.47 -5.5,6.81 -9.68,10.02 -4.46,3.38 -9.06,5.96 -13.8,7.73 -4.65,1.78 -9.35,2.66 -14.09,2.66 -4.46,0 -8.45,-0.76 -11.96,-2.28 -3.51,-1.52 -6.21,-3.67 -8.11,-6.46 -1.9,-2.79 -2.85,-5.96 -2.85,-9.51 0,-4.06 0.95,-8.37 2.85,-12.93 1.99,-4.65 4.69,-9.01 8.11,-13.06l2.14 -2.54c-1.33,-0.25 -3.18,-0.63 -5.56,-1.14l0.15 0c0,-0.08 -1,1.56 -2.99,4.95 -1.8,2.53 -5.27,8.32 -10.39,17.36l-10.68 23.84c-5.31,0 -7.97,-1.23 -7.97,-3.68 0,-1.26 0.72,-3.12 2.14,-5.58 1.61,-2.87 4.6,-7.98 8.97,-15.34 1.23,-1.94 2.41,-3.8 3.55,-5.57 -3.03,-2.2 -6.59,-3.81 -10.67,-4.82 -4.84,5.07 -10.11,9.84 -15.8,14.32 -5.5,4.31 -11.2,8.12 -17.08,11.41 -5.69,3.13 -11.34,5.54 -16.93,7.23 -5.6,1.69 -10.82,2.54 -15.66,2.54 -5.03,0 -9.11,-0.97 -12.24,-2.92 -3.04,-2.03 -4.55,-4.65 -4.55,-7.86 0,-2.87 0.99,-5.58 2.98,-8.11 2,-2.45 4.65,-4.48 7.97,-6.09 3.33,-1.52 6.79,-2.28 10.39,-2.28 4.18,0 7.55,0.93 10.11,2.79 2.66,-2.88 5.98,-5.37 9.96,-7.48 3.89,-2.12 8.49,-3.76 13.81,-4.95 5.22,-1.18 10.48,-1.77 15.8,-1.77 2.18,0 4.03,0.04 5.55,0.13 3.22,-4.15 5.88,-8.71 7.97,-13.7 1.99,-4.9 2.99,-9.17 2.99,-12.8 0,-2.88 -0.76,-5.41 -2.28,-7.61 -1.52,-2.2 -3.66,-3.89 -6.41,-5.07 -2.84,-1.18 -6.07,-1.78 -9.67,-1.78 -4.75,0 -9.54,1.1 -14.38,3.3 -4.84,2.2 -8.82,4.99 -11.95,8.37 -3.04,3.38 -4.56,6.76 -4.56,10.14 0,2.11 0.66,3.8 1.99,5.07 1.43,1.27 3.28,1.9 5.55,1.9 2.38,0 4.56,-0.59 6.55,-1.77 1.9,-1.1 3.94,-3.09 6.12,-5.96l1.71 0.76c-1.05,2.28 -2.52,4.4 -4.41,6.34 -1.9,1.86 -4.04,3.34 -6.41,4.44 -2.56,1.01 -4.98,1.52 -7.26,1.52 -2.65,0 -4.84,-0.76 -6.54,-2.28 -1.71,-1.52 -2.57,-3.6 -2.57,-6.22 0,-3.04 1.19,-6.33 3.56,-9.88 2.28,-3.47 5.51,-6.81 9.68,-10.02 4.46,-3.38 9.06,-5.96 13.81,-7.73 4.65,-1.78 9.34,-2.67 14.09,-2.67 4.46,0 8.44,0.76 11.95,2.29 3.51,1.52 6.22,3.67 8.11,6.46 1.9,2.79 2.85,5.96 2.85,9.51 0,4.06 -0.95,8.37 -2.85,12.93 -1.99,4.65 -4.69,9 -8.11,13.06l-2.13 2.54c3.7,0.59 7.3,1.86 10.81,3.8l0 0c5.22,-7.95 8.69,-13.14 10.39,-15.59l0 0c-2.37,-1.78 -3.79,-3.6 -4.27,-5.46 -0.66,-3.04 -0.57,-5.83 0.29,-8.36 1.14,-2.71 2.56,-5.16 4.27,-7.36 1.9,-2.45 4.79,-4.9 8.68,-7.35 3.32,-2.11 9.87,-4.56 19.64,-7.35z"/>
    <path class="fil0 str0" d="M190.19 52.94c-4.72,7.96 -7.08,12.84 -7.08,14.66 0,0.61 0.21,0.91 0.63,0.91 0.64,0 1.55,-0.56 2.72,-1.68 1.16,-1.11 1.92,-2.03 2.26,-2.75 0.64,-0.23 1.06,-0.15 1.28,0.23 -0.47,0.94 -1.34,2 -2.62,3.18 -1.66,1.55 -3.27,2.33 -4.85,2.33 -0.64,0 -1.21,-0.23 -1.72,-0.68 -0.64,-0.5 -0.96,-1.16 -0.96,-1.99 0,-0.84 0.36,-2.12 1.09,-3.87 -3.75,4.32 -6.57,6.48 -8.49,6.48 -1.91,0 -2.87,-0.83 -2.87,-2.5 0,-0.95 0.87,-3.09 2.62,-6.42 1.06,-2.08 2.14,-4.15 3.25,-6.19 0.17,-0.42 0,-0.63 -0.51,-0.63 -0.94,0 -1.4,-0.28 -1.4,-0.85 0,-0.57 0.38,-0.84 1.15,-0.8 1.78,0.12 3.5,0.04 5.16,-0.23 0.34,-0.07 0.6,-0.01 0.77,0.18 0.17,0.15 0.17,0.37 0,0.68 -1.28,2.27 -2.55,4.56 -3.83,6.87 -2.38,4.36 -3.57,6.86 -3.57,7.5 0,0.35 0.21,0.52 0.64,0.52 1.06,0 4.19,-3.13 9.37,-9.38 0.94,-1.71 1.92,-3.47 2.94,-5.29 0.34,-0.64 0.72,-0.96 1.15,-0.96 0.17,0 0.52,-0.02 1.05,-0.06 0.53,-0.04 0.88,-0.06 1.05,-0.06 0.81,0 1.06,0.27 0.77,0.8z"/>
    <path class="fil0 str0" d="M220.94 52.88c0,-0.11 -0.3,0.36 -0.9,1.42 -0.89,1.6 -2.08,3.89 -3.57,6.88 -1.87,3.75 -2.81,5.91 -2.81,6.48 0,0.57 0.39,0.85 1.15,0.85 1.53,0 3.09,-1.21 4.66,-3.64 0.76,-0.22 1.17,-0.11 1.21,0.35 -0.59,0.94 -1.4,1.85 -2.42,2.72 -1.45,1.25 -2.83,1.88 -4.15,1.88 -2.42,0 -3.64,-0.85 -3.64,-2.56 0,-1.21 0.66,-3.18 1.98,-5.91 0.89,-1.89 1.7,-3.39 2.43,-4.49l-0.2 -0.28c-1.06,0.53 -3.12,2.55 -6.18,6.08 -1.58,1.85 -3.04,3.88 -4.41,6.08 -0.25,0.49 -1.27,0.83 -3.06,1.02 -0.59,0.08 -0.89,-0.02 -0.89,-0.28 0,-0.19 0.98,-2.11 2.93,-5.74 2.13,-3.9 3.32,-6.16 3.58,-6.76l-0.26 -0.29c-1.02,0.49 -3.08,2.52 -6.19,6.08 -2,2.27 -3.61,4.19 -4.85,5.74 -0.12,0.23 -0.51,0.48 -1.14,0.77 -0.64,0.28 -1.22,0.42 -1.73,0.42 -0.51,0 -0.76,-0.22 -0.76,-0.68 0,-0.26 1.17,-2.5 3.51,-6.7 2.08,-3.79 3.12,-6.16 3.12,-7.11 0,-0.72 -0.29,-1.08 -0.89,-1.08 -0.09,0 -0.83,0.21 -2.23,0.63 -0.17,0 -0.31,-0.12 -0.42,-0.37 -0.1,-0.25 -0.11,-0.43 -0.03,-0.54 1.53,-1.02 3.21,-1.53 5.04,-1.53 1.7,0 2.55,0.66 2.55,1.98 0,1.22 -1.1,3.79 -3.31,7.73l0.25 0.06c1.23,-1.52 2.93,-3.26 5.1,-5.23 2.17,-1.97 3.72,-3.21 4.66,-3.72 0.94,-0.51 1.98,-0.77 3.13,-0.77 0.59,0 0.89,0.15 0.89,0.46 0,-0.04 -0.3,0.47 -0.89,1.53l-3.64 6.54c3.66,-4.06 6.59,-6.67 8.8,-7.85 0.94,-0.53 1.88,-0.79 2.81,-0.79 0.51,0 0.77,0.21 0.77,0.62z"/>
    <path class="fil0 str0" d="M227.51 69.02c0.51,0 1.07,-0.13 1.69,-0.4 0.62,-0.26 1.21,-0.61 1.79,-1.05 0.57,-0.43 1.11,-0.92 1.62,-1.45 0.52,-0.53 0.94,-1.08 1.28,-1.64 -0.59,-0.31 -1.14,-0.68 -1.63,-1.11 -0.49,-0.44 -0.75,-0.96 -0.79,-1.56 -0.05,-0.88 0.21,-1.65 0.76,-2.33 0.55,-0.69 1.32,-1.05 2.3,-1.08 0.89,-0.12 1.59,-0.01 2.1,0.31 0.51,0.32 0.88,0.77 1.09,1.33 0.21,0.57 0.29,1.24 0.22,1.99 -0.06,0.76 -0.24,1.5 -0.54,2.22 0.21,0.04 0.38,0.06 0.51,0.06 0.25,0 0.5,-0.05 0.73,-0.15 0.24,-0.09 0.5,-0.21 0.8,-0.37 0.21,0 0.35,0.07 0.42,0.2 0.06,0.14 0.05,0.28 -0.04,0.43 -0.34,0.23 -0.7,0.42 -1.08,0.57 -0.38,0.15 -0.81,0.23 -1.28,0.23 -0.21,0 -0.4,-0.02 -0.57,-0.06 -0.51,0.76 -1.16,1.43 -1.95,2.02 -0.78,0.58 -1.62,1.09 -2.52,1.53 -0.89,0.44 -1.81,0.76 -2.77,0.97 -0.96,0.2 -1.86,0.29 -2.71,0.25 -2.21,0.08 -3.32,-0.79 -3.32,-2.61 0,-0.57 0.45,-1.87 1.34,-3.89 0.89,-2.03 2.23,-4.94 4.02,-8.73 0.04,-0.07 0.06,-0.12 0.06,-0.14 0,-0.02 0.02,-0.07 0.07,-0.14 0,-0.15 -0.11,-0.25 -0.32,-0.29 -0.22,-0.03 -0.44,-0.07 -0.67,-0.11 -0.24,-0.04 -0.45,-0.1 -0.64,-0.2 -0.19,-0.09 -0.29,-0.27 -0.29,-0.54 -0.13,-0.53 0.13,-0.79 0.77,-0.79l1.91 0c0.64,-0.04 1.27,-0.11 1.88,-0.2 0.62,-0.1 1.23,-0.16 1.82,-0.2 0.43,0 0.64,0.19 0.64,0.57 0,0.07 0.02,0.13 0.06,0.17 0.05,0.03 0.05,0.09 0,0.17 -0.93,1.74 -1.85,3.48 -2.74,5.23 -0.89,1.74 -1.69,3.32 -2.39,4.74 -0.7,1.42 -1.27,2.61 -1.69,3.58 -0.43,0.97 -0.64,1.54 -0.64,1.73 0.04,0.5 0.28,0.74 0.7,0.74zm8.04 -8.41c-0.09,-1.06 -0.45,-1.55 -1.09,-1.48 -0.38,0 -0.81,0.25 -1.3,0.74 -0.49,0.5 -0.72,1.12 -0.67,1.88 0.04,0.49 0.26,0.92 0.67,1.28 0.4,0.36 0.84,0.57 1.3,0.65 0.43,-0.64 0.72,-1.21 0.87,-1.7 0.14,-0.5 0.22,-0.95 0.22,-1.37z"/>
   </g>
  </g>
 </g>
</svg>
