<?xml version="1.0" encoding="UTF-8"?>
<!DOCTYPE svg PUBLIC "-//W3C//DTD SVG 1.1//EN" "http://www.w3.org/Graphics/SVG/1.1/DTD/svg11.dtd">
<!-- Creator: CorelDRAW 2018 (64-Bit) -->
<svg xmlns="http://www.w3.org/2000/svg" xml:space="preserve" width="640px" height="272px" version="1.1" style="shape-rendering:geometricPrecision; text-rendering:geometricPrecision; image-rendering:optimizeQuality; fill-rule:evenodd; clip-rule:evenodd"
viewBox="0 0 493.86 210"
 xmlns:xlink="http://www.w3.org/1999/xlink">
 <defs>
  <style type="text/css">
   <![CDATA[
    .str0 {stroke:#FEFEFE;stroke-width:0.65;stroke-miterlimit:22.9256}
    .fil0 {fill:#FEFEFE;fill-rule:nonzero}
   ]]>
  </style>
 </defs>
 <g id="Layer_x0020_1">
  <metadata id="CorelCorpID_0Corel-Layer"/>
  <g id="_1894792992288">
   <path class="fil0 str0" d="M218.38 153.89c-1.17,-1.72 -3.23,-3.16 -6.21,-4.31 -3.1,-1.16 -6.2,-1.73 -9.3,-1.73 -1.68,0 -3.11,0.34 -4.27,1.03 -1.16,0.7 -1.74,1.56 -1.74,2.59 0,1.39 0.97,2.42 2.9,3.11 1.81,0.81 4.21,1.21 7.18,1.21 4.39,0 8.21,-0.63 11.44,-1.9zm-62.43 17.79c1.68,-2.76 4.65,-7.54 8.92,-14.33 5.17,-8.29 8.92,-13.99 11.24,-17.1 2.59,-3.69 5.04,-6.74 7.37,-9.15 3.23,-3.46 6.4,-6.57 9.5,-9.33 3.36,-2.76 6.59,-5.18 9.69,-7.25 2.98,-1.96 6.72,-4.09 11.25,-6.39 3.87,-1.85 8.01,-3.57 12.41,-5.19 -9.05,-4.83 -18.62,-7.25 -28.7,-7.25 -10.47,0 -20.42,2.36 -29.86,7.08 -9.3,4.72 -16.73,11.06 -22.29,19 -5.56,7.94 -8.34,16.46 -8.34,25.56 0,6.33 1.62,11.63 4.85,15.89 3.23,4.14 7.88,6.96 13.96,8.46zm7.95 4.15c-4.53,5.06 -9.31,9.49 -14.35,13.29 -5.17,3.92 -10.6,7.03 -16.29,9.33 -5.55,2.42 -11.37,4.03 -17.44,4.84 3.1,0.69 6.59,1.26 10.47,1.72 4.13,0.46 7.69,0.69 10.66,0.69 4.91,0 9.95,-0.8 15.12,-2.41 4.91,-1.62 9.24,-3.8 12.99,-6.57 -0.26,-1.15 -0.39,-2.36 -0.39,-3.62 0,-2.54 0.71,-4.72 2.14,-6.57 1.29,-1.72 2.84,-2.59 4.65,-2.59 1.03,0 1.87,0.35 2.52,1.04 0.64,0.58 0.97,1.44 0.97,2.59 0,3.45 -2.07,6.74 -6.21,9.84 0.91,2.42 2.78,4.38 5.63,5.88 2.84,1.38 6.27,2.07 10.27,2.07 6.59,0 12.86,-1.73 18.81,-5.18 5.81,-3.57 10.47,-8.29 13.96,-14.16 3.49,-5.76 5.23,-11.92 5.23,-18.48 0,-4.03 -0.84,-7.72 -2.52,-11.06 -4.52,1.39 -8.85,2.08 -12.99,2.08 -4.26,0 -7.75,-0.69 -10.47,-2.08 -2.71,-1.49 -4.07,-3.39 -4.07,-5.7 0.13,-2.18 1.49,-3.97 4.07,-5.35 2.46,-1.38 5.62,-2.07 9.5,-2.07 7.24,0 13.83,2.42 19.78,7.25 4.91,-2.42 8.66,-5.64 11.24,-9.67 2.85,-4.15 4.27,-8.64 4.27,-13.47 0,-4.26 -1.1,-8.35 -3.3,-12.26 -2.19,-3.92 -5.17,-7.31 -8.92,-10.19 -6.46,1.84 -12.28,4.55 -17.45,8.11 -5.55,3.69 -10.59,8.18 -15.12,13.48 -4.91,5.64 -9.56,12.31 -13.96,20.03 -4.52,7.94 -7.04,12.43 -7.56,13.47 -2.71,4.49 -5.68,8.75 -8.92,12.78 5.43,-0.23 11.51,-1.84 18.23,-4.84l1.16 2.42c-3.36,1.73 -6.85,3.05 -10.47,3.97 -4,0.93 -7.75,1.39 -11.24,1.39zm71.34 -75.3c3.88,-0.81 7.44,-1.44 10.67,-1.9 2.97,-0.23 5.75,-0.35 8.33,-0.35 4.53,0 8.6,0.46 12.22,1.38 4,0.92 6.98,2.13 8.92,3.63 2.19,1.61 3.29,3.34 3.29,5.18 0,1.04 -0.39,1.9 -1.16,2.59 -0.65,0.69 -1.55,1.04 -2.72,1.04 -1.03,0 -2,-0.23 -2.9,-0.69 -1.04,-0.46 -2.39,-1.5 -4.07,-3.11 -5.43,-4.49 -11.96,-6.74 -19.59,-6.74 -2.45,0 -5.81,0.41 -10.08,1.21 3.36,2.65 5.95,5.76 7.76,9.33 1.81,3.57 2.71,7.54 2.71,11.92 0,5.98 -1.81,11.57 -5.43,16.75 -1.94,2.65 -4.13,4.98 -6.59,6.99 -2.45,2.02 -5.23,3.77 -8.34,5.27 2.98,4.49 4.46,9.27 4.46,14.33 0,7.03 -2.26,13.65 -6.78,19.87 -4.4,6.44 -10.28,11.62 -17.64,15.54 -7.5,3.8 -15.26,5.7 -23.27,5.7 -4.65,0 -8.6,-0.75 -11.83,-2.25 -3.23,-1.61 -5.55,-3.91 -6.98,-6.91 -4,3.11 -9.04,5.53 -15.12,7.26 -5.94,1.61 -12.15,2.42 -18.61,2.42 -6.08,0 -15.12,-0.64 -27.14,-1.9 -4.4,-0.46 -7.56,-0.69 -9.5,-0.69 -4.4,0 -8.92,0.8 -13.57,2.41 -1.43,0.58 -2.53,0.87 -3.3,0.87 -1.03,0 -1.87,-0.29 -2.52,-0.87 -0.65,-0.69 -0.97,-1.38 -0.97,-2.07 0,-1.84 1.23,-3.34 3.68,-4.49 2.33,-1.15 5.37,-1.73 9.12,-1.73 2.19,0 5.81,0.18 10.85,0.52 2.46,0.23 4.66,0.35 6.59,0.35 6.85,0 13.06,-0.92 18.62,-2.77 5.43,-1.84 10.6,-4.72 15.51,-8.63 4.65,-3.8 9.43,-8.98 14.34,-15.55 -5.04,-1.61 -9.37,-3.85 -12.99,-6.73 -3.49,-2.76 -6.14,-6.1 -7.95,-10.02 -1.81,-3.8 -2.71,-8.29 -2.71,-13.47 0,-6.79 1.88,-13.35 5.62,-19.69 1.94,-2.99 4.2,-5.9 6.79,-8.72 2.58,-2.82 5.62,-5.5 9.11,-8.03 6.59,-4.84 14.28,-8.63 23.07,-11.4 8.66,-2.76 17.71,-4.14 27.14,-4.14 6.21,0 12.22,0.75 18.04,2.24 5.81,1.38 10.79,3.4 14.92,6.05z"/>
   <path class="fil0 str0" d="M267.46 141.77c0,2.98 -2.39,6.82 -7.17,11.52 -4.17,4.17 -8.07,7.09 -11.68,8.78 -1.06,2.37 -2.2,4.88 -3.42,7.5 2.33,-2.52 4.14,-4.31 5.42,-5.35 4.12,-3.37 7.45,-5.05 10.01,-5.05 2.51,0 3.76,1.01 3.76,3.04 0,2.18 -1.73,4.44 -5.18,6.77 -3.45,2.33 -7.01,3.79 -10.68,4.38 3.17,4.02 5.68,6.1 7.51,6.25 2.06,0.19 3.76,-0.35 5.09,-1.64 0.11,-0.15 0.25,-0.22 0.42,-0.22 0.67,0 1,0.27 1,0.82 0,0.14 -0.08,0.29 -0.25,0.44 -2.61,1.93 -5.4,2.9 -8.34,2.9 -2.06,0 -4.12,-0.92 -6.18,-2.75 -0.39,-0.35 -1.92,-2.03 -4.59,-5.05 -1.5,3.32 -2.33,5.22 -2.5,5.72 -0.22,0.64 -1.78,1.34 -4.67,2.08 -0.34,0.1 -0.56,0.05 -0.67,-0.15 -0.17,-0.25 -0.14,-0.62 0.08,-1.11l13.02 -27.95c1.72,-3.62 4.06,-6.86 7.01,-9.74 3.22,-3.07 6.15,-4.6 8.76,-4.6 2.17,0 3.25,1.13 3.25,3.41zm-3.25 -0.37c0,-0.79 -0.33,-1.19 -1,-1.19 -1.39,0 -3.26,1.69 -5.59,5.06 -1.78,2.43 -4.34,7.11 -7.68,14.05 2.67,-1.39 5.65,-4.04 8.93,-7.96 3.56,-4.26 5.34,-7.58 5.34,-9.96zm-4.76 20.15c0,-0.45 -0.3,-0.67 -0.91,-0.67 -1.4,0 -3.95,1.78 -7.68,5.35 -3.56,3.32 -5.34,5.18 -5.34,5.57 0,0.3 0.47,0.45 1.42,0.45 2.17,0 4.8,-1.31 7.88,-3.94 3.09,-2.63 4.63,-4.88 4.63,-6.76z"/>
   <path class="fil0 str0" d="M290.83 160.28c-0.28,0.55 -2.64,6.25 -7.09,17.1 1.56,-0.99 2.61,-1.84 3.17,-2.53 0.67,0 1.14,0.32 1.42,0.97 -0.95,0.99 -2.81,2.3 -5.59,3.94l-0.59 1.48c-1.67,3.97 -4.2,7.71 -7.59,11.22 -3.89,3.97 -7.51,5.95 -10.85,5.95 -2.33,0 -3.5,-1.04 -3.5,-3.12 0,-1.19 0.78,-2.66 2.33,-4.42 1.56,-1.76 3.51,-3.36 5.85,-4.8 1.55,-0.94 4.45,-2.57 8.67,-4.9l2.59 -5.73c-1.17,1.34 -2.7,2.68 -4.59,4.02 -2.34,1.68 -4.14,2.53 -5.42,2.53 -1.11,0 -2.05,-0.35 -2.8,-1.05 -0.75,-0.69 -1.12,-1.53 -1.12,-2.52 0,-1.44 1.33,-4.26 4,-8.48 2.89,-4.55 4.34,-7.18 4.34,-7.87 0,-0.8 -0.36,-1.19 -1.08,-1.19 -0.62,0 -1.73,0.39 -3.34,1.19 -0.61,-0.15 -1,-0.5 -1.17,-1.04 1.22,-1.39 3.28,-2.09 6.17,-2.09 2.62,0 3.93,1.02 3.93,3.05 0,1.09 -1.52,4.14 -4.55,9.14 -3.03,5.01 -4.55,7.78 -4.55,8.33 0,0.54 0.28,0.82 0.84,0.82 1.66,0 4.08,-1.61 7.25,-4.84 2.73,-2.87 4.54,-5.22 5.43,-7.06l3.42 -7.43c0.5,-0.94 1,-1.46 1.5,-1.56 0.78,-0.15 1.34,-0.22 1.67,-0.22 0.94,0 1.42,0.22 1.42,0.67 0,0.09 -0.06,0.24 -0.17,0.44zm-14.77 23.19c-2.72,1.49 -4.48,2.5 -5.25,3.05 -1.78,1.34 -3.34,2.8 -4.68,4.38 -1.55,1.84 -2.33,3.3 -2.33,4.39 0,0.89 0.44,1.34 1.33,1.34 1.45,0 3.17,-1.18 5.18,-3.53 2,-2.36 3.69,-5.04 5.08,-8.07l0.67 -1.56z"/>
   <path class="fil0 str0" d="M313.03 162.88c0,1.24 -0.4,2.2 -1.21,2.86 -0.81,0.67 -1.66,1.01 -2.55,1.01 -1.67,0 -2.5,-0.72 -2.5,-2.16 0,-0.69 0.43,-1.35 1.29,-1.97 0.87,-0.62 1.3,-1.07 1.3,-1.37 0,-0.5 -0.28,-0.75 -0.84,-0.75 -1.89,0 -4.2,2.53 -6.92,7.59 -2.51,4.75 -3.76,8.25 -3.76,10.48 0,1.09 0.53,1.63 1.59,1.63 1.39,0 3.11,-0.79 5.17,-2.38 1.72,-1.29 2.92,-2.42 3.59,-3.42 0.28,-0.1 0.57,-0.03 0.87,0.19 0.31,0.22 0.46,0.51 0.46,0.85 -1,1.24 -2.3,2.48 -3.92,3.72 -2.45,1.88 -4.78,2.83 -7.01,2.83 -3.61,0 -5.42,-2.06 -5.42,-6.17 0,-3.57 1.77,-7.29 5.3,-11.15 3.53,-3.87 6.99,-5.8 10.39,-5.8 2.78,0 4.17,1.34 4.17,4.01z"/>
   <path class="fil0 str0" d="M335.64 159.98c0.61,-0.34 1.31,-0.59 2.09,-0.74 0.78,-0.15 1.47,-0.22 2.08,-0.22 0.61,0 0.92,0.27 0.92,0.82 -0.05,0 -0.32,0.43 -0.79,1.3 -0.47,0.86 -1.07,1.97 -1.8,3.3 -0.72,1.34 -1.48,2.8 -2.29,4.39 -0.81,1.59 -1.56,3.1 -2.25,4.53 -0.7,1.44 -1.27,2.69 -1.71,3.76 -0.45,1.06 -0.67,1.74 -0.67,2.04 0,0.74 0.5,1.12 1.5,1.12 2,0 4.03,-1.59 6.09,-4.76 0.45,-0.1 0.75,-0.15 0.92,-0.15 0.44,0 0.67,0.2 0.67,0.59 -1,1.69 -2.34,3.11 -4.01,4.28 -1.67,1.16 -3.2,1.75 -4.59,1.75 -1.61,0 -2.72,-0.28 -3.33,-0.82 -0.62,-0.55 -0.92,-1.39 -0.92,-2.53 0,-1.09 0.28,-2.45 0.83,-4.09 0.39,-1.19 0.84,-2.4 1.34,-3.64l-0.17 0c-1.11,0 -2.31,0.03 -3.59,0.07 -0.94,0 -1.83,0.03 -2.67,0.08 -0.11,0.2 -0.22,0.4 -0.33,0.59l-4.42 8.92c-0.45,0.55 -1.01,0.88 -1.67,1.01 -0.67,0.12 -1.39,0.18 -2.17,0.18 -0.67,0 -1,-0.29 -1,-0.89 0,-0.15 1.53,-3.1 4.59,-8.85 2.67,-5.1 4,-8.12 4,-9.06 0,-0.94 -0.39,-1.41 -1.17,-1.41 -0.16,0 -1.25,0.27 -3.25,0.81 -0.45,-0.15 -0.67,-0.39 -0.67,-0.74 0,-0.45 0.29,-0.82 0.88,-1.12 0.58,-0.29 1.26,-0.55 2.04,-0.78 0.78,-0.22 1.56,-0.38 2.34,-0.48 0.78,-0.1 1.33,-0.15 1.67,-0.15 0.78,0 1.49,0.24 2.12,0.71 0.64,0.47 0.96,1.13 0.96,1.97 0,1.34 -1.05,3.99 -3.17,7.95 0.67,0 1.45,0 2.34,0 1.06,0.05 2.34,0.08 3.84,0.08 0.05,-0.1 0.11,-0.2 0.16,-0.3 0.84,-1.79 1.73,-3.52 2.68,-5.2 0.94,-1.69 1.8,-3.13 2.58,-4.32z"/>
   <path class="fil0 str0" d="M367.6 171.43c-0.94,0.84 -2,1.26 -3.17,1.26 -0.17,0 -0.42,-0.02 -0.75,-0.07 -1.61,2.63 -3.67,4.84 -6.18,6.65 -2.5,1.81 -4.81,2.72 -6.92,2.72 -4.28,0 -6.43,-1.91 -6.43,-5.73 0,-4.11 1.84,-8.06 5.51,-11.85 3.67,-3.79 7.79,-5.69 12.35,-5.69 0.78,0 1.17,0.15 1.17,0.45 0,0.49 -0.39,0.74 -1.17,0.74 -3.11,0 -6.26,2.43 -9.43,7.28 -2.89,4.46 -4.34,8.21 -4.34,11.23 0,1.58 0.84,2.38 2.51,2.38 1.5,0 3.24,-0.92 5.21,-2.75 1.98,-1.84 3.66,-3.99 5.05,-6.47 -1.78,-1.19 -2.67,-2.85 -2.67,-4.98 0,-1.88 0.47,-3.35 1.42,-4.39 0.83,-0.89 1.75,-1.33 2.75,-1.33 2.39,0 3.59,1.41 3.59,4.23 0,1.99 -0.59,4.07 -1.75,6.25 0.39,0.05 0.61,0.07 0.66,0.07 0.67,0 1.37,-0.27 2.09,-0.82 0.56,0.1 0.72,0.37 0.5,0.82zm-4.25 -6.69c0,-1.68 -0.39,-2.53 -1.17,-2.53 -1,0 -1.51,1.39 -1.51,4.17 0,1.78 0.37,3.07 1.09,3.86 1.06,-2.18 1.59,-4.01 1.59,-5.5z"/>
   <path class="fil0 str0" d="M402.25 135.95l-21.61 36.5 -1.42 -0.23 17.52 -36.27c0.39,-0.64 1.23,-0.96 2.5,-0.96 1.78,0 2.79,0.32 3.01,0.96zm-22.2 42.15c0,1.24 -0.52,2.46 -1.58,3.68 -1.06,1.21 -2.25,1.82 -3.59,1.82 -1.5,0 -2.25,-0.8 -2.25,-2.38 0,-1.19 0.54,-2.4 1.62,-3.64 1.09,-1.24 2.27,-1.86 3.55,-1.86 1.5,0 2.25,0.79 2.25,2.38z"/>
   <path class="fil0 str0" d="M354.01 67.66c0.62,-0.35 1.31,-0.6 2.09,-0.75 0.78,-0.14 1.47,-0.22 2.09,-0.22 0.61,0 0.91,0.27 0.91,0.82 -0.05,0 -0.32,0.43 -0.79,1.3 -0.47,0.87 -1.07,1.97 -1.79,3.31 -0.73,1.34 -1.49,2.8 -2.3,4.38 -0.8,1.59 -1.56,3.1 -2.25,4.54 -0.7,1.43 -1.27,2.69 -1.71,3.75 -0.45,1.07 -0.67,1.75 -0.67,2.04 0,0.75 0.5,1.12 1.5,1.12 2.01,0 4.04,-1.59 6.09,-4.76 0.45,-0.1 0.76,-0.15 0.92,-0.15 0.45,0 0.67,0.2 0.67,0.6 -1,1.68 -2.34,3.11 -4,4.27 -1.67,1.17 -3.2,1.75 -4.59,1.75 -1.62,0 -2.73,-0.27 -3.34,-0.82 -0.61,-0.54 -0.92,-1.39 -0.92,-2.53 0,-1.09 0.28,-2.45 0.83,-4.08 0.39,-1.19 0.84,-2.41 1.34,-3.65l-0.17 0c-1.11,0 -2.31,0.03 -3.59,0.08 -0.94,0 -1.83,0.02 -2.66,0.07 -0.12,0.2 -0.23,0.4 -0.34,0.6l-4.42 8.92c-0.45,0.54 -1,0.88 -1.67,1 -0.67,0.12 -1.39,0.19 -2.17,0.19 -0.67,0 -1,-0.3 -1,-0.9 0,-0.14 1.53,-3.09 4.59,-8.84 2.67,-5.1 4,-8.13 4,-9.07 0,-0.94 -0.39,-1.41 -1.16,-1.41 -0.17,0 -1.26,0.27 -3.26,0.82 -0.44,-0.15 -0.67,-0.4 -0.67,-0.75 0,-0.44 0.3,-0.81 0.88,-1.11 0.58,-0.3 1.27,-0.56 2.04,-0.78 0.78,-0.23 1.56,-0.39 2.34,-0.49 0.78,-0.09 1.34,-0.14 1.67,-0.14 0.78,0 1.49,0.23 2.13,0.7 0.64,0.47 0.96,1.13 0.96,1.97 0,1.34 -1.06,3.99 -3.17,7.96 0.66,0 1.44,0 2.33,0 1.06,0.04 2.34,0.07 3.84,0.07 0.06,-0.1 0.11,-0.2 0.17,-0.3 0.83,-1.78 1.72,-3.52 2.67,-5.2 0.94,-1.69 1.81,-3.12 2.58,-4.31zm32.71 0.3c-0.28,0.54 -2.64,6.24 -7.09,17.09 1.56,-0.99 2.61,-1.83 3.17,-2.53 0.67,0 1.14,0.33 1.42,0.97 -0.95,0.99 -2.81,2.3 -5.59,3.94l-0.59 1.49c-1.66,3.96 -4.2,7.7 -7.59,11.22 -3.89,3.96 -7.51,5.95 -10.85,5.95 -2.33,0 -3.5,-1.05 -3.5,-3.13 0,-1.19 0.78,-2.66 2.34,-4.42 1.55,-1.76 3.5,-3.36 5.84,-4.79 1.55,-0.94 4.45,-2.58 8.67,-4.91l2.59 -5.72c-1.17,1.34 -2.7,2.67 -4.59,4.01 -2.33,1.69 -4.14,2.53 -5.42,2.53 -1.11,0 -2.05,-0.35 -2.8,-1.04 -0.75,-0.7 -1.12,-1.54 -1.12,-2.53 0,-1.44 1.33,-4.26 4,-8.47 2.89,-4.56 4.34,-7.19 4.34,-7.88 0,-0.79 -0.36,-1.19 -1.08,-1.19 -0.62,0 -1.73,0.4 -3.34,1.19 -0.61,-0.15 -1,-0.5 -1.17,-1.04 1.22,-1.39 3.28,-2.08 6.17,-2.08 2.62,0 3.93,1.01 3.93,3.04 0,1.1 -1.52,4.14 -4.55,9.15 -3.03,5 -4.55,7.78 -4.55,8.32 0,0.55 0.28,0.82 0.84,0.82 1.67,0 4.08,-1.61 7.25,-4.83 2.73,-2.88 4.54,-5.23 5.43,-7.06l3.42 -7.44c0.5,-0.94 1,-1.46 1.5,-1.56 0.78,-0.15 1.34,-0.22 1.67,-0.22 0.95,0 1.42,0.22 1.42,0.67 0,0.1 -0.06,0.25 -0.17,0.45zm-14.77 23.19c-2.72,1.48 -4.47,2.5 -5.25,3.04 -1.78,1.34 -3.34,2.8 -4.68,4.39 -1.55,1.83 -2.33,3.29 -2.33,4.38 0,0.9 0.44,1.34 1.33,1.34 1.45,0 3.17,-1.17 5.18,-3.53 2,-2.35 3.69,-5.04 5.09,-8.06l0.66 -1.56zm36.97 -4.54c0,-2.87 1.8,-7.53 5.42,-13.97l-0.25 -0.3c-0.11,0.1 -0.43,0.43 -0.96,1 -0.53,0.57 -1.17,1.26 -1.92,2.05 -0.75,0.79 -1.56,1.62 -2.42,2.49 -0.86,0.87 -1.71,1.7 -2.54,2.49 -0.5,0.44 -0.95,0.87 -1.34,1.26 -0.56,0.75 -1.17,1.46 -1.83,2.16 -1.51,1.68 -3.19,3.08 -5.05,4.2 -1.87,1.11 -3.63,1.67 -5.3,1.67 -2.78,0 -4.17,-1.34 -4.17,-4.01 0,-1.24 0.4,-2.2 1.21,-2.87 0.8,-0.67 1.65,-1 2.54,-1 1.67,0 2.51,0.72 2.51,2.16 0,0.34 -0.14,0.69 -0.42,1.04 -0.28,0.34 -0.57,0.67 -0.88,0.96 -0.3,0.3 -0.6,0.56 -0.87,0.78 -0.28,0.23 -0.42,0.41 -0.42,0.56 0,0.5 0.28,0.74 0.83,0.74 0.95,0 2.03,-0.74 3.26,-2.23 1.22,-1.48 2.39,-3.23 3.5,-5.24 1.11,-2 2.05,-4.01 2.8,-6.02 0.75,-2 1.12,-3.53 1.12,-4.57 0,-1.09 -0.53,-1.63 -1.58,-1.63 -0.61,0 -1.34,0.2 -2.17,0.59 -0.84,0.4 -1.68,0.89 -2.55,1.49 -0.86,0.59 -1.65,1.22 -2.37,1.89 -0.73,0.67 -1.28,1.28 -1.67,1.83 -0.06,0.04 -0.14,0.07 -0.25,0.07 -0.28,0 -0.53,-0.11 -0.75,-0.34 -0.23,-0.22 -0.34,-0.48 -0.34,-0.78 0.67,-0.84 1.45,-1.66 2.34,-2.45 0.89,-0.79 1.82,-1.49 2.79,-2.08 0.98,-0.59 1.96,-1.08 2.97,-1.45 1,-0.37 1.94,-0.56 2.83,-0.56 3.62,0 5.43,2.06 5.43,6.17 0,1.44 -0.37,2.98 -1.09,4.61 1.11,-1.19 2.45,-2.58 4.01,-4.16 1.94,-1.98 3.61,-3.46 5,-4.42 1.39,-0.97 2.42,-1.45 3.09,-1.45 0.78,0 1.18,0.07 1.21,0.22 0.03,0.15 0.04,0.35 0.04,0.59 0,-0.14 -0.3,0.4 -0.92,1.64 -1.22,2.53 -2.25,4.65 -3.08,6.35 -0.84,1.71 -1.52,3.14 -2.05,4.28 -0.53,1.14 -0.9,2.03 -1.12,2.67 -0.23,0.65 -0.34,1.19 -0.34,1.64l-0.33 1.26c0.16,-0.15 0.55,-0.53 1.17,-1.15 0.61,-0.62 1.33,-1.35 2.17,-2.19 0.83,-0.84 1.72,-1.74 2.67,-2.68 0.72,-0.74 1.44,-1.46 2.16,-2.15 1.01,-1.94 2.27,-3.74 3.8,-5.43 1.53,-1.68 3.23,-3.08 5.09,-4.2 1.86,-1.11 3.63,-1.67 5.3,-1.67 2.78,0 4.17,1.34 4.17,4.01 0,1.24 -0.4,2.2 -1.21,2.86 -0.8,0.67 -1.65,1.01 -2.54,1.01 -1.67,0 -2.51,-0.72 -2.51,-2.16 0,-0.34 0.14,-0.69 0.42,-1.04 0.28,-0.34 0.57,-0.67 0.88,-0.97 0.3,-0.29 0.6,-0.55 0.87,-0.78 0.28,-0.22 0.42,-0.4 0.42,-0.55 0,-0.5 -0.28,-0.75 -0.83,-0.75 -0.95,0 -2.03,0.75 -3.26,2.23 -1.22,1.49 -2.39,3.24 -3.5,5.24 -1.11,2.01 -2.05,4.02 -2.8,6.02 -0.75,2.01 -1.12,3.54 -1.12,4.58 0,1.09 0.52,1.63 1.58,1.63 0.56,0 1.27,-0.2 2.13,-0.59 0.86,-0.4 1.72,-0.9 2.59,-1.49 0.86,-0.59 1.65,-1.23 2.37,-1.9 0.73,-0.66 1.28,-1.27 1.67,-1.82l0.25 -0.07c0.28,0 0.53,0.11 0.75,0.33 0.23,0.23 0.34,0.49 0.34,0.78 -0.67,0.85 -1.45,1.66 -2.34,2.46 -0.89,0.79 -1.82,1.48 -2.79,2.08 -0.98,0.59 -1.96,1.08 -2.97,1.45 -1,0.37 -1.94,0.55 -2.83,0.55 -3.62,0 -5.43,-2.05 -5.43,-6.16 0,-0.7 0.09,-1.44 0.25,-2.23 -0.61,0.64 -1.28,1.33 -2,2.08 -2,2.08 -3.61,3.64 -4.84,4.68 -1.22,1.04 -2.2,1.59 -2.92,1.63 -0.28,0 -0.56,-0.08 -0.83,-0.26 -0.28,-0.17 -0.42,-0.55 -0.42,-1.15 0,-0.2 0.01,-0.44 0.04,-0.74 0.03,-0.3 0.07,-0.57 0.13,-0.82zm52.56 -18.95c0.61,-0.35 1.31,-0.6 2.09,-0.75 0.78,-0.14 1.47,-0.22 2.08,-0.22 0.62,0 0.92,0.27 0.92,0.82 -0.05,0 -0.32,0.43 -0.79,1.3 -0.47,0.87 -1.07,1.97 -1.79,3.31 -0.73,1.34 -1.49,2.8 -2.3,4.38 -0.81,1.59 -1.56,3.1 -2.25,4.54 -0.7,1.43 -1.27,2.69 -1.71,3.75 -0.45,1.07 -0.67,1.75 -0.67,2.04 0,0.75 0.5,1.12 1.5,1.12 2,0 4.04,-1.59 6.09,-4.76 0.45,-0.1 0.75,-0.15 0.92,-0.15 0.45,0 0.67,0.2 0.67,0.6 -1,1.68 -2.34,3.11 -4.01,4.27 -1.67,1.17 -3.19,1.75 -4.59,1.75 -1.61,0 -2.72,-0.27 -3.33,-0.82 -0.61,-0.54 -0.92,-1.39 -0.92,-2.53 0,-1.09 0.28,-2.45 0.83,-4.08 0.39,-1.19 0.84,-2.41 1.34,-3.65l-0.17 0c-1.11,0 -2.31,0.03 -3.59,0.08 -0.94,0 -1.83,0.02 -2.67,0.07 -0.11,0.2 -0.22,0.4 -0.33,0.6l-4.42 8.92c-0.45,0.54 -1,0.88 -1.67,1 -0.67,0.12 -1.39,0.19 -2.17,0.19 -0.67,0 -1,-0.3 -1,-0.9 0,-0.14 1.53,-3.09 4.59,-8.84 2.67,-5.1 4,-8.13 4,-9.07 0,-0.94 -0.39,-1.41 -1.17,-1.41 -0.16,0 -1.25,0.27 -3.25,0.82 -0.44,-0.15 -0.67,-0.4 -0.67,-0.75 0,-0.44 0.29,-0.81 0.88,-1.11 0.58,-0.3 1.26,-0.56 2.04,-0.78 0.78,-0.23 1.56,-0.39 2.34,-0.49 0.78,-0.09 1.33,-0.14 1.67,-0.14 0.78,0 1.49,0.23 2.13,0.7 0.64,0.47 0.96,1.13 0.96,1.97 0,1.34 -1.06,3.99 -3.17,7.96 0.66,0 1.44,0 2.33,0 1.06,0.04 2.34,0.07 3.84,0.07 0.06,-0.1 0.11,-0.2 0.17,-0.3 0.83,-1.78 1.72,-3.52 2.67,-5.2 0.94,-1.69 1.8,-3.12 2.58,-4.31zm31.96 11.44c-0.95,0.85 -2,1.27 -3.17,1.27 -0.17,0 -0.42,-0.03 -0.75,-0.08 -1.61,2.63 -3.67,4.85 -6.18,6.66 -2.5,1.81 -4.81,2.71 -6.92,2.71 -4.28,0 -6.43,-1.91 -6.43,-5.72 0,-4.12 1.84,-8.07 5.51,-11.86 3.67,-3.79 7.79,-5.69 12.35,-5.69 0.78,0 1.17,0.15 1.17,0.45 0,0.5 -0.39,0.74 -1.17,0.74 -3.12,0 -6.26,2.43 -9.43,7.29 -2.89,4.46 -4.34,8.2 -4.34,11.22 0,1.59 0.84,2.38 2.51,2.38 1.5,0 3.24,-0.92 5.21,-2.75 1.98,-1.83 3.66,-3.99 5.05,-6.47 -1.78,-1.19 -2.67,-2.85 -2.67,-4.98 0,-1.88 0.47,-3.34 1.42,-4.38 0.83,-0.89 1.75,-1.34 2.75,-1.34 2.39,0 3.59,1.41 3.59,4.24 0,1.98 -0.59,4.06 -1.75,6.24 0.39,0.05 0.61,0.07 0.66,0.07 0.67,0 1.37,-0.27 2.09,-0.81 0.56,0.1 0.72,0.37 0.5,0.81zm-4.26 -6.69c0,-1.68 -0.38,-2.52 -1.16,-2.52 -1,0 -1.51,1.39 -1.51,4.16 0,1.78 0.37,3.07 1.09,3.87 1.06,-2.19 1.58,-4.02 1.58,-5.51z"/>
   <path class="fil0 str0" d="M163.58 51.85c1.61,0.12 3.66,0.17 6.14,0.17 6.33,0 12.66,-0.66 18.99,-1.99 6.33,-1.44 11.85,-3.48 16.57,-6.13 4.96,-2.66 9.24,-5.86 12.84,-9.62 -1.98,-2.32 -2.98,-4.7 -2.98,-7.13 0,-1.66 0.44,-3.04 1.31,-4.15 0.99,-1.1 2.23,-1.66 3.72,-1.66 1.36,0 2.42,0.5 3.16,1.5 0.87,0.99 1.31,2.32 1.31,3.98 0,2.65 -0.87,4.97 -2.61,6.96 2.48,2.1 6.02,3.15 10.61,3.15 2.73,0 5.46,-0.5 8.19,-1.49 2.48,-0.89 4.72,-2.1 6.7,-3.65 1.99,-1.55 3.6,-3.32 4.84,-5.31 1.12,-2.1 1.68,-4.2 1.68,-6.3 0,-3.65 -1.68,-6.69 -5.03,-9.12 -3.35,-2.32 -7.82,-3.48 -13.4,-3.48 -4.34,0 -9.06,0.72 -14.15,2.15 -4.96,1.33 -10.11,3.43 -15.45,6.31 -5.33,2.76 -10.73,6.13 -16.19,10.11 -5.71,4.2 -10.68,8.4 -14.9,12.6 -4.46,4.32 -8.25,8.68 -11.35,13.1zm-65.34 12.94c-1.61,-0.11 -3.66,-0.17 -6.14,-0.17 -6.33,0 -12.66,0.67 -18.99,1.99 -6.33,1.44 -11.85,3.49 -16.57,6.14 -4.96,2.65 -9.24,5.86 -12.84,9.62 1.98,2.32 2.97,4.7 2.97,7.13 0,1.66 -0.43,3.04 -1.3,4.14 -0.99,1.11 -2.23,1.66 -3.72,1.66 -1.37,0 -2.42,-0.5 -3.17,-1.49 -0.86,-1 -1.3,-2.32 -1.3,-3.98 0,-2.65 0.87,-4.98 2.61,-6.97 -2.49,-2.1 -6.02,-3.15 -10.61,-3.15 -2.73,0 -5.46,0.5 -8.19,1.5 -2.49,0.88 -4.72,2.1 -6.71,3.64 -1.98,1.55 -3.59,3.32 -4.84,5.31 -1.11,2.1 -1.67,4.2 -1.67,6.3 0,3.65 1.67,6.69 5.03,9.12 3.35,2.32 7.81,3.48 13.4,3.48 4.34,0 9.06,-0.71 14.15,-2.15 4.96,-1.33 10.11,-3.43 15.45,-6.3 5.33,-2.77 10.73,-6.14 16.19,-10.12 5.71,-4.2 10.67,-8.4 14.89,-12.6 4.47,-4.31 8.26,-8.68 11.36,-13.1zm67.57 -58.21c-8.56,3.76 -14.64,7.36 -18.24,10.78 -5.09,4.31 -8.19,9.12 -9.31,14.43 -1.36,4.86 -0.56,9.07 2.42,12.6 2.48,-3.65 4.31,-6.27 5.49,-7.87 1.18,-1.61 2.64,-3.51 4.38,-5.72 1.74,-2.22 3.22,-4.04 4.47,-5.48 4.59,-5.86 8.68,-10.61 12.28,-14.26 2.48,-2.87 5.15,-5.53 8.01,-7.96l-9.5 3.48zm9.5 -5.3c3.72,-1.22 5.58,-1.27 5.58,-0.17 -0.87,1.88 -3.47,5.14 -7.82,9.79 -6.45,6.85 -11.48,13.04 -15.08,18.57 -3.22,4.86 -7.13,11.11 -11.72,18.74 2.85,0.99 5.39,1.77 7.63,2.32 6.33,-6.63 13.22,-12.88 20.66,-18.74 7.2,-5.64 14.65,-10.61 22.34,-14.92 7.45,-4.09 14.83,-7.25 22.15,-9.46 7.32,-2.21 14.15,-3.31 20.48,-3.31 6.58,0 11.91,1.27 16.01,3.81 3.97,2.65 5.95,6.08 5.95,10.28 0,3.76 -1.3,7.3 -3.9,10.62 -2.61,3.2 -6.09,5.85 -10.43,7.95 -4.34,1.99 -8.87,2.99 -13.59,2.99 -5.46,0 -9.86,-1.22 -13.21,-3.65 -3.48,3.76 -7.82,7.02 -13.04,9.79 -5.08,2.76 -11.1,4.91 -18.05,6.46 -6.83,1.55 -13.72,2.32 -20.67,2.32 -2.85,0 -5.27,-0.05 -7.26,-0.16 -4.21,5.41 -7.69,11.38 -10.42,17.91 -2.61,6.41 -3.91,11.99 -3.91,16.75 0,3.75 0.99,7.07 2.98,9.94 1.98,2.88 4.78,5.09 8.38,6.64 3.72,1.54 7.94,2.32 12.65,2.32 6.21,0 12.48,-1.44 18.81,-4.31 6.33,-2.88 11.54,-6.52 15.63,-10.95 3.97,-4.42 5.96,-8.84 5.96,-13.26 0,-2.77 -0.87,-4.98 -2.61,-6.64 -1.86,-1.65 -4.28,-2.48 -7.26,-2.48 -3.1,0 -5.95,0.77 -8.56,2.32 -2.48,1.44 -5.15,4.03 -8,7.79l-2.24 -0.99c1.37,-2.99 3.29,-5.75 5.77,-8.29 2.49,-2.44 5.28,-4.37 8.38,-5.81 3.35,-1.32 6.51,-1.99 9.49,-1.99 3.48,0 6.33,1 8.57,2.99 2.23,1.99 3.35,4.7 3.35,8.12 0,3.98 -1.55,8.29 -4.66,12.94 -2.97,4.53 -7.19,8.9 -12.65,13.1 -5.84,4.42 -11.86,7.79 -18.06,10.11 -6.08,2.32 -12.23,3.48 -18.43,3.48 -5.83,0 -11.05,-0.99 -15.64,-2.98 -4.59,-1.99 -8.13,-4.81 -10.61,-8.46 -2.48,-3.65 -3.72,-7.79 -3.72,-12.43 0,-5.31 1.24,-10.95 3.72,-16.92 2.61,-6.08 6.15,-11.77 10.61,-17.08l2.79 -3.31c-1.73,-0.34 -4.15,-0.83 -7.25,-1.5l0.18 0c0,-0.11 -1.3,2.05 -3.91,6.47 -2.36,3.32 -6.89,10.89 -13.59,22.72l-13.96 31.17c-6.95,0 -10.42,-1.6 -10.42,-4.81 0,-1.65 0.93,-4.09 2.79,-7.29 2.11,-3.76 6.02,-10.45 11.73,-20.07 1.61,-2.54 3.16,-4.97 4.65,-7.29 -3.97,-2.88 -8.62,-4.98 -13.96,-6.3 -6.33,6.63 -13.22,12.87 -20.66,18.73 -7.2,5.64 -14.65,10.62 -22.34,14.93 -7.45,4.09 -14.83,7.24 -22.15,9.45 -7.33,2.21 -14.15,3.32 -20.48,3.32 -6.58,0 -11.91,-1.27 -16.01,-3.82 -3.97,-2.65 -5.96,-6.08 -5.96,-10.28 0,-3.76 1.31,-7.29 3.91,-10.61 2.61,-3.21 6.08,-5.86 10.43,-7.96 4.34,-1.99 8.87,-2.99 13.59,-2.99 5.46,0 9.86,1.22 13.21,3.65 3.48,-3.76 7.82,-7.02 13.03,-9.78 5.09,-2.77 11.11,-4.92 18.06,-6.47 6.83,-1.55 13.71,-2.32 20.66,-2.32 2.86,0 5.28,0.05 7.26,0.17 4.22,-5.42 7.7,-11.39 10.43,-17.91 2.6,-6.42 3.91,-12 3.91,-16.75 0,-3.76 -1,-7.08 -2.98,-9.95 -1.99,-2.88 -4.78,-5.09 -8.38,-6.63 -3.72,-1.55 -7.94,-2.33 -12.66,-2.33 -6.2,0 -12.47,1.44 -18.8,4.32 -6.33,2.87 -11.54,6.52 -15.64,10.94 -3.97,4.42 -5.95,8.84 -5.95,13.27 0,2.76 0.87,4.97 2.6,6.63 1.87,1.66 4.29,2.49 7.26,2.49 3.11,0 5.96,-0.78 8.57,-2.32 2.48,-1.44 5.15,-4.04 8,-7.8l2.24 1c-1.37,2.98 -3.29,5.74 -5.78,8.29 -2.48,2.43 -5.27,4.36 -8.37,5.8 -3.35,1.33 -6.52,1.99 -9.5,1.99 -3.47,0 -6.32,-0.99 -8.56,-2.98 -2.23,-1.99 -3.35,-4.7 -3.35,-8.13 0,-3.98 1.55,-8.29 4.65,-12.93 2.98,-4.54 7.2,-8.9 12.66,-13.1 5.83,-4.43 11.85,-7.8 18.06,-10.12 6.08,-2.32 12.22,-3.48 18.43,-3.48 5.83,0 11.04,0.99 15.63,2.98 4.6,1.99 8.13,4.81 10.62,8.46 2.48,3.65 3.72,7.79 3.72,12.44 0,5.3 -1.24,10.94 -3.72,16.91 -2.61,6.08 -6.15,11.78 -10.62,17.08l-2.79 3.32c4.84,0.77 9.56,2.43 14.15,4.97l0 0c6.83,-10.39 11.36,-17.19 13.59,-20.39l0 0c-3.1,-2.32 -4.96,-4.7 -5.59,-7.13 -0.86,-3.98 -0.74,-7.63 0.38,-10.95 1.49,-3.54 3.35,-6.74 5.58,-9.62 2.48,-3.2 6.27,-6.41 11.36,-9.61 4.34,-2.77 12.9,-5.97 25.69,-9.62z"/>
   <path class="fil0 str0" d="M248.87 67.58c-6.17,10.41 -9.26,16.8 -9.26,19.18 0,0.79 0.28,1.19 0.84,1.19 0.83,0 2.01,-0.73 3.54,-2.19 1.53,-1.47 2.52,-2.67 2.96,-3.61 0.84,-0.3 1.4,-0.2 1.67,0.3 -0.61,1.24 -1.75,2.63 -3.42,4.16 -2.17,2.03 -4.28,3.05 -6.34,3.05 -0.83,0 -1.58,-0.3 -2.25,-0.89 -0.84,-0.65 -1.25,-1.51 -1.25,-2.6 0,-1.09 0.47,-2.78 1.42,-5.06 -4.9,5.65 -8.6,8.47 -11.1,8.47 -2.51,0 -3.76,-1.09 -3.76,-3.27 0,-1.23 1.14,-4.03 3.42,-8.39 1.39,-2.73 2.81,-5.43 4.26,-8.11 0.22,-0.54 0,-0.81 -0.67,-0.81 -1.22,0 -1.83,-0.38 -1.83,-1.12 0,-0.74 0.5,-1.09 1.5,-1.04 2.33,0.15 4.59,0.05 6.76,-0.3 0.44,-0.1 0.78,-0.02 1,0.23 0.22,0.19 0.22,0.49 0,0.89 -1.67,2.97 -3.34,5.97 -5.01,8.99 -3.11,5.7 -4.67,8.97 -4.67,9.81 0,0.45 0.28,0.67 0.83,0.67 1.39,0 5.48,-4.09 12.27,-12.26 1.22,-2.23 2.5,-4.54 3.84,-6.91 0.44,-0.85 0.94,-1.27 1.5,-1.27 0.22,0 0.68,-0.02 1.38,-0.07 0.69,-0.05 1.15,-0.08 1.37,-0.08 1.06,0 1.39,0.35 1,1.04z"/>
   <path class="fil0 str0" d="M289.09 67.51c0,-0.15 -0.39,0.47 -1.17,1.86 -1.16,2.08 -2.72,5.08 -4.67,8.99 -2.45,4.91 -3.67,7.73 -3.67,8.47 0,0.75 0.5,1.12 1.5,1.12 2,0 4.03,-1.59 6.09,-4.76 1,-0.29 1.53,-0.15 1.59,0.45 -0.78,1.24 -1.84,2.43 -3.17,3.57 -1.89,1.63 -3.7,2.45 -5.43,2.45 -3.17,0 -4.75,-1.12 -4.75,-3.35 0,-1.58 0.86,-4.16 2.58,-7.73 1.17,-2.47 2.23,-4.43 3.18,-5.87l-0.26 -0.37c-1.39,0.69 -4.08,3.35 -8.09,7.95 -2.06,2.43 -3.98,5.08 -5.76,7.96 -0.33,0.64 -1.67,1.09 -4,1.33 -0.78,0.1 -1.17,-0.02 -1.17,-0.37 0,-0.24 1.28,-2.75 3.84,-7.5 2.78,-5.11 4.34,-8.06 4.67,-8.85l-0.33 -0.37c-1.34,0.64 -4.04,3.29 -8.1,7.95 -2.61,2.98 -4.72,5.48 -6.34,7.51 -0.16,0.3 -0.66,0.63 -1.5,1 -0.83,0.37 -1.58,0.56 -2.25,0.56 -0.67,0 -1,-0.3 -1,-0.89 0,-0.35 1.53,-3.27 4.59,-8.77 2.72,-4.96 4.08,-8.05 4.08,-9.29 0,-0.94 -0.39,-1.42 -1.16,-1.42 -0.11,0 -1.09,0.28 -2.92,0.82 -0.23,0 -0.41,-0.16 -0.55,-0.48 -0.14,-0.32 -0.15,-0.56 -0.04,-0.71 2,-1.34 4.2,-2 6.59,-2 2.23,0 3.34,0.86 3.34,2.6 0,1.58 -1.45,4.95 -4.34,10.11l0.34 0.07c1.61,-1.98 3.83,-4.26 6.67,-6.84 2.84,-2.57 4.87,-4.2 6.09,-4.87 1.23,-0.67 2.59,-1 4.09,-1 0.78,0 1.17,0.2 1.17,0.59 0,-0.04 -0.39,0.62 -1.17,2.01l-4.76 8.55c4.79,-5.3 8.63,-8.72 11.52,-10.26 1.22,-0.69 2.45,-1.04 3.67,-1.04 0.67,0 1,0.27 1,0.82z"/>
   <path class="fil0 str0" d="M297.69 88.62c0.67,0 1.41,-0.17 2.21,-0.52 0.81,-0.35 1.59,-0.81 2.34,-1.38 0.75,-0.57 1.46,-1.2 2.13,-1.89 0.66,-0.7 1.22,-1.41 1.67,-2.16 -0.78,-0.39 -1.49,-0.88 -2.13,-1.45 -0.64,-0.57 -0.99,-1.25 -1.05,-2.04 -0.05,-1.14 0.28,-2.16 1.01,-3.05 0.72,-0.89 1.72,-1.36 3,-1.41 1.17,-0.15 2.09,-0.01 2.75,0.41 0.67,0.42 1.14,1 1.42,1.75 0.28,0.74 0.38,1.61 0.29,2.6 -0.08,0.99 -0.32,1.95 -0.71,2.9 0.28,0.04 0.5,0.07 0.67,0.07 0.34,0 0.66,-0.06 0.96,-0.19 0.31,-0.12 0.65,-0.28 1.04,-0.48 0.28,0 0.46,0.09 0.55,0.26 0.08,0.17 0.07,0.36 -0.04,0.56 -0.45,0.3 -0.92,0.54 -1.42,0.74 -0.5,0.2 -1.06,0.3 -1.67,0.3 -0.28,0 -0.53,-0.03 -0.75,-0.08 -0.67,0.99 -1.52,1.88 -2.55,2.64 -1.03,0.77 -2.13,1.44 -3.29,2.01 -1.17,0.57 -2.38,0.99 -3.63,1.26 -1.26,0.28 -2.44,0.39 -3.55,0.34 -2.89,0.1 -4.34,-1.04 -4.34,-3.42 0,-0.74 0.59,-2.44 1.75,-5.09 1.17,-2.65 2.92,-6.46 5.26,-11.41 0.06,-0.1 0.08,-0.16 0.08,-0.19 0,-0.02 0.03,-0.08 0.09,-0.18 0,-0.2 -0.14,-0.33 -0.42,-0.38 -0.28,-0.04 -0.57,-0.09 -0.88,-0.14 -0.3,-0.05 -0.58,-0.14 -0.83,-0.26 -0.25,-0.13 -0.38,-0.36 -0.38,-0.71 -0.16,-0.69 0.17,-1.04 1.01,-1.04l2.5 0c0.83,-0.05 1.65,-0.14 2.46,-0.26 0.81,-0.12 1.6,-0.21 2.38,-0.26 0.55,0 0.83,0.25 0.83,0.74 0,0.1 0.03,0.18 0.09,0.22 0.05,0.05 0.05,0.13 0,0.23 -1.23,2.28 -2.42,4.56 -3.59,6.84 -1.17,2.28 -2.21,4.34 -3.13,6.2 -0.92,1.86 -1.66,3.42 -2.21,4.69 -0.56,1.26 -0.84,2.01 -0.84,2.26 0.06,0.65 0.37,0.97 0.92,0.97zm10.51 -11c-0.11,-1.39 -0.58,-2.03 -1.41,-1.93 -0.5,0 -1.07,0.32 -1.71,0.96 -0.64,0.65 -0.94,1.46 -0.88,2.45 0.06,0.65 0.35,1.21 0.88,1.68 0.52,0.47 1.09,0.75 1.71,0.85 0.55,-0.84 0.93,-1.58 1.12,-2.23 0.2,-0.64 0.29,-1.24 0.29,-1.78z"/>
  </g>
 </g>
</svg>
